<mxfile host="app.diagrams.net" modified="2024-02-03T11:26:19.308Z" agent="Mozilla/5.0 (Windows NT 10.0; Win64; x64) AppleWebKit/537.36 (KHTML, like Gecko) Chrome/121.0.0.0 Safari/537.36 Edg/121.0.0.0" etag="bwZKKOlJXNSd8cwz7IyF" version="23.1.1" type="device">
  <diagram name="Page-1" id="1fB01siBSFsvv6lx_Elc">
    <mxGraphModel dx="1276" dy="701" grid="1" gridSize="10" guides="1" tooltips="1" connect="1" arrows="1" fold="1" page="1" pageScale="1" pageWidth="1169" pageHeight="827" math="0" shadow="0">
      <root>
        <mxCell id="0" />
        <mxCell id="1" parent="0" />
        <mxCell id="lrEO84pTNe-Y5uYV_HlD-8" style="edgeStyle=orthogonalEdgeStyle;rounded=0;orthogonalLoop=1;jettySize=auto;html=1;entryX=0;entryY=0.5;entryDx=0;entryDy=0;" edge="1" parent="1" source="HnfLJDG9_L5m2ppP9Bk2-2">
          <mxGeometry relative="1" as="geometry">
            <mxPoint x="752" y="409" as="targetPoint" />
          </mxGeometry>
        </mxCell>
        <mxCell id="HnfLJDG9_L5m2ppP9Bk2-2" value="&lt;b&gt;&lt;font style=&quot;font-size: 15px;&quot;&gt;Main Mote&lt;/font&gt;&lt;/b&gt;" style="rounded=1;whiteSpace=wrap;html=1;fillColor=#dae8fc;strokeColor=#6c8ebf;" parent="1" vertex="1">
          <mxGeometry x="552" y="369" width="150" height="80" as="geometry" />
        </mxCell>
        <mxCell id="HnfLJDG9_L5m2ppP9Bk2-3" value="&lt;b&gt;&lt;font style=&quot;font-size: 15px;&quot;&gt;Outdoor Mote&lt;/font&gt;&lt;/b&gt;" style="rounded=1;whiteSpace=wrap;html=1;fillColor=#ffe6cc;strokeColor=#d79b00;" parent="1" vertex="1">
          <mxGeometry x="397" y="549" width="120" height="80" as="geometry" />
        </mxCell>
        <mxCell id="HnfLJDG9_L5m2ppP9Bk2-5" value="Light Sensor" style="ellipse;whiteSpace=wrap;html=1;" parent="1" vertex="1">
          <mxGeometry x="267" y="689" width="120" height="60" as="geometry" />
        </mxCell>
        <mxCell id="HnfLJDG9_L5m2ppP9Bk2-9" style="edgeStyle=orthogonalEdgeStyle;rounded=0;orthogonalLoop=1;jettySize=auto;html=1;entryX=0.5;entryY=1;entryDx=0;entryDy=0;" parent="1" source="HnfLJDG9_L5m2ppP9Bk2-6" target="HnfLJDG9_L5m2ppP9Bk2-3" edge="1">
          <mxGeometry relative="1" as="geometry" />
        </mxCell>
        <mxCell id="HnfLJDG9_L5m2ppP9Bk2-6" value="&lt;font style=&quot;font-size: 13px;&quot;&gt;Soil Humidity Sensor&lt;/font&gt;" style="ellipse;whiteSpace=wrap;html=1;" parent="1" vertex="1">
          <mxGeometry x="397" y="689" width="120" height="60" as="geometry" />
        </mxCell>
        <mxCell id="HnfLJDG9_L5m2ppP9Bk2-7" value="&lt;font style=&quot;font-size: 13px;&quot;&gt;Temperature Humidity Sensor&lt;/font&gt;" style="ellipse;whiteSpace=wrap;html=1;" parent="1" vertex="1">
          <mxGeometry x="527" y="689" width="120" height="60" as="geometry" />
        </mxCell>
        <mxCell id="HnfLJDG9_L5m2ppP9Bk2-12" value="" style="endArrow=classic;html=1;rounded=0;entryX=0;entryY=1;entryDx=0;entryDy=0;" parent="1" target="HnfLJDG9_L5m2ppP9Bk2-3" edge="1">
          <mxGeometry width="50" height="50" relative="1" as="geometry">
            <mxPoint x="337" y="689" as="sourcePoint" />
            <mxPoint x="387" y="639" as="targetPoint" />
          </mxGeometry>
        </mxCell>
        <mxCell id="HnfLJDG9_L5m2ppP9Bk2-13" value="" style="endArrow=classic;html=1;rounded=0;entryX=1;entryY=1;entryDx=0;entryDy=0;exitX=0.5;exitY=0;exitDx=0;exitDy=0;" parent="1" source="HnfLJDG9_L5m2ppP9Bk2-7" target="HnfLJDG9_L5m2ppP9Bk2-3" edge="1">
          <mxGeometry width="50" height="50" relative="1" as="geometry">
            <mxPoint x="347" y="699" as="sourcePoint" />
            <mxPoint x="407" y="639" as="targetPoint" />
          </mxGeometry>
        </mxCell>
        <mxCell id="HnfLJDG9_L5m2ppP9Bk2-14" value="&lt;b&gt;&lt;font style=&quot;font-size: 15px;&quot;&gt;Smart-Lock Mote&lt;/font&gt;&lt;/b&gt;" style="rounded=1;whiteSpace=wrap;html=1;fillColor=#d5e8d4;strokeColor=#82b366;" parent="1" vertex="1">
          <mxGeometry x="757" y="549" width="120" height="80" as="geometry" />
        </mxCell>
        <mxCell id="lrEO84pTNe-Y5uYV_HlD-2" style="edgeStyle=orthogonalEdgeStyle;rounded=0;orthogonalLoop=1;jettySize=auto;html=1;entryX=0.5;entryY=1;entryDx=0;entryDy=0;" edge="1" parent="1" source="lrEO84pTNe-Y5uYV_HlD-1" target="HnfLJDG9_L5m2ppP9Bk2-14">
          <mxGeometry relative="1" as="geometry" />
        </mxCell>
        <mxCell id="lrEO84pTNe-Y5uYV_HlD-1" value="&lt;span style=&quot;font-size: 13px;&quot;&gt;Latch control system via&lt;br&gt;&amp;nbsp;RFID &amp;amp; Password&lt;/span&gt;" style="ellipse;whiteSpace=wrap;html=1;" vertex="1" parent="1">
          <mxGeometry x="732" y="679" width="170" height="80" as="geometry" />
        </mxCell>
        <mxCell id="lrEO84pTNe-Y5uYV_HlD-5" style="edgeStyle=orthogonalEdgeStyle;rounded=0;orthogonalLoop=1;jettySize=auto;html=1;" edge="1" parent="1" source="lrEO84pTNe-Y5uYV_HlD-3" target="HnfLJDG9_L5m2ppP9Bk2-2">
          <mxGeometry relative="1" as="geometry" />
        </mxCell>
        <mxCell id="lrEO84pTNe-Y5uYV_HlD-3" value="&lt;font style=&quot;font-size: 13px;&quot;&gt;Temperature Humidity Sensor&lt;/font&gt;" style="ellipse;whiteSpace=wrap;html=1;" vertex="1" parent="1">
          <mxGeometry x="372" y="379" width="120" height="60" as="geometry" />
        </mxCell>
        <mxCell id="lrEO84pTNe-Y5uYV_HlD-9" value="&lt;font style=&quot;font-size: 13px;&quot;&gt;Relay Control&lt;/font&gt;" style="rhombus;whiteSpace=wrap;html=1;" vertex="1" parent="1">
          <mxGeometry x="752" y="369" width="150" height="80" as="geometry" />
        </mxCell>
        <mxCell id="lrEO84pTNe-Y5uYV_HlD-13" value="" style="endArrow=classic;html=1;rounded=0;entryX=0.25;entryY=1;entryDx=0;entryDy=0;exitX=0.5;exitY=0;exitDx=0;exitDy=0;" edge="1" parent="1" source="HnfLJDG9_L5m2ppP9Bk2-3" target="HnfLJDG9_L5m2ppP9Bk2-2">
          <mxGeometry relative="1" as="geometry">
            <mxPoint x="507" y="509" as="sourcePoint" />
            <mxPoint x="607" y="509" as="targetPoint" />
          </mxGeometry>
        </mxCell>
        <mxCell id="lrEO84pTNe-Y5uYV_HlD-14" value="&lt;font style=&quot;font-size: 13px;&quot;&gt;IEEE 802.15.4&lt;/font&gt;" style="edgeLabel;resizable=0;html=1;align=center;verticalAlign=middle;" connectable="0" vertex="1" parent="lrEO84pTNe-Y5uYV_HlD-13">
          <mxGeometry relative="1" as="geometry" />
        </mxCell>
        <mxCell id="lrEO84pTNe-Y5uYV_HlD-15" value="" style="endArrow=classic;html=1;rounded=0;entryX=0.75;entryY=1;entryDx=0;entryDy=0;exitX=0.5;exitY=0;exitDx=0;exitDy=0;" edge="1" parent="1" source="HnfLJDG9_L5m2ppP9Bk2-14" target="HnfLJDG9_L5m2ppP9Bk2-2">
          <mxGeometry relative="1" as="geometry">
            <mxPoint x="527" y="559" as="sourcePoint" />
            <mxPoint x="600" y="459" as="targetPoint" />
          </mxGeometry>
        </mxCell>
        <mxCell id="lrEO84pTNe-Y5uYV_HlD-16" value="&lt;font style=&quot;font-size: 14px;&quot;&gt;IEEE 802.15.4&lt;/font&gt;" style="edgeLabel;resizable=0;html=1;align=center;verticalAlign=middle;" connectable="0" vertex="1" parent="lrEO84pTNe-Y5uYV_HlD-15">
          <mxGeometry relative="1" as="geometry" />
        </mxCell>
        <mxCell id="lrEO84pTNe-Y5uYV_HlD-17" value="&lt;font style=&quot;font-size: 15px;&quot;&gt;&lt;b&gt;ESP32 Web server&lt;/b&gt;&lt;/font&gt;" style="ellipse;shape=cloud;whiteSpace=wrap;html=1;fillColor=#b0e3e6;strokeColor=#0e8088;" vertex="1" parent="1">
          <mxGeometry x="487.5" y="210" width="264.5" height="110" as="geometry" />
        </mxCell>
        <mxCell id="lrEO84pTNe-Y5uYV_HlD-19" value="" style="endArrow=classic;startArrow=classic;html=1;rounded=0;" edge="1" parent="1">
          <mxGeometry width="50" height="50" relative="1" as="geometry">
            <mxPoint x="630" y="369" as="sourcePoint" />
            <mxPoint x="630" y="312" as="targetPoint" />
          </mxGeometry>
        </mxCell>
        <mxCell id="lrEO84pTNe-Y5uYV_HlD-20" value="Local web client" style="shape=umlActor;verticalLabelPosition=bottom;verticalAlign=top;html=1;outlineConnect=0;" vertex="1" parent="1">
          <mxGeometry x="357" y="90" width="30" height="60" as="geometry" />
        </mxCell>
        <mxCell id="lrEO84pTNe-Y5uYV_HlD-21" value="" style="endArrow=classic;html=1;rounded=0;" edge="1" parent="1" source="lrEO84pTNe-Y5uYV_HlD-20" target="lrEO84pTNe-Y5uYV_HlD-24">
          <mxGeometry relative="1" as="geometry">
            <mxPoint x="397" y="290" as="sourcePoint" />
            <mxPoint x="520" y="130" as="targetPoint" />
          </mxGeometry>
        </mxCell>
        <mxCell id="lrEO84pTNe-Y5uYV_HlD-22" value="&lt;font style=&quot;font-size: 13px;&quot;&gt;HTTP&lt;/font&gt;" style="edgeLabel;resizable=0;html=1;align=center;verticalAlign=middle;" connectable="0" vertex="1" parent="lrEO84pTNe-Y5uYV_HlD-21">
          <mxGeometry relative="1" as="geometry" />
        </mxCell>
        <mxCell id="lrEO84pTNe-Y5uYV_HlD-24" value="Home router" style="shape=cube;whiteSpace=wrap;html=1;boundedLbl=1;backgroundOutline=1;darkOpacity=0.05;darkOpacity2=0.1;" vertex="1" parent="1">
          <mxGeometry x="564" y="83" width="120" height="80" as="geometry" />
        </mxCell>
        <mxCell id="lrEO84pTNe-Y5uYV_HlD-27" value="" style="endArrow=classic;startArrow=classic;html=1;rounded=0;entryX=0;entryY=0;entryDx=70;entryDy=80;entryPerimeter=0;exitX=0.551;exitY=0.141;exitDx=0;exitDy=0;exitPerimeter=0;" edge="1" parent="1" source="lrEO84pTNe-Y5uYV_HlD-17" target="lrEO84pTNe-Y5uYV_HlD-24">
          <mxGeometry width="50" height="50" relative="1" as="geometry">
            <mxPoint x="640" y="230" as="sourcePoint" />
            <mxPoint x="647" y="160.00000000000003" as="targetPoint" />
          </mxGeometry>
        </mxCell>
        <mxCell id="lrEO84pTNe-Y5uYV_HlD-48" value="&lt;font style=&quot;font-size: 13px;&quot;&gt;Wi-fi&lt;/font&gt;" style="edgeLabel;html=1;align=center;verticalAlign=middle;resizable=0;points=[];" vertex="1" connectable="0" parent="lrEO84pTNe-Y5uYV_HlD-27">
          <mxGeometry x="0.1569" relative="1" as="geometry">
            <mxPoint as="offset" />
          </mxGeometry>
        </mxCell>
        <mxCell id="lrEO84pTNe-Y5uYV_HlD-36" value="Internet" style="shape=image;verticalLabelPosition=bottom;labelBackgroundColor=default;verticalAlign=top;aspect=fixed;imageAspect=0;image=data:image/png,iVBORw0KGgoAAAANSUhEUgAAA5gAAAOYCAYAAACwyFy9AAAAAXNSR0IArs4c6QAAAARnQU1BAACxjwv8YQUAAAAJcEhZcwAADsMAAA7DAcdvqGQAAP+lSURBVHhe7L0JfFXVufcvOQmZEzJCCAFCSCAEEmZlFEHAqUVbarGtvNpqb/vW29Zqpbe+DqD2yuD17623ttUOF61SiwKOCEUZBZV5JgwBQhgCSch8QnKS//Pb2SvdHM5JTpIz7HPy+34+v+y91z7Zw9p7r7WeNTyrW1NT03WEEEIIIYQQQkhnCdKXhBBCCCGEEEJIp6CBSQghhBBCCCHELdDAJIQQQgghhBDiFmhgEkIIIYQQQghxCzQwCSGEEEIIIYS4BRqYhBBCCCGEEELcAg1MQgghhBBCCCFugQYmIYQQQgghhBC3QAOTEEIIIYQQQohboIFJCCGEEEIIIcQt0MAkhBBCCCGEEOIWaGASQgghhBBCCHELNDAJIYQQQgghhLgFGpiEEEIIIYQQQtwCDUxCCCGEEEIIIW6BBiYhhBBCCCGEELdAA5MQQgghhBBCiFuggUkIIYQQQgghxC3QwCSEEEIIIYQQ4hZoYBJCCCGEEEIIcQs0MAkhhBBCCCGEuAUamIQQQgghhBBC3AINTEIIIYQQQgghboEGJiGEEEIIIYQQt0ADkxBCCCGEEEKIW6CBSQghhBBCCCHELdDAJIQQQgghhBDiFmhgEkIIIYQQQghxCzQwCSGEEEIIIYS4BRqYhBBCCCGEEELcAg1MQgghhBBCCCFugQYmIYQQQgghhBC3QAOTEEIIIYQQQohboIFJCCGEEEIIIcQtdGtqatJXCSGEEI/RTVewCJWbxgpOZESNojptq21wHItBOJazJYTfA3Uem6hBV71hiX2EEEII6QQ0MAkhhHgDGJYhoghRmL4N4w+ZEAw+GHjnRW0BYxH/FylSx2pNOCfOpc5jFdWKqkSVogqDEE4IIYSQTkADkxBCiCvASINCRd31JYw3R1L77X+D8HB9iWPBWFStiqoVUQnbjlAGpjIgcSx1PuNSCedBa6Y6zxURWkprRMrQrNalWjFVxujqUrWQAoRBxntSRq1RCLsgIoQQQgIKGpiEEEJcAa2FaDWME/XQFW1QlGE9VtSjrq4u7uzZszFnzpyJunDhQveysrKQqqqqoCtXrhi7rYKrDLbu3btry5CQkKsyqPr6+pb/kWNgXem6hoaGbpCs4tjX2Ww25G/q92qpHa9bt25NFosF643BwcFNIs2oxHlxztDQUEjbFxQUhP2a8H9hYWHaPvw/tnE8gHOp40ZERNjCw8Mb4uPja+Li4qokrFh+AmMSS6O2igghhJCAggYmIYR0HdCKCEMQxmG8CIYgDEIYj2hZVC2OaPWDoYaWP2XEqRZB9VsILYhaS6UYdKFiAIZWVFSElpSUhItBGX706NEIMTBDa2pqQhsbGy2S3+B4mjGGpSsoI649/yO4+luHGaB+TqMBqS3tw40GsDJ+ESb7YZw2ijF6pV+/fnXZ2dlVKSkpVQkJCZVibKLFVHXPhdCSCuFYMHRViydaVO278R4SEUIIIaaGBiYhhAQOMHJU66BaKgG0QPYS9RcNFKWJUiUfSBRDMO706dMxBQUFEYWFhWHV1dUhVqs1RPYFQfI7oI6jYTD6rgonLqFlvgajFQZpfVRUVO2ECRPKhw8fXizr52TfWVGR6IzoqOiUCF1s0dXXiMrMtePpgrFKCCGEeBUamIQQEhigRTFRlCxK0pfYRktljAith6oFMqa+vj62uLg46ty5c1FnzpwJE6HlsXtDQ0NIXV0dWhuVYWnsamqERmXnuCrzhaEJIzMoKKghIiKiLj09vXbAgAE1qamp1Wj9DA0NrZb9l+WnaNHE2E44LALKQRKMTrR6qtZO/FapVFQiwm8IIYQQj0IDkxBCzI1yrqOknOVAqhsrQFdXtEj209W3rKwsbd26db2/+uqrBJvNprVGSjhwahw6MSZJJ9FbKt2FdiwcEwZpZGRk3aBBgyrz8vLKBw4ceCkkJOSi7FbjPiG0hKIFFF1v0fKpHBBhG4LTIxipymglhBBCOgwNTEIIMS8wKOFUB62QEFomoT6iVJEaPwmjMKS+vj5CjMrI8+fPR6Kr6+HDhyMrKyvDrVZrqG44tmk80sD0DG42MFtAqycUGhpa37179/r4+Pi6tLQ0a9++fa09evTQFB0dXRscHIzWS9XyibGdaNE8ZhCMUrR2EkIIIZ2CBiYhhPgGGHJohYSTHHRvhaFodKCDlknsg2GZoEvr+lpRUZH20UcfpR05ciRaDEhlYDodE6nCHRk5NCgDAwfPVtu2C9ccFCUmJlZOmzatZPTo0RjTmS/CEi2eMDCVEYqWTjWlC4SWTowFJYQQQlqFBiYhhPgGGJAwGjFWEl1b+4rQtTXNZrP1qaqqCi8tLQ2Dox043MEUHyUlJSGXLl0KkfBQ2Q/PrMGShqsusk6hgRn4OHq2drTsDwoKsqHFEy2bGRkZUE1kZOQVTK0SGxtrlfVai8Wixm2q7rboZvsPESGEENIqNDAJIcT9wGhD6yO8tmJKEDUdiBKMQoylhPMdtFDCyOwpRmOvffv2Ja1ZsyZZjMruYkBi3KTRALzGGKSBSNqiPcanGJZXoqKi6nJzcyuGDBlS3rdv3/KwsLAy2QVjE+M54dUW3W3RoqmmVFGOhYxC6ye92BJCSBeEBiYhhLgfGJAYO4lxkoNFmaJ0MRj7f/755/3gtfXUqVMwQIOsVmuQzWazYJ7IK1eutHhvdWI40sAk7cYFA9OImudT82oLde/eXVuGhISg5RPdZxsjIyMb8/LyqoYOHXopLi4OYzhPGHRchO62GOtJCCGki0EDkxBCOgaMSIx/RAsk5pZEKySkWimxDy2XyQ0NDYknTpxI2LlzZ9z+/fvj6urqgtG9VfYZ6ZChSAOTuJM2jFFtnzJAw8LCriQkJFTPmDHjUkZGRqlsq261akqUGhEMTWyj5XOziBBCSIBDA5MQQlwDhhyMSiU172SGaJgop7i4eMjq1at77927N0nSVm0OSZFDaBgSf6UNI1TRZLFY6u+5555TI0aMgCOhHbq2i9CFFmitoXYihBDi59DAJISQtkFrJMZLoqsrBGc8aLVEeI+qqqqEEydOxG3cuDH+woULkbW1tWG6AUkDkwQcLhqY+F1jXFxcxdixY8vFyLyYmJgIZ0FQtQieaeGVtlB0Wl+nl1pCCAkAaGASQsi/QKtjmAjjI9UUIhDGU6K1crRo1KZNm4a+9957fST91MZMSli7oYFJAh0Hhqg2vjMsLKwOHmx/8pOf5EdFRR2S8IMiTJVyRoRutuhaCyMUIoQQ4mfQwCSEkGbQ7RXGZbqovwjThijFNjQ0RJ46dSr+q6++ij948GBsdXV1y/yTHYEGJgl0nLR0as6DgoKCGhISEqrGjx9f0b9//4qUlJTy4OBgGJenRDA4d4nQnZYQQoifQQOTENLVgGGH1knV7RWOeCC0VEaJBohgZPYtLCzs++abb/YtKSmJtNlsmFYEXGUY0lAkxDWcGJwass8WERFR++1vf/tMTk4ODMydIozZxFQnEIzPAyJCCCEmhwYmIaSrAeMSXV7RMjlENFSUW15eHnvhwoUoUbgYlmGi0KqqqlCr1Roq6aRx2hAamIR0gNYMTEFr2QwPD6+Lj4+vGTFiRFW/fv0qe/ToYY2Li4Mn2q9E/0/7JSGEEFNDA5MQEojA6EOXV0wX0kMEgxJSrZUIg5OefmVlZel//OMfB4gxGVFTU4Musu0yGGlgEtI+2jA0Fdp4TYvFckUMzuqf/exnR8LCwg5LOMZsXhI1iNCqCadBF0WYCoVjNgkhxATQwCSEBCIwLtHlFd5eB4vQUpktxmTmJ598knrq1KkwMSa7W61WzEdp0eek7JChSAOTkPbhqoGpL7XfY8xmaGhoQ3BwcH3v3r3rMjMza6ZMmbJfdqNlE2M194rohZYQQkwADUxCiL8DAw/jI3uL+ojSRMkitFImQQ0NDT2PHj2atG7dusTTp0/HwKCUtE95f20xEGksEuIbXDQ6AYxNW1hY2JUZM2ZcuOGGG86EhIRgqpNzoloR5thEy+Z50UciQgghXoYGJiHE34ARiBZKJbQ+RopG6bp+8+bNWWvWrOmFLq8Go7FN45EGJiHmx2CMaktsixqx3bt37/If/OAHx2NiYvbJNlo2sYRzIJuIXWgJIcQL0MAkhPgbGEuJaUQgdIHtqSv50qVLyTt27Ej+4osvelRWVkag+6uEu2w00sAkxPw4aO3UxmtiBWM2c3JyyseMGVOalZVVLNsYr4nxmeg+C50UocUT65hvkxBCiJuhgUkIMTPo+qqmFAkXwQlPqmiYKKeurm7I6tWr+27evDlF0jJ4elXdXq+ChiMhgYsDg7MF2WdD6+b3v//9Y9nZ2fkShClQ4CzoqKhMBGdB6FoLYZsQQkgnoYFJCDEzGEOJsZWYSiRbNMBms/U6f/58j4KCgpivvvoqpqysTPP+qhuRDg1JGpiEBC6tGZiC1roZExNTlZWVVZWXl1feu3fvStmulHAYlGjdhLEJ77QfiwghhHQSGpiEEDMAA1CNpUQXWDjogVJEcNqTc+nSpcF/+tOfBly8eLFHa8akI2hgEtI1cWB8tnSnhdF50003lUyaNOmYbMLAhI6L4CgIc2+ixZMQQkg7oYFJCDEDGCsZI8KYypGivPr6+uGnT5+OO3HiRPSRI0ciiouLI2pra0P1KUXaBQ1MQromTlo3tTB4o8X0J2JoWjMyMmr69etXm5mZWZaYmAhDc7foRfyOEEJI+6CBSQjxFWithFGJqUUwrhKtlX1FA4uKiga89tprA6qrq8NtNhvGYF4DjUZCSHtwYmwqtH3BwcF1c+bMKRwxYgRaMuF9Fg6B4CgI06B8JiKEENIGNDAJIb4CRuUA0c2SDk1Ys2bNwC1btiRYrVbMUWkRwWmP066w+j5CCHGJNgzMFuR3WstmaGhoQ2ZmZuUNN9wAj7TbZNcDzb8ghBDSGjQwCSHeAi2WmE4EYyrVNCPpdXV1GR9//HG/nTt3xldXV8NbrEvQwCSEuBs7I7QJ057ExsbWzpkz50xGRkaBhJ3WhZbNZSJCCCF20MAkhHgSjJdU6iXKEY212WzjP/jggwEbN25E91jAVsoujKOWJV8++9ZauvhOdg2cvAMwOOszMzMvP/jgg1/K9kYRPM/C2GwUVYkIIaTLQwOTEOIJUAiHUZmla7AoXdS7qKgoZdOmTT0PHToUU1VVhVZNQAOzC0MDk5gNZwamhDeGhYVdufHGG4snTZp0VtbRmonxmedFi/AjQgjp6tDAJIS4gyARnPGEicJFyoHPKNFoMSrH/PWvf+1/+fLlqPZ4gWVh3ty0ZojZY3yWHf0/b+HK9fHd7Bo4MzTxR+0bNGjQpbvuuut0YmLiOtlcLSoVYZoTtGwSQkiXgwYmIcQdYOwkxleilXKQrsyysrLE/fv3J3766afxVVVVEbpx6XLBnIV4c0MDkwQ6rRmYCozTTEhIqLn11luLc3Jyzsn2KQk+KvqN9gNCCOli0MAkhHQEFK5jRT1EcSKMr4TznoGizPz8/Mw//elPA2w2W4ikMZjj8hpYQPc/2mMYuhtPvi+evC++54GDC++J1oV2+vTpRTfffHOBGJpfSNhB0VkRutDuFxFCSMBDA5MQ0hFgNA4V5YnQDXbwoUOH+uzZsyf21KlT4VVVVWE1NTXoLgscFrBZ8PY/aGC2H77ngYOL74nmeTYyMtKal5dXOWrUqJK0tLQiCd8pelL7BSGEBDg0MAkhbQFjEsZivAgtlegKC2EOy4zi4uKBq1evTt2/f38Pm82GcZguFahZ8PY/3GyIaa09QUFBNnkXgtoam+uvBqYz+P4HHob3SFtiOzw83JqTk3P5m9/85omQkBC0YMIpEAxOtGpizCYhhAQcNDAJIW2hjEu0WI4TjV26dOnIkydPoqUyVNIQCwwESPa5DAvY/ocbDTEYl01iXNajpee+++4LKSsrC3/99dedvhOefF+c3de9996rLeW6tKU74fsfeNi9Ry3rCBfZQkNDG6Kjo2vGjx9fMWnSpE2y677mXxBCSGBBA5MQ4gh4gE0UwVlPhgjjK9Pq6urStm7dmvrRRx+lSNphaWxsVOMrryoss/DsfzgzsjoBDEgbCtS5ubkVQ4YMKc/KyoJnTeiSCC04FaIGEcbz9iwuLh61ePHiXHl/rqmw8OQ75ezeX3jhhVpZ4Hp3iI6JcL1XRCBZ1Keqqqr39u3be23YsCGusrIySsKQr6prdXrN/EYCk1a+Iy0c82himpPvfe97p+R7gDOgAhFaNPFNvCYihBC/hwYmIQSgsAtjMUSEbq6pIsxfOUMK/WNfeeWVzIqKCq3wLGoTFp79DxcNTIe/wf+KGkVopbEFBwfbUIieN29enewuEcHByRmDjov2iS6KgPJAfN/8+fPvqa6uDtW7W7fgjXfKPg7EwMR154veEH0mwnyHNSKAypeRolxRjqh/fX190n/913+FWK3WkIaGBktdXR1a91VFTJvXz+8mcHHwfWmt+FimpqaWPfjgg8eioqK2yja6zZ4QweisFBFCiN9BA5MQAuANNkUEo3KwCIX9/vn5+X1WrFjR89KlSzFSSIbx6RIsKPsfDgrAjrjmN/i/6Ojo6ry8vPI777wTrZIoGGP+PxhjF0QoJKMlsFpUpS/REoi5Aq0igLlTo0XfLSsrm7N8+fJ+hw8fRgthCz4yMFfK4iMRWjBhFMO4RIsrQKsrWvnRfRxCBYzyqAzhe0pduXJlbzi/0itogNP74HcTuLTyfTUFBwfX5eTklE+aNKk4PT0d3w8MTLxvL+IHhBDib9DAJKRrgu6HKNRHilCwV1OMjJQC/qj333+/rxSKUcB3WOBlQdg/cdGItEf7H3jGjIqKquvfv39tSkqKtWfPntbc3Fx0F4XBhW6kMBhVwRhzAJ4Uoftfe/iW6O5NmzaNFMMMlRwt+MjAbNe4YgHfE76lfqL+IjjCghJEPQ4cOBB29uzZcIxfxrKqqircUesmv6+ugbPvcdy4cUWzZs2CU6DPZROVG/iuUGEDEUKI6aGBSUjXBI57MkVw3DNGlHHp0qWUw4cPx2/ZsiWutLQ0vKGhIVTCaWAGEB01MOX/Gm+44YbzmN8vNjYWhV0Yjxg/hnFjZSJ0ha0XoXVStVSitU91J3WVWaJv7tq16/o33ngD72cLfmJgwlhExU2ELhicELr7Go3PgfC+/Oqrr2aUl5dH+KI7MPE9zr7H8PDw2oSEhOpp06aV5OTknLdYLEckGNOc/FH7ASGEmBwamIR0HdT4SnTfQ0EXc1iOOH78+Mjly5enXrx4MUbSAxSo2yzcsgDsn7THwIyMjKwaNWpU2ZQpU86JUam6u2IJ4xJTLaAbLBzfuJO7RLO3bt06Vt5JOJdqwU8MzNbAt9db1FekWjbRShtvtVpjjxw5krh69eqEkpKSKDE4UbnTLvhNBg6G97ApIiKi9lvf+lZhbm7uAdlGi+YhEb7BYhHGNxNCiOmggUlI1wGeYdFVb5poUlFR0dC33347raysLKK2trZ7W/MQGmFh1j9pj4EpxhW6t+4SrRHB8Qi6wqKVEq2V6BoLYd2dfEd0z6pVq3I3btyISpAWAsDAxPWrSh4YkEoYqwmjc6JozIsvvpgu32a8fr8u3zO/ycDB+B7KuuYwC96Yr7/++sopU6bslWBMcQJ9id8QQojZoIFJSOADByQorMPrZbYo98CBA9nLly9PqaiogNEJWgqn7Smo2hfIWcj1Pe0xInW038PRyPPPP39e/h8tk+gGCwNzAfZ5kQfLy8t/8Prrr6cXFBQk6WEa3ni37OPOzQamM5SzIHybGAcNj7po6ey3efPmPqtXr06xWq3d5f7VtbQZD/wO/R+7d7HF4+zMmTPPTJ8+/bCsHxShNRO9CSB6nSWEmAYamIQEPphC4WbR9Hnz5k2FUxH57iFjIbRlvT2FU/sCOQu2vsf+mbhA0+LFizFnJRz1YJqEf4pWieARVs356C0eXr9+/b9v2LAhoaKiAs6nWvDGu+UjAxPg3nAuJTgImimaIprw2GOPxRjGabYZD/wO/R8H37G2jXARpgNqQKumpOmfSDC+2fUidJ0lhBCfQwOTkMBDjfVCIRVTjmTLdz5k8+bNA+w9czrCWeHUFcOFBVv34Epcd5CW4+IcS5YsQcsHvL7CiQg8v74k8iX/sXDhwkdLSkrg+OaqcYjeeLfs492LBqY9aNXEGFQ4BELvA3zP2vhNtGquW7cuifPSdg2cpQUS3hgUFNRw//33H8/OzlbemzFnK8ZqwtBET4RGESGEeB0amIQEBvBeiTGUMC5ROB0uGl9cXDz9L3/5ywDdgQ9+cxXtKXi6YvSwIOseXInrdqJ5gkWB9Je//GVdUlISxlJCMFrMxNNyff+Bd1V0lXHnyXfLWXz70MC0BxVDqCwaLcK3nfnqq68ml5aWBldXV3evra0NRXwZ4uyquPJk3BHfYHhntW8b4zR//OMfH05NTf1YwtT0JnDMRQghXocGJiGBATzDorUjV4Qusf2Lior6vv32233OnTsXrXevu6aQ2Z6CpytGDwuy7sGVuG4PYljW/+Y3vykNCQlBi+V+EVo80MKxVGQm5sPA9PbckH5gYKK7MCqOMC4VjrqUwy6M1xxUUFCQu3LlypQzZ84gDHgt7ohvsHtn0cXd1rt378t33313oRiZmEII3/rPtb2EEOJlaGAS4p+gwIjCL7rJ9RDBQQimHRkvBc0RO3fujKuursY8fK0WLB0VPDtj3LAg6x7cYWBaLJYrkZGRdU899RSmMsB8lZhiBF1hvxDBQQi6xMIzrJmY/+ijj/5a3iO821e9S558t/zAwHQEvn10n0WL5gRR5vbt29PXrVsXf+nSpWiJr2tagY3wWw0cDO+v5gwoIiKiZsiQIRVz5szZImEbRfjeUakEw5MQQjwODUxC/BN0h4UBidbKm0R5+fn5Q7Zt25Zw9OjRWEw7ggKmhLeKo0ImDUzf4w4DU4wjdI9DKyWcgMB5T7moTBe8TVaLzJYB0MB0HaQBYSK0bMJTNMZsDpZ4mrpo0aKRJSUlkc56LgB+q4GD3furtWaiO/yYMWNKJk+efCE5ORmVSftEv9F+QQghHoYGJiH+BQqV6CanTWMgGiGFyIkffPDBgI0bN/aRbdCpgjkNTN/TkWdgsVjqMjMzyx988EG0VirjskD0mWinyCoyW4ulPT4xMBX28W5yA9MedJdV82mObGxs7H3s2LGeH374YTKMTavVinGaiEMtHvmtBh4O0g3N2Jw4ceK5O+6447ikEahoghMgpA0Qvc4SQjwCDUxC/At0i0MBcpIUGKe8++67/Y8cORJdU1MTKgVKTOJ+De0tSNLA9D3tfAZat7hnn322JCwsDPPjbRNhyoIzIrRa+BM0MDuOcvKFNALzamI89uiqqqrxkk6k79u3L8E4tpXfauDhJN1oQnf5qKiouoEDB1bPmDGjKDExEV1m14r+pv2CEELcDA1MQsxPnChZBE+S6AY3TIzLoS+99FJ2cXEx9mmFRWdGiSsFSeP/suDpWZw9p3aiGZWDBg269OCDD6K1Ei0RaK3EVAUwMtFKgXkta0T+BA1M94ApXjA+c4AI3mexTM/Pzx/wxhtv9IPXWXdVSBHzYnifW97r2NjYym9+85tnc3Jy9sjmlyKkHXAIhPGZ6P1ACCGdhgYmIeYHDnxGiW5/8803Jx8+fDimpqYmXC+Ea6BQ6MxwcaXAaPxfFjA9i7Pn1E60rm+LFy9GIXG7aLVolwgFRX+GBqb7QHxBuAflYfrWlStX3rJz584e1dXVaOm8Bn7/gYOztEbCG0UYp2l7/vnnN8v6OgnGWO3d2g8IIaST0MAkxHyg9QFd3NBaiULhQKzv3bt34PLly9PgwKexsRHd4a6iMwVDY0GEBUzP4qzQ5wqxsbEV06dPvzhu3Dh4gz0kQoslBA+RaMmsEvkzNDA9A6Y1QS8IpCmZopz6+vohb731VpakK0l63GrxG8jff2vfXqDedyv3rIXPmDGj8Oabby6wWCzo+YCus3tFKj25IiKEkHZDA5MQ84ACDoxLzGWHbm2TCwsLv/7mm2+mqa6wgtNCUFcpIAXKfbbH0IRHyKioqNqnnnoK4yphWMJxD1odUCgMJGhgeh50jZ0kmixG5tQ//OEPg86fPx9ltVrb9Dztz99ee743ECjpjDMM8YHuL43R0dE1c+fOPZmenv6ehG0WYfz2WfyAEELai+Xpp5/WVwkhPiZchDntpoq+Jkbl+Ndff71vSUlJlBR20GLZVoEnIAtEUvjR11oIiPt0cF8OEeOyfsaMGWe///3vw6j8WBe6smFeyzpRIHHTmjVrYPwgcuwjyOPP3f6ZzJw5c76+GmjUis5bLJbjY8eOPT969OhwMTJDJa3BtCetGdUefwaewtXvzYDf3qsrGOIDK93q6+uDCgoKQsXA7BkTE5MqYajohNdZQghpN2zBJMS3wOsjDMseohTRjaIJS5cuHWPfda01vFnbLgWTNhON9l6PK8dsDW/ev7to5Z618ODg4LpevXpVPfzww2hF2C+C18f/xb4Ahi2Y3gOtldGioaLbRSPWr1+ftWHDhriKigp0qQVefwaeorNpDPDn+28N+7jJy8u7cO+99+6X8A2yuUZULILTMIgQQtqEBiYhvqWXqL8IrTbXFxUVpa9bt673/v37e+iTpIM2CzXeLPi4UlBr7/V0tvDnjwW/Vu5Z8xC7ePHiQlmiO+wqEbw9XhShi2wgQwPTeyA+YWSq8ZnoPTHh0qVL1z///PMjZB3lg6vu3x+/M0Vn0xjgz/ffGvZxgzl1U1JSKm+//fYLWVlZqOCCoblRhK6zhBDSJjQwCfE+KKRgTGUfEcZaogXh+pdffnl4YWFhdENDA7qptQtvFnw6W1AzXqs7Cn3AFwU/d127Ae14ffr0KXn44YfhYANeYecirAtBA9N3oKJLmztTNGrPnj0Zy5cvT7VarZjSpGX+TOCL762zuON79cf7dgVncYOx36GhofULFizYJuvoLoueFHAwVigqF9WLCCHkGrpS5kmIWcB3h2kD7hL9n6VLlz4wf/78G06dOhXX0NAAJz+ki3Lfffc1iXFZIKuYduQtLZAQ71AkWi/6i+g/8/LyNkycOLEkLCxMjfN1d4WKT7n33nv1NeIMVCygguHZZ58dtWrVqnvFwH5Agr8tgmdzDO0ghBCHsAWTEO+AFgA4TYDzBMxrOdxms4354IMPBmzcuBETol+DWWvLPdBy5wjjObqpwuDrr7+uLe3xRVy5Kx7gxKdHjx7Vjz/+OCY6xzQBmNsSTnzgIdbf57VsL2zB9D3omo85MtFtf6wo+/jx4wP/93//t391dXWkbGvPwazpkzPsny3SlOHDh18n6fB18+bNw7yQjfo9oVykLbUfGvC3e+4oDtI2zLvbMGLEiEvf+MY3ToaFhX0lYfAy+ydtLyGE2EEDkxDvgJZJdIWdfOnSpXv++7//e0hNTU2YfH9OC7BmLcy4y7BqA+0ceiFQi4dHHnkEC4f4Iq7cFQ8RERHVzzzzDMY5wYnPQ1pg14UGpnlAfCeJpoimL1u27Nbt27f3VM/GrOmTMxx9r8rIFBpEtscee0y7L5FFv8+r8Ld77ihO0jZtbDiWMDb//d///XBaWhrG6hJCyDXQwCTEs6BAgnFNeaIRjY2NuW+88caQffv2Jch6sCqwOMrQXSnMdPT/OoOTwkenQIElKiqq+u677z6bnZ0NxzbwWlghQlfijJdffrlfQUEBCrsO8WbBzw33r/2/GJa1Yljmy+oB0U4RJjjH3JZdGRqY5gLdINHDAl0i0fNirBiaEw4cONCjpqYmQrad4s1v0hWcfLdNDzzwQKOkOUhv0EUY4wqrRTAww8+ePRu/devWpC+//DLJZrNh/tA278ls9+0ODHGnLbGdmppaet999xXExcUh/ULahTQMjoAIIYTzYBLiAdAdFo56MAUAnPlME31t7dq1U37/+9/nYlJzKYTgN0AVRrC0V5tIRq+vXYVL/9tRnJzzKlDIcuF32gTfkZGRNcOGDSv7xje+cWbAgAHoGorxh5jzEYUVqygyLCwscc+ePYmy7gyP3rMRV+7fAS0FMzGmbdHR0VXz588/L0HDRCtE20QFoq4O58E0F2jZKxGp7tsNQ4cO7RMeHh588uTJMDG6UEntzAj3+PNqD46+W3yPu3fvbpwxYwaMS1RswYkN0qDjsq8oJiamcsiQIQ2437q6Oluj0NCAKLnGf4Xx4Ka6bzch0aHdFv5oqqioiNi4cWOqxF+aGJsDxdBEWg3jHHGDSGoUOTLqCSFdABqYhLgftLSh1XKm6N76+vrJn3766aDPP/88XgopyomPKoR0qjDiqNAkdOqYbeHknPaoAolT0IKXm5tb+tOf/nSzGJgfSGHuQwmGYYmCLIwvtCb0FvUvLy/vu2PHDqctmIJH79mIi/fvELnH6gULFpTedNNNaKl8V4TpR8i/oIFpTmAowGioFB1JS0srv/HGGy2VlZWhZ86cQUUa8Przag+tfLfdkpKSylNSUspkHWkPvDcfF8FbKsZB7+zbt++msWPHnpwyZUptv379uuXn50eIoal1pZX9wHhwU923u3AWf1ar1VJQUBCelZWVHBkZCa/o8aJgEdLvGhEhpAvCLrKEdB7kvDAc4QADLZZZIrj6n/DYY49N1rvCqhrvq3JptPTpq9cgGXrLx9na79yB8VweoOXYOI8YljVDhgypmDNnDsYdnhTBqFQtePYTeX9DdPfWrVtHLV++PKM5qBlPxwlwQ7xo/x8cHFzXq1evqocffhgtQcdEaKVFCy1bLa+GXWT9g4kijM0cu2nTppxPP/00UYzNCEfPDXjj2bVFa9/yuHHjimbNmlUQEhIyWQ9yBIY5jBMNlfvJOnv2bOL+/fvjt23bFldVVRUu6bw2lYsZ7tWbqHiVZSPS9vnz538p60jPt4g+xj5CSNeDBiYhnQe1tfAOi9pbFFBy8/Pz0z/88MPkoqKieL3A4bDQ0VphxFgg8nShpbXClxtoKYCge+iiRYtgYGG8zueiL0ToggfDErXdWv8zA78Qw/LhPXv2YMwXDPgWvFGQc0O8aI4xbrjhhnOzZ89G6wiM6U9EGPNVKqoVkX9BA9M/QEVaTxF6alx//Pjx6X/84x8HYpyir55dW7T2LQcHB1vj4+Or582b11ovCTXkAUt4BEd6P1zufeLf/va3vhUVFRj6EGSGe/UmhnjVuv/37t378i233HIxOzsblWm3Ne8ihHQ1aGAS0jlQyIJxiYLWCClkjF26dOkAzGmJlkv8wEh7Ch/GApGnCy2tFb46gTbGMjw8vG7atGnFU6ZMQbdXtFoqxzYY64SlI/qKckT3isFxt37/V8WBNwpynYgXzbCMjo6ufOqpp87INsZ2wbX/f2EncQoNTP8BLXb4TmFoTZHnM+qdd94ZtGfPnriamho1R6L2zLzx7NqDg+9a+16ff/75zWJsbpDtD0SYLugKdjoAPVbSRXB8hN4qg4qKitLXrVuXIvePPOGa+zVbHLgbQ5w2WSyW+oSEhKpf/OIXB0JCQj6VMKT1GOOKtJ8Q0gXgGExCOsco0QybzTbrpZdemvbpp5/2uXjxYrQUJq4xLnVcLmRIhq2vaXi0cGJ3LnegGZfwDvuf//mfZf3790dL5UeipSKMP0RrHlrxbCJHTKuqqvqPZcuWjYBTJD3M/iI9GiegM/GC2vznnnsOxiW6ieHe/ymCZ1ziHI7B9B9gUMCpCyqODkrclQwZMqR3cXFxzLlz59R8mSpCPf7s2oOD71oLOHz4cNSIESNixcg8Kpv4dp31MIADG3zLhSL0xjgZExNjHTp0aNQ///lPGN3Ge1eYKg7cjSFOtXuvra3t/sUXXyRK+i3RMhQO2hBnO/ADQkjgQwOTkI6B2muMQ5oqxuWkv//974OOHDnSs76+Hl3EtLE4DgoxwHFgt24wyLRMWknhpZpvrVBglPEaXEX+R+sGu3jx4kIpnO+fPn36ZgmGQYnxOKjFhgMNFErrREbjEifDBO8DRLdDL7744riTJ0/GqvgU2aOFyTmviTsl9ZtOgP+XQ7l+mMjIyKpp06ad/9GPfrRJNteIEAcwqM+JUMgizqGB6V/gfUYrH7q3wxirFGOiJicnx1JTUxMkxqY2lYn6Hu2FXfjjA3DeFqlrqa6uDi4vL+8u94D7QrqDngfOQPqFdAzpGTyoVkrad3HGjBmFU6dOrbt48WJoRUWFpaGhAZWN2jnUeYSr0iyE4Y+fg/vSV5vHol65ciXk7NmzkdHR0aFpaWk9JHxZ825CSKDDLrKEtB/kohhbcv+uXbuG/e1vf8uQ76ilK50yCCWzvebjUvvscfRbhbP/8TStXZMDtN8++OCDDYMHD8Y4ShhXaLFbgnAXQGEOhdEZ+fn5T7/66quDdKcZwOH9txbPCnfFXXviYsyYMWfnzJkDg/IPone0QOIq7CLr/2Ac+mwxLsctWrRouKyjnOEwHr3xTF3B+NzR6yIrK6tU0rKtsnlXc6jLYHoq9Lh4QPTNF198sZ/9OHys279nZomHzuIgnbT/nlSaTggJcNiCSYhroHUNDiBGir4pmrlnz57hn3zySVJ1dTXGG7UUECST1aQwFC6cFiKMv3dAqzvdAQoGhutu/tP6NWkFBxTG4uLiKp999lm0WG5PTEyEUQmjCuNuMIYJYy7bAvHXT/Rt0V2vvfbakKqqKjWJe8tF2MVjS7g7484YD0a5QnJyctmCBQvODB06FN1hl4tw/3DkQ1yHLZj+DyqYLkZGRlbOmDGjpnv37mFHjx6Nad519TPU49vjz9UF5FL+dRlofZV0LSwlJWWMbGJMpXJAhpbK1kC6iJZNtGqeHDdu3AmJg4t9+/YNOnPmTLAcF/kIsL9nM8SBO8B9GONS21Y6ePDgT3r16vU9idvxso3eKjDiCSEBCFswCWkdZIyolcbcXpmiG/Pz82cvW7YsTfcaqDJPp7hSOy0ZstMPsbX/b+3/PAiMMLikr9WnG8EYLMwZhzkdX8IP2gFqtPuIxopR+fBTTz11gxbqAGfxYIwDV+Lans7Gofy/DU4tFi5cCO+4cPZEOg5bMAMHtF7ie75Dvo3rS0pKomw2mzMDqwVvPOfWUO8AKs/Cw8OtCxYsQPf+N0Xo4r8P+1wE+QaMKFRKThcNkXwjRfKPKDWli/6e+/yevYUet02Ytum+++4ryM7Ofl+2MYQAlXHwJs55MwkJENiCSUjrwFsg5j+7SfS1oqKiSW+//Xba5cuXI6VQoI2tEbVFm7+RjFdfc4jTnW38n7vRCl4wpv7jP/6j5rbbbvtq6NChGGMIj4sYZ4nC1yVRe0BL5RwpeN772muvDUK8Ngc7xOHN2sVBuyOks3GYnJx8WdJRTMy+VhfpOGzBDBwwNlObgmjixImVcXFxCQcPHsSY6msqD+zw+HNuDfUOwOiTdCmopqYmIjMzs78YnLhuGEOugvQSYzQRB3AadETSy5M33njjlfPnz/eoqKgIwph9CccJfXrP3kKPW2185smTJ7unpaUlyXuRJmHwxI5xrwX4ASHE/2ELJiHXglp21WrZS4QxRePffPPNMTt37uyJzFG2WwoE+nankIz3mg/RleM6+j8PoJ0Dk2jn5eVdnj179kXZRNdXjLNciH0dBC2XcPP/0COPPHKHFmKIV9DeOOjIs+hoHIqhfSUlJaXi4YcfRuFxuwjG9ofYRzoMWzADC1TCwasqWjO/sWfPntHLly9Pra2tDdef5zXP1BvP2RUM74LWY2PJkiXo9r9ShJ4aGGMNA9qZF2xHwJNqfxG6h8JBXK/t27f3WrduXbzeuquMTdPEgSewi9em/v37l9x7770FsbGxGF7xngg9YlBRae8IjhDiR7AFk5BrwSTa6No0UzSnqKho4sqVK7P37dvXwzC3pbEA0OnCgGS0+tpVtHlcJ//ndlDAev75508NGTIEY2ZQCHhDBJfzZaKOMruiouLRv//97zkXLlxQLZf2N9TeOGh3hHQ0DlNTU8vEuIRXXBSMVogwpye7eHUOtmAGFjAmMG7xsuhcr1696kJCQvofPXoUPUDQPd7RM/X4c3YFw7uAlW4YRyrffGZMTAzGVWMKExiY9SJXwW8rRadEmNrkWO/evS9MnDgx4siRI9GVlZXKAzkwRRx4Art4vU7uO/jgwYMxycnJfRISEjDtF1oyMYUV4hcihPghbMEk5F/AyEkWYYJ/ZHTXL126dPixY8di7B35GHFW2ywZ6TUfl7trph2dwx1g/FFYWFidFH5KpJB9QYLQYolJsudhfyeBQx+MVfzOo48+OlvixGmXOcRXW/fY2ThtbxxK3NTPmjWrUOIGE4d/rTmUuAm2YAYmaJ2LE40Qfa28vHz0kiVLcqxWa6iqtFPP1/4ZeOO5t4a6Hlk2ijAFE8YNYm5b9OBAmtgRcE/oFoqKzLGioVhfu3Zt2po1a3ojTvRvwGn65Ot46SyG+9JaMvU858qCBQtQYfeZCOMyN+IHhBD/gy2YhPyL3iJ0X7pt2bJld7/77rsDCwsLY69cuYIus61l5g73Saapr12FWwsFTs7RWZqQ0T/77LMlAwcORE37J6Kl+hLeETvL9KKioidfeeWVkTU1NTDcWyvEyy22eY+dioT2xmF0dHTV3Llz0V0OY09RCCLugy2YgQlapdCSifGIhyR9sZSWlg4tKSkJqa+vv8rxj4Pv0ePPvTUM14MK+aDdu3f3HDNmTJ/g4GA4NuuogQnQ2wGVd5hrE8cqz8jI6L5169Y0zB9pMDCxcIRP46WzGOMVf+R+MWdoiNx/76SkpMHJycl4Z2BsEkL8ELZgEiI2gwhjAeHtb0JBQUHu7373u2x9HkaHmbgrtceSgV7zcbnyf+3B0TkU9udq7beyzxYUFGSbPn36OdFpCYJHVDiu+Q32dxJchxqLNU40c/78+V9XnhT1/RqO4qe16wbuitM2zqPt+/nPf743LS0NRvcGEboIo1sscR9swQxskA7AcRrS2htF419++eVRhYWF0Q0NDRj3fg2uPHdH36673xd1DlnacnNzL86dO3eVbP4YYW4gVoTWzMGiIVi3Wq39V65c2W/79u0Y9++T78Eb2D872W4MDw+vffzxx/eEhYVhCALGt+8VocdIW9PEEEJMAg1MQpq7bH7XZrPd/Nxzz40sLy+HwQmcZuCOMndHhRxFZwoDrR3XFdS57Y7Tso5wdPv81a9+ZY2Pj0c3NneDwhG8xU4rKip66qWXXhpidGhhpL3xClyN2w7Go/Y/+N8f/OAHjdnZ2aq1hXgGGphdAzxL6P8WFBQ88Pbbb6cWFxfDqVrLM3aUbjl7Bxx92554X9R50J2zd+/elx9++GEMqfAE6Elzs2j6vHnzRiG9tP8mvPE9eANHz07Qwvr06VMicYwKPXRJ/puovV7KCSE+gl1kSVcFBk4PEWrR75DMevL777+fefz48R6yjlr2tjLva/ZLRqmvOaTDhYE2jusK2gEcHScmJqbiwQcfPHb33XdvDA8P/4cEfd68x22gFThF9C3RXStXrhxy/vz5KFl3VnC/5iJduH+XIqij8Sj/Bw+SO5OSkt6STXbZ8izsItu1qIuLiyuaOHHidZGRkRGnT5/u3kaXWYfvgJNv22FgZzCeR64zSAygexISEjJkE3lGEYKxzw00iGBMHZk+ffq+GTNmlGZlZTXt378/yj5+/J1Wnl03uVdMFROekZGBik/0gMHQBEKIH0ADk3Q1YNigMACX8eiS9PWCgoLb//u//3tIfn5+km5caug1xM50DfYZpd3/dxgnGbDL4P+Nx5B1W3Bw8JXExMTKxx9//LQU8L6SYMzfCAOzFr9xEzgpPPIOE/1g3rx5N4txGS3x0lIT7yCOr6GNeHX4P45oZzxqUxOIAV793HPPFcs6piD5iwhTtBDPQQOza4ExiJjmJ6Jv374xQUFBMcePH8cUJhY8CwffrLN3AOH28gQtx29oaAg5dOhQZHh4eJ+0tDSMF8R4TIwxdQdVIhis6IKPrqGNkk6HTJ06NXL37t2WxsbGbiIJvi5IxZMeV566b0/SEqeQ8Zkjjo8dO9Zj8+bNvcTYzBw4cCB6G8HhHCouYYRDhBATQgOTdDXQ/RUtajNEdxcVFY1566230srLyx25zTeut4kxY9Rp1/87w8FxO0NTfHx8xYIFC85MnDgRrXGYtxG1wvtEKBy5c94xjLX6puh7q1atGnby5Em0DquWS3VTbd6cu+K1PfGI8ahiXNY89dRT2+X//ihBiKsCEeZmI56DBmbXA5ZSuehS//79w3v37h2xb9++aOVd1g6PvwOuoN4Tm80WVFhYGDpixIgwAZWWqKhzN4gfTPOC6U2OSLp9KTc3N7SioiLYwfROpoifzuAonUY8nz17tnufPn3iExISUGEJ53AYj3kO+wkh5oNjMElXAV1iMQ4Q3ZngEv6Wl19+eZpk0FE1NTXKucRVOZveUnYVkvk5/WAc/d5VWjuuG9DcwMfFxVU8/vjjmMNNK6iI1oveFnmCJBFqm/9djNlZlZWV4VJgxDO4ChVnnopXIy7GcZPFYrkydOjQsrlz5yKObmoOJl6CYzC7Lqj4u1V006ZNm8avWbMmWdJmZUBpeOMdaA/qfUlOTi676667zmZlZcH48RSosMOwDkz1MkU0ZO/evZkff/xx0sWLF1F5h7jR4kfFk6M0z2xx6ArqPmSppopBj5J1ov8P4YQQ88HMk3QV0HI5SDSjqqrqRytXrpx4+vTp2Nra2oAaz+IIZMpwSiHGJQym90RokfutCJ5QPQXmEX2goKAgTzcuHbVGmA60XGZmZpaLcYkWXcQTIcQ7oPILUyGtnDRp0lezZ88uQtql7TE5ly5dinrjjTdQoeZJML6zTIQhDX8S/Tk3N/fv8+bNOyLpVr2/xFVngHEssrz66qtjJM6/owcTQkwIu8iSQAe1vpjfEjXLcOgz6dlnnx1z/PjxOL1FrVPjAe1odacj5HhoXdS33IZW2xseHm4dN27chZ/+9KdwFLFVgjAx+BMijOuBAwl3zGlpD8ZcZolm5Ofn3/LOO+/0FoMerRAoGKh4NUrDU/Gq1BzU+mFghPfo0aPq5z//ORwdoaCLrsPomka8B7vIdl3QPb9ShG7oDb169Qo/cOBAbzh6aWhoQAWV9g3rz8jj74KL4DqgIDjfkTTkvoyMjNtkG2ke0g4YhO4C6TriCOPkYYxjnCbOUSPpe2V2drbtwoULloqKClSaamMzHWHCOHQFLZ7VdYtxGbFz584ekyZNutVisaBHEnonIW4QL4QQE0ADkwQ6mF9sjGjG3r17v/G73/0up6am5pr5F3XazHCdZdo6bf6/PW0cr8PIcZueeeaZspycHMwf9oHoDyIYmO504uMIzCf6NTHeJy9evDi3urpac9jRvMt5/HghXiWo9cOEhYXVSXoIpyOvif4uwpjUgG8VMBk0MAkMJzj+Ce/bt++gM2fOhF2+fBkGBFAPyOPvQntQ782JEycit27d2mvKlCkwkq+I9mg7PEON6LwIafy+2NjY0LFjx8Zu27atR11dHYzMtuLIVHHoCobvU6t0+PzzzxNjYmJ6C6jYhMMfzJtJCDEBNDBJIIJcCOMqc0QTRVPLy8vH/vnPf86oqqrCFBnY7yhzdSXDVf/rSG0iGaR9y5pbiYiIqBk9evTFn//859stFgvGWN4rQuslanY9aVzGiNAFeZIYlNPXrl2befTo0XiDcQlau2FjPErUXPXT1v5PQ37fVrxK8DXhalwP/rfx+eef3y2beSIs4UCCxqX3oYFJ8N3BQIOjrTIxmqI2b96cCkcvesVgy3duFILxx0fg3FDQlStXQvr3729JSEhAHrQSOz0E4glGFdJ1GJtIs0pvvPHGS/Le1ly4cKF7ZWUlWlavGfsOTBR37UGLZ3XNuLeCgoJQieuInj17YhjMcuwghPgeGpgkEEGGCoMHDiPuWrp06U1vv/32IMn41XhLDSmsaJmVQR5Hzxg9AYwktFqWDhs27LhsvytaISrGTi+QKposmvbkk09OOXz4cKJeGOxo/Lbr/9qK19b2Y9zlQw89VN+jR4/3ZXN1cyjxETQwiQK9Cb4U9Ttz5szw8vLyEL2rLHD0Lnj8/WgL9f7s3LkzsaKiImnIkCEvagGeBwY5vFyj5feMqDEvL68nWn+Li4tV6689xvjyedy1E4lq7ZI1I3PPnj0J27Zt6yvr/5aRkQFD8wvsFK5xckQI8Q40MEkgAdfl6CoDD3t3iyZv2rRp8Pbt2xOc1OJ6PVNtzdDpDJMnTz7z05/+dJfFYvlINlFrjq5CmEfN011iUUufKRovunXXrl25ogS95dJr8dvReJX/a1yyZMlBMS4Rb5+JMOcc8R00MIk9V8RYOjthwoSYDRs2JOsVV1pLph0efz/awvD+dBMDs5tcM8YIwvkPurJWiDzdKwLHR0sm5us9LPF2esaMGSV9+/btdujQoajGxkaMhVdxZ4wvn8ddezHGNf40NDR0E2M65IYbbogODg4eLEHwvwDHdoQQH0ADkwQCyDDROtlLhG6aX1u+fPm3li1bNmjfvn3JzroICQ4zVcm4rupuaRR2az9qJ/K/2jHdSBNa3tAl9vnnny8bPHgwxvpsFD0lOihC7b+njUu0JsCgv150k8T3TZ988klfKcC01srQgoqTzsSrop1x2+IECeNUpQC4WTYxXQvGMmE+PuI7aGASe2CcHRejoU9cXFzvU6dOhaIbqoRd9bBUWqKEIG2HFzGctxuucf369b1uuukmOP+BoQOHP55wrGYEXWbhKAmVi8qZW2VSUlJonz59IqqqqrpVV1db0N1YwlX8yGX7Pu46gBbP6nphONfV1YV+9tlnvdetWzdq+vTpyP/geVc5RkK6zxZNQrwEDUwSCGBcZZoIcxZ+99ChQ6Mlg+lVW1sbaqitdYTDTFTPsJzRoYy3jWO2GzGKrmRlZV1+9NFHYViiayfmBYMTH291icUN9RTBqc+sXbt2Tdq4caMy5tXNth6RV8dJpyKovfErv2+69957T/Tq1Qtx90/RThEKgCiQEN9BA5M4AkbC5d69e5cMGTKk586dO+MaGhra6iXh8ffFHvv3B/lPZGTkdf369UPvGhh/MPq8CRwNoTUzPyEh4cioUaNs6enp3ffv3x9tqHh1FE9ej7uOYohztaIZmz179oyR9B3lAsQBHEdhnCrTd0K8BA1M4s+ggIGxlumisaJpCxYsmPnFF1/0unLlikPjUsKQCSk5pA1jpdWdzmjjmK6g1bxiKo2kpKTL8+fPPy2FBbS4wSU+ptNAwcVbxiVA4QROlMYXFRXd/Mc//jHbzrjU7lm/b4c3bxcn7Y4g+X9jC6jLoOXyjjvuODN69OhtsvlvIrT4otafhQ/fQwOTOALGGVrjLovBFjtixIjw3bt3w0gKNqTp9nj8fXGAuhZ5lbTTdzt79mxwfHx8DzF40IqGikBvgu6yqDjDuMxzoqa4uLjrJO2zSB7Z7dy5c+hGqq4Z2C/9Ae36VXwr7d27N37Xrl09J06ciHdHOUPyZh5JSJemtdYdQswOaoUHiqbYbLZ7ly1bdmNlZWVEY2Oj0XNpwCAZaFN0dHTtvHnz9ssmph75H22H91FdkkdKvM9Yt25dSiuFPLPRNGbMmEtS6FBjVQkh5gcVbHBkc0L0ZzGS/va9732vMCoqytPDADpLt6qqqvDly5fDCRrma/QViD8YmutEb8TExPxt9uzZWzIzM8vDwsLQwhdwIE8qKSmJlnLBNNm8R3SztoMQ4hXYgkn8ERg4GG+Jgfw3ijDn4uijR4/CAUSr3aZQy2kvBGs7/4UylhypTeSY14zh7CBaq2VERERtz549K5566qkjN9544w4JQlfYz0Vw5OOLAlaKaIhopmTe4w4fPhzb0NCguls5wmEE2MWLy5Ek/9eh8axo/Z01axacXiAO4S1WdYsl5oEtmMQZSA9hDGHKpSvx8fFNkh5atmzZkmyz2dAtUqtYNEtll3qXcD319fXdxai7Li0tDc7Q4BjtFHaJ0PXXW+Bc6CqK3hpwOFQxatSoy1OnTq3s1atXY2FhYTCGlUi4XLrTvNHMaM/dcN3aO3H27NmoCxcuRObl5aFSdBl2EkI8D1swiT8CJzIwLmeUl5d/c8GCBTddvHixh2z7U2boMpmZmRUPP/zwSVn9WPR7ETJJOKbxlXGEVuPbysrK4DE2SQolKDCZnrCwsLpJkybBuPxEtF10GuGEEL9BGWUYEvCSGBPviZFUFh4ejtZNs6IZOytWrEibP3/+LbI+WoTx6+iB4wtgXGJYAKaxQgXK/4rxtfXOO+88L/EJL7RaxWYA0W3fvn2JTz75JHw0EEK8BFswib8xQHSDaFpDQ8PEv/3tbwOLioriZBuTcGsZuSPptZrOaHVne2njXK6AFrrGMWPGnH/kkUd2S+YP77AYu4O5vTCVxmURxpR4uyCA+cV6i6ZYrdbbpMDU//z58xgDe80N2z0LZ7jymxYkTjrUcgluueWWUw888ABafGeJVMulp6cMIO2HLZjEFZRnUNvgwYNLpkyZEvbpp5+2dNXXn6PH35c2MF4L0sQgzMV800032SwWC+amRBp0VtvpXZSRjtZgOL7B8nJycnLpjBkzKmJiYkJOnjwZKvmr1hvIJHHZHrR4h4xxDx8BFy5c+FFOTs7XgoKCMLUWKqoxZzQhxAOwBZP4C8gpkOHBscxdBw4c+Nq8efMmHT58OEnf5+8g09eE6UdQIz9nzpwC2cacnj8RvSLaIPIlaCWG19jRjz/++Pg9e/agm7LLSGYPA7FFerCnwbls06dPxwTk8BZLCAkc0BNhoXzjGwYOHFhhHE/o5XTGKTB6leELQ2fBggUjPvnkkx/Iti/HZBrJF60SvS56a9y4cQfy8vIuIy4l/rRKOBWXjoT9ZsUQ96Cb5Fk9UW4oKCi4Xba/2RxMCPEENDCJv9BfhNanmfn5+dd/8MEHybKuZdqigABjBEeNGnV+8eLFnz/zzDP/JUH/3bzHNGSIvi3xP6J50/wgPpcsWaJafuFtlxASeGx48MEHf//Tn/70INJR2Tat4WO1Wrtv27YtVlYxf7BZgCEJD6vo3fHq7Nmzf/fss8+umTt37lGzx2c70coMK1eu7C1GJnpCEUI8BLvIErMD5zHIjEeJviaZwrhXXnklp7q6Gl2MrqJbt385JtBrV41hrdEpI7Wd57JHy7gxdcaQIUPKvve97x2WTTjx+ZsI4yzNAJwjoPVyyptvvnn/hx9+2Bc18doeHVVDb9A1OIgbh79zRnviVn5ri4iIsP7sZz9LlM0/ixCXcNNPzA27yJKOUCIqioyMRLf9tJKSkuDGxkZ0gdSeqf5cPf7+tAHOD6GrbMjIkSO7SRqFHjlwuoPrR7dVXxpyGMcKB0ro7XEeAT179gzp3r177KVLl7rV1dVp8WmgOVL1+DVJHDtDxb0meJv/8ssvk7Oysr4RFxc3UsLQ8o0uy2b3SkyI30ADk5gduHeHm/Hpe/funbRq1aoUMS7hVKa1jEzyunblc+36sT3tPJdDFi5cmJ+Xl4eWNrTSrhehwGEW+ohuFd387rvvDpGChpo7zUibkeAgntoVce2J5+Tk5PLvf//7J2JiYv6gBxH/gAYm6QhogYOBZpF0VGzLxuQTJ05gzLjxgXr8/XEF/R3rlp+fHzZs2LDIsLAwON2pFsHQbOni62NwHRdF5/r37184efLkbnDoJml/kDLcBUfxaYo4bgv1DE6ePNld8oq4hIQEVKCiXLEHOwghnYddZIlZQatZXxFaLqeh5fL111/PKC4uhkOfVjMxyTzarAVWYzMM4zPaBc6hpAe1F/xfk2Rul1944QXUGH8pMtsYQaQPcOKTLpqyZ8+evKqqqjD71ktXMca5q/He3niW36Hlsubuu+8uTE1NNUsLMCHEs6AbJww1dPHcNGPGjGNJSUllevdOjfamJZ5CT/u6SV4W//vf/x4euceJxorgWdYsYDoT5EvbRPBevnbevHkbf/SjH+X36dOnxGKxwADV8jCR36HyH5QnXnvttQwxnifK5nSEEULcAw1MYlZQo4gE/1vbt2+f9Ne//jW9sbFRm+csUJCCTqNk2nCw8K4uzM1oJtBS2U80rKioKGf58uV9DLXXpkQKPvWTJ0++mJ6eDo+xf28OJYR0AepFmHpot6St23/yk58cxdAD2TarEdTt0qVL0UuXLsXcmMjrsrRQc1EugqdV5E/PS7q66qGHHjrUt2/fCl8b6u5C8rSQd999N3Xt2rUTZBN58M9EGFoRUOUNQrwNu8gSs4FEHZ5KUaM4Y8+ePaNWrlyZqo+5VC1frUqQRZu49CNnuHiOawgKCqpPSkoqX7BgwYkZM2agdniGaJ0ItcWoNTYTMPIxd9jUv//978POnTuHbWfPwCO0I57hfbdh/PjxF2+//XbEK7oZbxHBDT/xH9hFlnQGGJlotbR17949vKSkZICkW6rXRcvDxXM2CkHaDi+h3jNcV3FxcWSvXr2CevbsiVbBtdoO84Cux7gutA5fEmGKFevYsWObJB+zHD16NKKhoQGVjir+vBqPnQTXqglTmBQUFISfPHkybtSoUahYVfdUJCKEdAC2YBKzAac+02w22w+WLVt24xtvvJFeU1PT1phLvyEqKso6b948ZFrwaLpQCzQvGMM0ZeHChdPy8/Pjm4PMiRTYmhC3d955J+IWXbpgtKNQRAjpWsBRDdLXTddff/0l49QlJgQVdkErVqzovWfPnq/rYWYFToC2itAzZMWIESO+EMO4CmmvbPt9a6aUObofOXIkYf78+ZPWr18/T4LM/jwIMTU0MImZyBPNFU35xz/+kXngwIE4dF/Ra5+vARmbI+m7O40bj9kUHh5e+8ILL+x76qmnYPy8JfpIZNZJnhHfw0Q3W63WDHTjQvdktFxC2i+cYIwze+k/8QRNUoisk7jF+Cu0ABwUoba9ZfwVIaTLgFY3eAM9kpaW9o6kC9tV+uNKGuYN7K8DY9tXrVrVrnmFfQS6HF8Q7RB9/NBDD7313HPPbUVXZIljm31ar7btw82E4VlgaamsrIz6+OOPe9XX10+WsOdEd4jg6O4az/WEEOfQwCRmAO8hnPqMKyws/PGLL7446auvvkqpqakJ1/YK9hmyt2lnRon9Stq4wKeffvqyrMKRzxzR86I1IhhBZgNxjGcxWnTH6tWr++rjLuW2PV9QMJ7DhfNocYyusahJl3XUrj8p+kqEbW2ScEJIl6RA9Kakv5vhlEbSk2sMIF+j8jVUpJaXl6PHiD8Aj7f7Rags/XNoaOi6IUOGXNaNTC3NNVs8u4J6FiJLQ0ND2K9//esbnnzyyX+XXRjGAmdMmC6NEOIiHINJfAmMGXSJxcT994hu/vOf/5xdWloaWV9fbxzXAa4xLiUD09c6RJv/3MnjXxccHFyXmJhYMX/+/M1iBL0nQRgXCKc+ZgY1tWhJnr5169YbPv/884S6ujoYnPaR4TBy2ogzj8T5D3/4wyO33nrr57KKbnGHtEDir3AMJnEXMHAwJjN0+vTptv79+4fu2LEjSdtzLR5/t1pDvXdHjx79iVzntyMF2TwiQouhWYExiW6zJcOGDds/derUK7W1tXEXL14MlvwbeYYjfBrPrmBMA8TQDMrOzo6IjY3tLZuo8EbLLSHEBdiCSXwF3j3U2MJL6fiCgoLvLly4cPyZM2cS9ZZLpxmRZADtrh011E5q0oPdjdaiJtfWCONSjJ7z8+bNQ00vph95R2TmaTMQJ3Cw1F80uaqqavg777zTv6KiIkrf5xD1LDryTDoLWoZjYmKqsrKy0CUWcbxP20EIIc3GJcZhIw1+T9KJvcnJyWVozcRO4OH8oL1gXsb4JUuWYHgCHN0hLTYziEfM14yeOX8RfTRr1qzdc+bMKZR0udI4RYzCV3lFezCUEzDnZ8hLL700TMomt8uumaKfivB8MH2XWd4bQkwJWzCJL4AhA8NlqOg79fX1M1577bWBJSUlkZKoO3MN3pKYS+akr7WLdv9TR86DjFMy1+pnn332Qv/+/eFo5s+i7aIzInQtMmu3TXjOg8F/c1FR0T3Lli3rV1ZWhlp0Z5Gghbczjtr8cXuOl5ube/FnP/sZWoTR3fgTUbHIzA49SNuwBZO4GxiacPwTPHHiRFRsxhw7dgwesYHH3ylXMLx3WAmaOnVqjRho6MWzUQv1D2DMHxcj/orEc/ChQ4eiKyoqWqssNkXcO8OYFlitVosYmzEZGRkJEg7jEgbyWRHH+RPiBBqYxNug6ww8kuaIbiwsLPz6b3/722wxZuBIBhmqhl6rbFQLrhghrf2/q7hyHh2tNhY141lZWWW/+MUv4LwHRiUczqwQXRShK5GZxwSi6xhqzWc888wzMy5fvgzj8qoeDnZxqtFaHHXkGbgS5/KbRil82X75y18elk3MIYdpSTDGlcal/0MDk7gbpAswfpBO18NI2L17d1xtbS2GZwTpz1wWWsua9g6oMPzxEjgXrkFbl/Stm1xnlGy/jgA/AXNmwuiyyfU3jhs3LhhG8smTJ8Mkb0fFsX18ejN+O0LL85C8LPj48eMxBw8ejB05cmRMcHAw8nLkObhfQogD2EWWeBOk1hgoP0j0nfz8/O/85S9/Sa+srAzXjRG/RTKipoSEhKoHH3zwgGzCQ+zvRZ9hn5+ArspfKy8vz0VhwMzPQ+K6EV5jZRVdYwkhxBUw1zDGaW/9+c9/fjgxMdFs8w638Omnnya//vrr6Irpb8CYxzhFDAlZNn369PU5OTnlqBCUbRj4pu0a6wrnzp2LWbJkSY7Vap0mm99uDiWEOIIGJvEW6IKZILpedHtRUdH1f/rTnwZgjJ/ecunQoIHhZi99l3GshCY92CVaO247aULL5dy5c4/Omzdvk2wj40GrB8aloMum2UEtPp7LgIaGhjEffvhhmqwjLp3GZ2tx1t7nYTyWo+PZgf1Nw4YNK3nmmWfQQoxpSQghxBVgUGKowpbQ0NANd999d2FERESNpDuNLqQ9XkGlnZIWh+3bty9eDJktEgyv42NFmA/a7KBlr0x0QvSFaLXkjW89//zzW5KTky/DN4GEaXFtTPfNEv/22OVl3Ww2W0hpaWns22+/PaC8vHyiHk4IcQANTOItMOYyVXTbsmXLvveHP/whSzLRUEm8/fodRMb4q1/9qjY3NxfdNJc3h/oVGCMDz7GZb7755qBdu3Y587JoChDfUmBBt6QPRTDiCSHEVWpEcLb2YXp6+rHs7OxySVNMOXQBFa/PPfdcXlFREabJyBAhD/UXEM9oMX5ftMBisSy79dZbi+Pj4zWDXsJMaVC6gFb5KsZ/wm9+85vc5iBCiCNoYBJPAwMGE0hjXNX/uXTp0uidO3cm1NTUoEXzqlYuVVtoqDFsF8b/hSECaTtcRP2PK/8r+21ouVyyZMl2yTTflCA4mfHHFrVE0Y2iMUePHkVr8jVOltrzTFyMO5fi2AB+1xQREVEr8Q2nPuiCBZ0WEUKIqyAtQStaoejj73znO5sTExMrJS0ypZFZW1sbtmHDhp6yikn/kYf6C4hnOFeCoYmxittyc3N/N2/evDXf/e53T8TExKgxsa7mAT7FPg9EPokK8k8++eSkhMOD+c9ENDgJMUADk3gSJMgYc5kumrZgwYLvL1q0KNdms6Hl0pm3WLdiNGaM0nd3BPx/Y3h4eJ3cCzLJG0QPiZaJ4HTGn8D3nyy6aenSpaNQmJH1Ng1JldkaM1xPg2eWmZlZKatDRD8UYXzreREhhLQXOF77WPTp5MmTS4OCgmAMXZUvuCGv6CxIY4MOHjzYY+/evVNke2pzsF+yR/Rb0fsjRow4MGPGjEsWi6XeGL8miO82MeR7mtasWZMmRjO6yqICAGUBQogODUziKdBCiZbLcaIfFBUVja+qqlLe5PwWtFqmpqaWPvPMM+hm9WJzqF8Cb74w/OHBt/fRo0djUJjR9pgMFDqSkpIuz50795geRAghnQHTS8Dr6eFx48Z9/Nhjj+3TjRvTGTh1dXUhH3/8MSoCs5pD/BqMnV8qcf7BggULdiBdl21TG5VtgTLN1q1b0Xp5W3MIIQTQwCSeAEZknAjTXkxYunTp7S+99FKOzWbrLkZMi4GpagOV9GCX8WaNp5ynEQ4hFi5ceP7hhx+Gp1h4I0Srpb+C1ko8nxEbNmxIqampiZB17Rl05rm09j8dfF5NaF2YN28enHPsbQ4ihJBOAa+mmJcYzmjWJSYm7ouOjq5Gq5ps+9zQNKa/GItZXFzcY/v27agQ9HcwLhPzFv8zLCzs8x/+8IeYN7NM0viW+SS9lad3BkM+h6Vl+fLlA1588UVMmYVpZe4T9Rehkp2QLgsNTOJuYEBiDkVMRTKnoKDgZrSOIZPETn8FxuUzzzxzVDI/jLV8SfSeyB+8xDoDDiMmHzp0aNqOHTswL6kpgXt7TP8iq2gx/kALJIQQ91AiQqva7gceeOB4ZmYmWtTMSLePPvoIrZiBAMbAwl/Be3Fxce/MmzdvS48ePapQiavt9VPOnz8ftWnTJhiZt4hGieDUkJAuCw1M4k7wPsFwGSqamJ+fP/6VV14ZVFNTE9bkQvdL1cJllL7LZ8g12AYPHly8YMGCQ7KJaUh+JFopwnhL1ID7G6h17S3Kk2cy/M9//nOmPB84YjIbWivCqFGjiqUAsl/WvxLtwg5CCHETcEJTJNqXmpq6YdasWWfMkO84ory8PPrRRx9FC+vfRTBgML2UP4LW43MijMvcIFr/+OOPfzVz5sxCiXu/8jCrt2ICTC0TumrVqn7bt28fKdtwnDdC20NIF4UGJnEnmFMRHu/uLCwsnL1s2bI+jY2NCGtXN0sT0QRnPg8++CC6ZqL1DBm7v4NvHuNi796xY0d/3fA37fOZM2cOuiOvEuEZlCKMEELcDNKZpcnJyQdg5JjUyER3zKCysjJ0v8R4v8FaqP+CCtqDInSZ/cv06dM3YziEWQ18F9C6zYqR2Vs0S7ZvbQ4mpGtiefrpp/VVQjoMusViTB9q7KbV19ff/Nvf/ja7srIyQhLcq8ZcysKoq5CMRV9zjoNjXPNPrhzHBZpmzJhRqBuXGG+JLprIDGtF/gpqvDGf2i35+flT3nvvvV72nmP1+L0KZPiIUyUEaTuawbpRLTj4P1fQChcxMTFVzz333Hn5v9GyiTlG4TEWNd8ksLlpzZo1mI7hmvdJcPkl6ij27+nMmTPn66sksEHLIJz+9M/MzOx18uTJ7tXV1Spt9Ph71wbaNejvZjfJX6/Lzs6Okm0M0fDHqbEUSOuviKwixH2jGJlNvXr1Ct63bx+8z2v3rO4bf0yK/fMJPn36dLQ8I0tsbCwcM2HIkHZ/IrxnhHQJ2IJJ3AHGV0aLbtm7d++Dv/nNb4ZVVFRE+rHHWK17rhQuUauN7rAfibaKykT+TF/RZDEiR7322msDy8rK8MxMyfjx40vlGSD+CSHE06Dgr7Wopaenb/76179+AXmAtsdkbNu2rdcTTzyBXig5zSF+D8bYnxRhPsn/zs3N/SIsLOwKxt9jpx+itWT+9re/Hfzcc8/dL9sYkzlQ1AM7Cekq0MAknQFVdjAi0XJ5vySq41euXJlSVVWFlss2u14iAzdKD+4wbjgO/r/xhRdeKFiyZAmMyrWil0UYK4KaVr92QiAMEN26YcOGDINHX4/UDHf0OSD+MRXM9OnT4W3w/eZQQgjxOEizMLZ+Q3Z29kk4dpP0yIa0zJm0//ISMFp0WdDzRJbwdRAIIB5hTMLhEtL9D5555pnXfv7zn+8LDw+vlXhueQayT0NtG8N8jXo++mY35LGoxC0qKhoj298TTdD2ENJFoIFJOgNaLuHU54Zt27Y9sGDBgtHl5eXwGItxlxoq0TUkvO3C+P/OjuGGjAb/i+kwbP/+7/+O7jooZLwrgoEZCOA7xzMZ+Mtf/vLmDz74AC2ZHjEsXcHJs1TPoGH+/PmVso5nQK+xhBBvgrl2MRzi+KhRo8rMMm2JA7q9/vrrQ2SJa50tQl7sszTdTcDhEoZCoHL3ldTU1C9Hjx5dIkamVfJ3rXLXbEalIwz5G5aWF198MfeJJ574jmzfpP2AkC4CDUzSGeBk4AHRtE8++SRRH7PilyDTWrx48cl+/frBkc8K0RcieLoLBOB4CePaMpHhOTDuTMPXvva1s1Kg+FBWPxdVaIGkK+HvhWTi/6Cr7MZZs2Z9Mn78+IvNQebj6NGj0atWrUqTVbRkYqL/QOmCid5CF0Rv3XnnnS/Pnz//y5EjR16AAyBtr5+B/NZqtXYvKChAC+afRHeIeom6iwgJWGhgko6AhBFzco2oq6u7c+nSpaMrKipibTab04mFVc2jUfquFlw1fNo6TjvA/zeihnTJkiVnZXu36AciZAKYliRQvJamiG6sr6/Pkjh22HUZca/i343x6zJoucSE25MmTcqXTYzFwZQkqNEmXQ8amcSXwJHbDtHG22677VRsbGwl8gltj4moqamJ+Pzzz5NkdZgIztDiEB4ANIgwH+lG0XLJG9bfc889B0eMGHEJXWbxAyO+yK9cwZCndsM84P/zP/8z5JNPPpkm2zeIME84en8RErDQwCQdAQbL10W3vPPOOwMOHDgAj29+CWpFn3322TOy+g/Rm1pgYIEMLkWM/8lvvfVWZnOQ+UhMTKycN28eWo3XiWDow+D39zGvpGOYugscCXhg4MBD6+GQkJCtv/jFLw6KYVMn22Z7LzHOL2Tr1q1ovcS8izA2Aw20ZL4jhuNb3/nOdz6/++67T8s68gV/SyNgbAZt2bIlvqioCNOXYBoTDFUhJGChgUnaA8bxIVHERMJTd+3aNWr37t0JDQ0NLS2XqtbOUHvnMqh9bOv/3VBDif9vgiOZ+Pj48kWLFu2TbUxDgvGWmA4jkIgQYc60QX//+9+z9u7dm6iFGnAWz54Ez1A9RxQW0HL5gx/84IRsbhEtEcF7LMZh+lshgnQePnPia/AOopvsadGWqKionTk5OZeRZ2CnrzGm2bIMWrlyZWphYSHGY2JKjEBDzZWJsab/zM3N/XLOnDknJM9AC6dfpBWG/LUbWp1feeWVwVVVVWjFHN8cTEhgQgOTtAdMazFZNGvbtm1j3n333T7o+qHt8TMSEhKqH3/8cbRcvi36nWi7CF7sAgnMe4ma7THHjh2LRGFECzURYmDaxLg8npiYiDGX6BJFCCFmANNSwbDZOnPmzCLkGVqoudC8lX7xxReoPBzbHBSQwNhfJVo5evTof37ve987hcpJ2farCinkwVarNfStt94aUF9f/209mJCAhAYmcQXUwGGCfjiKmXz8+PGRH330Ua+amppw3Whx2gJmbK1qD+r/7KXv7gj436aIiIjavLy8Yr07JjzFosUMrZiXRIEyCTKMfoyRhROmCfK8cqqqqtSk4W2CGtfWpP+s08jzbIyKirKKcYkusegae1zbQQghvgf5AcbhH4mLi9vw4x//GFNoaPmIyOeotFiWQQcOHIgRwwU9iwIVeHeHh1lMGfZJamrqZ08//fRXgwcPhhOmq56Jm8oLbsWYd+J5HT16NPavf/0rxmESErDQwCSugPdklOibu3btuvH3v//9oOrqanS/9DsyMzMr586di9rQj0WvaIGBB7oyo2vsiPz8/Bv+8Ic/ZKGWW9tjIqQAYEtPT4cjHxj7a0QYb0MIIWZCaz2LiYnZZSajxUhFRUXUU089hfmoV4umiuJFbqsMNBGnRLjHVVFRUR/OmjWrUJ6J343Vh0PEI0eOXDNkhZBAggYmaQu0XN4umiLGyoiPPvooSe8W25J5qdo5VUPXUTr7/07QajelcFD1ve9975gYlxhvCS+xGO+HLlCBBuIQXZmvF924Zs2aZDiCwA7jc1JCuA/Qnsm3v/3tU/I84DAKzwNONOjUhxBiNjAeHGPE9/znf/7nlnHjxsEBmdkMTa2rrOTRfWR9igiOf/xy+Eob2ETIK9DbZXNycvIaeSafyxItzaY0/o0Y811ZBs2fP7987dq1BbL5quibCCckUKCBSZyBdwOtXnAecJdkXJP/8Ic/DCktLYXH2GsME9UlxV76bl+gGTG4BkyBMXXq1EsjRoxAV9jviv4o2ikyhdMGNwNjErXXNyxYsGDCqVOn4Lq+TUPS3c+sLeMV5xk9ejS7xBJCzA6mxsCcyHtDQkI+veOOO1rG/7kzzewsMFg+/PDD5Lq6Okzoj+6yftnLyEWKRF+J1sgz+Wz27NnndCdM2rNQhpx6PmZ6TkBdX0VFRfTq1av77dq1C74t7mneS0hgQAOTOAMtS8iophw4cOD6FStWYGJgGA1tGitmIiIiombx4sVHJk2atF42/94cGrDg2WSLMOdlGsZdotCh7TERYvDbMPeorGLOS0II8QfQivlRWFjYgf79+5cGBwejJc1UlJSURGLqMFlFCybmxgxkYFAiD9mYkZHxwW9+85svkN9re/yM9957L1mMTMxnSkjAQAOT2INuNehiOVB0k9VqveEvf/lLVnFxsdsmcVa1d/bSd7sDrbYSDn0WLFiAcX2YNPszEbrHBjpwHDBp27ZtqegyJfHa8o17sgbXWEvcynkQ3hQVFVX9zDPPoJsZnGYQ4hAPpg+EdASVl+y77777jqelpbVMpdRGuucx7L+N2trasB07dvQqLy+Hg7dAnwYD85WiZRmOf9aJwf/5vffeeyomJqbcV8+jvajnV1FREfvmm2/2r6+vhyf150TjRDH4DSH+Cg1MYg+My6GiiWJU3vzKK69k6hmYXxXwJHOxiRED5wxwIPO+CAk3CgSBDJ7RwM2bN9+wdu1a0066fc8992B6GBj77CJLCPEnYLTsgoOZu+6664xuxJjJkNHy6lWrVvWTJSb07wogX9fms87Kylr161//eq88F7+bwgS+LV5++WXMkan1HBOhFZoQv4UGJlHgXYgS9RVNEI37n//5n6wzZ85gLsVWjUt31hTiWJ04npbZw6HPokWL0EKGuS2/J8J0JDA2A3HMpQIVA2mi/lK4SMOEzlqoiUDXWHRhkkLASdncICrQdhDiAJUWdDJNIMSd4D1EV9ltqamph0ePHn1eH/un4av3VbWEKe3fvz9u/vz5GC7RFUD8F4sOiD4NCQnZ8vDDD+/1lylMgKrER3lLyl3ohTRRhHIYIX4LDUyiQNdYjLscbrPZblu4cOH11dXV4bLtVy2X4KmnniqWDATdZj5sDukS9BahW01vyawsItN922FhYVcWLFhQIqtHRJjAHC7nCSHEn8CcyRj799WcOXP2pqSktHSVNQvwHF5VVRWpb3YV8FxQqbxajP9l999//2EpBzSazZhsg26XLl2KQvlLnuFMPYwQv4QGJgGhIkzMjzEbU1esWJF58eLFOBgq2KlALZsj6btbxZXfdyIjwP81xcbGVi5ZsgRGy1bReyJM4N9VwLyXN+fn5/dTcWyMcyWEO8KV3xjBszJKD26VvLy8MvktrvNRUaEI3hkJMeLS+0eID6kXoaLsS9GW22+//YLRg6lJ6KZPJ9aVwHMpF2mOf4KDgzc+++yzXwwaNAiGp98YmfLcQuDz4h//+EeWbKIc8wsRhi3BOzwhfgMNTAJQ04nulbcsXLjwti+//DJJDA2/ezeeeOKJUjFg0E0GEzH/TXQM4V2E9DfffPPW119/HQacKQvps2fPRjcmQtqCRiYxO/BWCgNzQ1ZWVlFsbGyt5D2cx9ccwBkTWjI/CQsL++Cuu+46rT8bvzEyhW7bt2/v+dhjj02XdbRkYl7rVOwgxF+ggUlQmMOcWV8vKirKKikpiXZW84mWKkfSd7uMo2NA+u72gP/RWi5feOGFI3IMTEXyNdGbIriQx6TMgQ5qNUeIMg8dOhRrtVoxd6lGJ+LVrQQHB1slk8e4JThiIISQQABeTM+LNvz617/eER4erk1b0p6eIJ5CXcOjjz7a8Nxzz5VK0H+Kxmg7Ax/keXg2BaLPExMT1z7//PNbkpOTUQFtWkPT/r2RdQs8wa9duxYtmXeKYGQS4jfQwOzawJCEM5jR+fn5d/z1r39Nt5/aAtgnfK6g/qcj/+sCmmEJ48lisdQ/+eST6AKD7rDrsLOLga7NN4gya2pqws3SLcpo2MbHx9dOnDjxsKzCxT8hhAQK6Cq7QdK7r/r27VslSxvSPmP650sk7w2qqKgIk1XMsRjo05bYA0d/yHPWBAcHf3b33XefxfzL6tmo52Sm5wXsykzdVq9e3ffRRx+FR+Cu9vyIn0MDs2uTIUKL38gVK1aklJeXm87zaGtIZlG7aNEidIPFFCTviNBlqasBx0xTt27dalaPgU2PPfYYxsVgHlKIEEICBXSVxXRLh++5554T/fv3R2uhqUCl4+bNmzEvZldsAUOrsjYmMz09fdWCBQu2RUdHV4tB6U/dmTWD8/jx46P1bUL8AhqYXZMQUawoR3TLoUOHcoqLi+PReomdJkerbYyIiKidOXMmxlpg8Pv3RTAwu9LE/XhWmOty4KZNm1BBgDG0qPV02lrsg9raphdeeMEi5xsg6y+I9muhhBASGMCAQT50LCoqas+sWbPQamaqFjIxMC2YuqqgoGCIHtSVQFfZcyJ4lV8nz2HzAw88cDwpKalMtvFMWp6LWZ6Xwr4l8w9/+EPm0qVL8X49IkJ+Dy//hJgWGphdE8xtOVw0fu3atTe+/fbbfbRQP0ESf9ucOXNOT5w48Qs9qCuSKIIDgImff/55rFm6xhrBvJf6KiGEBDJFok/S0tIOSP6EqTHM1EIGQ8Vy7NgxVCp3VTCVjDZPZmpq6tuPPfbYLv05+dyQdBXJ40OOHj2K+a6nib4tgpFJiGmhgdm1QMsljEt0l5na0NAwevXq1f0qKiqQaF2Fqj0z1KC1ivH3zv4HiXknEnSttjEyMrL65ptvPpeTkwMvcV1xzCW+WRQU0kUTCgsLc0tLSyOMce7Ks+gsbR0bmTfmvdQ3CSEkkMFYTPgBQOtYuT5tyVWo/K8TeWCHkbQ6aOfOnTH6ZlcEU5jAV8Mh0Xp5Btt+/OMfHxJjE12aHT4PXz4vIyqvxTOsra0NW7lyJXpt3SjCuFpCTAsNzK4FpiPJFE3Mz8//xnPPPZenhfoRM2bMKJ45c+ZeWf1I9L4W2LVAJQFqLnPLy8tH/fGPfxxo0q7NTc8884zmVZEQQgIcjMVEV8wzs2fPPhsfH1+thZqIkpKSyFdffRVeb/9XhHKARyofTQ66xmKoxsaMjIyP7rvvvgJfG5DtAUbm559/nrR161Y0EkxoDiXEnNDA7BrgOaP2Ek59bhJNXLZsWd+Kioo2azTdVYvXif/H/2HMZc2oUaPOT5w4caBsf120THRR1NXAuItRokkffvhhWk1NDVov8XzNUljQntfMmTPPyLIrOl0ihHQ90CUWFWrHxXD57Dvf+Q7SP1MZLhhGcfTo0R719fWYKxlTk6EXTFcDYzKrRHD8sy4uLu6ruXPnHo2Nja3ATqBaDPVNs9FNn7okyWq1jpXtZ0UY7oSyXFesMCAmhgZm1wDj8+AQZmhVVdXXnnzyyQliXKI1028SpMzMzErJtE/qm10ZePod/+KLL968a9cujMM05TOcPn06vPuuad4ihJAuARzNrUpLS4NnWVMBowlG5p49e+B5fIooV9vRNUEFwAbR5tzc3B033XQTujj7C92k/BYl5bjR9fX1k2R7kMi0ZQHSdaGB2TXQjBLR9HXr1qXW1taGuqOGTtX0ebK2LygoqCEmJqZi7ty56Bb7VnNol0XzGivqef78+SiJd4sWaiIwL+njjz+O2uAjok1aICGEdA3QBRPG5cF/+7d/OyR5F6Zo8hl2ebOWV0sZIL64uBhTXqCbZVcFLc4YJ4txsx9OmjTpyzvvvLMAU5+5o8eWJzA+S1kPstlsIR999BFao78hQvkOw2cIMQ00MAMfjM+DY5/xy5cvvxH993WPoy4ZhUjUnEn/iafQulpGR0fXPvXUU3ADjwmTl2NHF6aXaJDVak1qaGgIk2dguu930aJFYfHx8XGy+pAIjpgIIaSrgO6XaB3bn5WVtXvq1KnKiYzPDBa7/LrbxYsXeyxZsgQOYrKag7o0h0VrRVvEyDwkz6xcjMsW7+deKuu4jLoeXUGbNm3q/cQTT9wuuzAes4f2I0JMAg3MwAcZya02m23w3r17e6DWqznY3KAGMTg4uO7JJ588IZtviz4VwdV4VwaOGcbv2rUruXmTEEKIyUDr2E7RB+PHjz9ttumaYJygklmWnOaiGVQKfCZaMXfu3F0TJ048h55T2h6TAyPTarV2r6+vx5zm9zaHEmIOaGAGLqEi1GhhAPi0f/7zn+nV1dVwCGO6bpV2aLW94eHh1oULF56WdWTUqGFEVxZ46uuKoMUZ3ZwzCgsLh2/cuDFeCzWAQoOSHnQNrvzGFVQXImM3ImTIkZGRyKgJIaQrg3QRFaNfWCyWY8OGDbvkaNoSb2NI/4PEwLTs27fPr+a/9iBWEebIxJjMTXfeeefBxMTECsnT6u3zOROiVRa88847AxoaGu7QwwgxBTQwAxeM14Nxef2yZcvGbNmyBYPA/QLU+D7zzDPwEPuB6AERxvJhEL6ZE3pPgnlKUdvcf+nSpf3gbl4LNRE9evSoWrBgARz7EEJIVwetmJiqZPfcuXN3pKSkmK73zcqVK1O2bt0Kp0QYzoCKZ9N0BfURmGbmXdH7P/zhD4/37t3bp+Nn28OuXbvif/vb3w7RNwkxBTQwAw9kFGEidKecUVZWlvfVV1+lVFdXY3qLqzKQ1lqyjK1U7qjFc7HVrAktYYsXL4aThK0iOolpBpUDmFw5TZ5njLNuzu58Xu0A52maPHkynFtgnCwhhJBmA3OPaPukSZMuS5oMo1PDR2n1VcAT6bvvvttXVjF9GdTmtGUBDp4Xpi/ZGhcXt/pnP/vZPvTKMXNLpmqVbmhoCDtz5kxiUVERenz9XnSbCL4QCPEZNDADDzj1QcIycu3atff89re/hQtrGHemr52UBLzxF7/4BeYS2yh6U7QL4eS63qLxxcXFcC9vSqQAhRZnjJMlhBBy3XW1Igzt+CozM7MUladaqEnQjRNUSMO4nCwybf7iZeD45w/yvD6ZOnXqJTgabA42P7///e+z1q9fP0NW4SW4K85zSkwEDczAA5nEVNGYNWvW9EYtpRZqQNV66ZtuRdX0OVIr59VawZYsWXIiJSVF8+gm2ie6JOrKYOwlusOmNTQ0jPr88897OntuiF991aug0JScnAxPifCcWKAFEkIIQYslxqUXxcbG7rn//vuPm2EspgEtP87Pz4chAi+k8FJOmn09nBVtnjJlyuuPP/74Tkw34w8tmTU1NREff/xxL1mfKMG3NO8lxDfQwAw8MC/St9avXz9W9xTnT88YRuU3RUtFp0Rd1amPAl1h0W2p/3PPPTdCDEzTeY8NCwurnzdvHsauwCETWjEJIYT8C1TAfZ6dnb03MjISPXTMZKB0e/311/vv2rUL8yj2bA4iOl+IFlkslg3Tpk0riYqKgjMg0xmX9jQ0NIRKnjy5sLDwW3oQIT6BBmbgECsaKxqXn58/UPc02u5WSlUT5kj6TzqMs9q/MWPGnHvhhRcw3hLjLsm/wPylI0UDqqurQ+H5T9bxHDr9LNqDem52zw/Lpp49e2LcCsZefiWqEBFCCPkXl0WYE/hAQkKC1VEe6EswzcX27dtRfhjYHEJ0ML0MuseunThx4quPP/74ruTk5MvotWOXF5qNbvDTsHr1anZ5Jj6FBmZggOcIY2Qc9NZbb6WVl5dfM2DfXYaiu5AEutFisdTNmTMHrZUYv4caQ9IMnhM8AY9paGgYgAxDnl3LFDPqWbr7maqM05XME8/voYceglGJcUZwLsBpSggh5GrgQRbTYByZMGHC5bCwMLRimobGxsaQ06dPYygNHAOSq0E3589FrwcHB2+dPXt2UVRUFIxOLX90JZ/0JoayQLcjR44kPPHEE8iTV4gwowCcPxLiNWhg+j94hqh9RNfYcWvXrs2pqqryi4QkLi6uYtGiRQdlFWMu14jgMp00ewLG2Et4+Bu3cuVKOGEwFchYk5KSYFyieywqCM6LzDS+iBBCzMSFESNGfD537lzMkWkq6urqgisqKuAQkDgGrdArMjIy3rznnnsKLRZLvWybtQVTQ4zNILROFxQUYIwthh6hAYIQr0ED0/+B11gYl8Pz8/OHfvLJJ2mokdT2OEG1UHW09s34//bSf9Iq8rvG8PDw2scffxwD6UeJHhNtE10QkeuuCxXB4UKGGJfZX3zxBcbGmKblWcBzbpo3bx6MSngfXCnCnGHoUkQIIeRakF5uysrKwjRcWhqKQNCRfNSdYPiF5DX9ZBVzT08TYVozlg//BfxBYBjIP+X57bntttvO6l6Br3puvnh2rdANfjjkufYWQ1Nz/NgcTIh3YALi/0SIbpKE5PYVK1Y49TJqJuCN7ZlnnoExia6V5FqiRXmi7CNHjoSjJlILNRHyDGFMHmneIoQQ0gaoUMVQkCNIP81kjCCPOXDgQI/CwsJU2RwgwrLViuouCJ4Xeuy8P2XKlI1RUVE1JjMoHXLu3LmYl156Ca3TmEubEK9BA9O/SROhVmrs7373u6ElJSUwTDQDE4amvRDuY5rgpn3kyJElkjBjzB66xpJrwfjZvLq6usHo7mySZ9cCCkeLFi3COBR2aSYew4TpFyGdAePhMJzg2H333XcsKSkJvT58ht13hcn6Q7/44otEWR8mGixCKya5GnSV1Zza/eQnPznav3//ElmHkdkhQ1O1errTUDWmmZDNZuteXFwcJ8rWf0KIV6CB6d9gMt1v7927N+/UqVM90B2iOdicIBFNSEionjNnTqFsYr7LddoOYg8cLgz73e9+N8hqtaK7rKkICwvDWEuMvzymBRBCCHEFGBKncnJy1t99992YO7jDxokH6Hbw4MHo8vJyeKNH2QJ+AMjVoGIVU3LtTUxM3Pzd7373pBZqfrr9/ve/pxMn4lVoYPonvUWYGHnC8ePHR7///vs9Me6yycWulMbaLT2oXbT2v872iXHZiK6x8+bNg1OfDSLMeYnuJuRfoIIAYy8HVFVV9UTXFoyNke02n1NHn6U96vm1drxnnnmmWBZ8fsRTmKXATYgngFGyPj09/XhMTEyV5IsYy6fRVtrrCYznQ4+ZVatWwbkcpizpowUSI/AqCy/AeIb/jIuL2y3P8VJ4eDjmyNQwtkpCerDPqaioiHzsscdgIP9JdLMI3aAJ8Rg0MP0TjJH4enl5+cRXXnklu7S0FF5kTQ0MzEWLFiERniT6lQiuv+G+nfwLjHmBx7fBJ06ciMPUJLLu1cKGi6Dm/UsRnTIRd0PjkgQ66Cb7mehoTk5ORVhYGDySmgJ0p9y7d29yXV0dHP4gLyKOQR64WvTl7bfffg49s7RQE9PU1GTB883Pz0cL9XdEnPeUeBQamP5FnChXNE6Myxs//PDDNEk08AxbjJD21oCq37fn/xzVzKn/d7AP602LFy+Ga/Z/aiHEGfAIjG4sQ9FVSZba8zA+HyWEG7F/Hp4gIiKi5oUXXoBRuV+EVugihBPiTrzxLhPiQ2BQwiDZM3v27A0zZsxAmqq98w7yT69gzFew3LlzJ3rS3IRt4hA8I7Rm7klPT//fn/3sZ/uCg4Ot8uza5UldxbuKe09gd/xuK1as6FVUVIR5MVHZT4jHoIHpXySIMDbihmeeeWb0jh07kAk4TJhURuVI+k/cioNjY70J3X9+8YtfwMU3PI7SwHQOvkU4VcgsKCiA91gYmBrGZ+dM+k/dgrNj9+3bF04qMP4EBiZaMNFVlhB3gndO87Bp//4REiDAMEFvHqSjG8eOHXsWzu/kXUe4ho/f+25r1qxJPHTo0ER9mzjnkGi5lHN2jh8//qLeVVYr+2AnMEsapgzN4uLihFdeeQVeZcc37yHEM9DA9C8wJuL29evXj5CE4qqWS7MyatSoi6mpqdtldZNovRZIHAGDMkXU7+233+6DsTBaqHloevDBBzGP22YRnPvA0Q/nvSTupj4yMtJqHJdGSAACYxLO7vaEhoYe+O53v3vKYJz4nOrq6vD33nsPFdikdTAes0z06axZs5Z9//vfP4G0SzcqTfEsHWG1WruvWrUqR1ZXib4hgl8PTktD3AoNTP8AXSeR2A+SRAFOfTA+wmeomjCj9F0tIJGNiYmpmDNnDoxidLVZIuK8ic5B9+d+Epe94VIcTpuag32PPMt6PEtZLRA9IlojgnFp2gyU+C11OTk5VVLoNs24NEI8BAwTDB3ZnZeXdwg9RHxtmKj8HGP1Ll68aHrfDiYAFWHo7ow5vT9JT0/fKYZmISoLjM8S60YhzFfoz9iycePGPmvXrsWQK0x1h2lpzFapTfwcGpj+AbrGThNNPHz4MKawMH3LZWJiYtVTTz1Fg9J1tAoEM2bqPXr0qJZniVbLvc0hhHiM2tzc3MtRUVFoISck0IFx8oVo88SJEzE/tGl6hcAQ0VdJ68BgLBUdFq2S5/ih6JIebma6bdq0KaGgoOA2WZ8hwvzbhLgNGpjmBgk85kGE8XGDJAS5paWlLk1+rGoiPZlJGGvk1LmQQSYnJ5fNmzcPk/CzS6zroItK9unTp2FgduiZqWegpAe3G+P/y/NsnDx5MmraUUOLqUkI8SR1vXr1qoqPj2cLJukKqCkvDmRnZx+9/vrri5Hmant0kL8apQd7A4+VHQIQPEcYlcgnN86cOXPz/ffff1Tv6n/NM/PBs3RITU1NxJ/+9Cd4k4XTn5FaICFuggamucHzQa1Sn/r6+lxMlNvQ0GC6ifeNYBL+73znO3AEs020XAskroCusTmbNm3qoW+bAc1J06RJk+DMB8/zgBZKiOeoj4qKqomOjuYYTNIVQIslhh8gz9z+jW98I183Soj/gUoxeFaHA7w3c3Jy1kta1jI/phlpamoKwnjMXbt2YUqarzeHEuIeaGCaG/SJR//4qdu2besjxiW2W2oVVUuTUfquq3DlN+3BUe0bti0WS31WVlZ5WloaPKvtEWGuKNI66P6MwfaZq1evTi0pKYnUQl3EXc9VPVOj8Dxvu+22s7IbrdEQnPwQ4km6V1ZWRoqC9W3T1PYT4iFgZF4WHRLj8pSaF9MM7/0vf/nLuieeeALew18QIZ8izsGzwrNDSyYqY3c8/vjju8aMGXNO1k2FscwgyyB4DS4qKhql7STETdDANDfoDnujGJd3rF27tmdzkHmBY465c+cio8RYPXSnNP3kwyZA6/4sGoQJrmtra00z0D4yMrJuypQpA2R1rmijCF1lCfEk4SdPnuxx9uxZU/fUIMTNwIjDOPczko867FbpCxobG4P1PAndKK/XAklb1IpOifYGBwdvuvPOO9EF2sxg6pIeL7744jB9mxC3QAPTvMCrFwZeD1m3bl2CJPLwJGtqnn32WXQHqRQhs0Qi21GHBShcwplRy1yQAQi8xmLcw82i2evXr8/qbCuku2GrEfEi+B6yRf1Xr16dWF1dbZaKFnQNhwdsVAK1tKq2Ar5heIBGGmaayiJiepC/ozdLrM1mM1O5TGvp2rt3b5asz2wOIi6C1szakJAQp+PJTdQ7A8+Z9gBxK3ip9FViEiwiFGS+Jrpt165dE9544w3UHrYYH742RBwliPfee2/T8OHD0TUkX/S2CPMlYp6vGhGcFuCaIdwfEjJ7AfUbdBNF6y1+i3MhgcYgehit2LY/v9o27rNfgo7EW2v/Y9ynzg3hfo3rCnWveL79RaNFMx999NE79Gd61bnUc24tA3LXu+DoHL/61a8qkpKSvpLVz0QrRHiexkoDdT/qmap7UAL219fWtj3G61LrTuPDgLPzg7bO2Rr25+7MsfwdR89BhbnyXCH1u74iVKrNfuSRR+7QQvR93kzv7L+DF154Ad380eX/f0VI01CJhm8A12T/zgOEwVjAN451fP/4PdIwjq0zL8bnftU7ILT3/bP/vToe3gNIvRPq/cd7kipCJcb0J5544o6amhqnQyV88T1YLJa655577rIYS/+QzbUieEwtEdnnb7g2JSOO4lT9xvhb+/9zhv3xFCrc/jiuHtceR/+HcyipZ4ml8dyIC7QIwvv/FEnTJsnSKd58po5Qzzk4ONgaHx9fPW/ePFSq/U6EBgNCOgQNTPORKEJm8509e/bMWrlyZc+Kigo4+mlJgMySGNmDxGn8+PEXZ82atUU24U0NXX7QrRLGIWr1UaOPe4GnVCW0VMKYRKEMhgqE36oCGs4FIRFXXYeUVKKuMm5ViMMSUgk/UIk+lir+jMdSqP34raMM07iN/QqcF1MroAAKoxqCQawG+eP3ESLcM7o7p9bV1aWtX78+bc2aNWmyDdQ5NNRzdhbfwF3vgqNzoFDxta997eykSZMwngRGZoEIzxO/xXnRwqyeJ9ZRKMIzNhawjfFo3FZh6vrt70NdD56fMRNXz1o9eyVgPId6l9S6Opc6L7A/Z2sYz6OWQB1X0Z5j+hv296/ixNGzACpujHGkfq++V4TjfenR0NCQsG7duv7234M30zv77yAiIqJ61KhRZXfeeSe+AfX+41vHNeN7xjuP9Mr+HVPvmYoTFUetofY7+p2jOPBavPgYY3y4+57VsfF8jFLhOJ9RRpz9xv53OB7emXIRKmExpQWGkiAMv4VjN1Q4jty0aVPme++9l4auqbLtEF98D7JsDAsLq5s7d25BVlYW5u5E3n5BhGEw+A3ef6T9yMvReo/vQ10n7l+l2Sp+cH+Q+nZUWq3226Pi2rh0JoBjqO/QeFx1bPU7YPwfJfU/jsDvUaZBHo9nimeJeFAV4Lgn5ItZly5dGvXRRx+lSVmu1SFOZinTydIGJ1OLFi1aKZvQ3xFOSEeggWk+8kST5bl8/Ze//OVNesJzVeJjlsTIEeHh4bV6JoRxBxiHgAIZEl5kOiiQITONb2hoiD916lT8/v37Yw8fPhxRVVUVduXKFYtkrFpBzdF966guJVg2du/evTEkJKRBMr8GTG2QlJR0JSEhoT42NvaKhNlkn02OiYmjtePV19cH6eswoOAlFc5stOMhTNB+I9cXhKXVag3Ctaj/kbBuOF5tba22T/sPAedMTk6uS0xMrBFVh4aGouZPGZoAv42U/4+Hw6ZPP/00vrKyMkqOjft1iKPnbB/3nngX1DkQvyhUzJw587xuZKI1BwUkFBRwP3iW2vMUYzn27NmzMefPn4+4cOFCaEVFRbDIUl1dbUFcihCHFrneIHnOiFMtXrGU/3d2D9ozlmdkk+esPUuMT4qMjLTFxMQ0BgcHY1+TLLXrxTlwbHVeuaZgiW8L3it1LnU+bON/DDi9BvzR4+Sa7kz6cVr+tx3H7SxXXUcrdOT8Do9td+9aXOD5YB3fIdbVb1S8YIlvRsUL9qtnGR0dLY/mSjd5VqHwZCjvBwpm11yvgzj1Guoeka5lZmZW3nDDDaW4dnnHQg8dOhR18ODBGLn2EN0guOo623vdKu507J+Bq8dub1w5fNZOaO+xO0vLtSFuDPfsruvQjq+esQjpTMt7jHwB6b6cV0uztP8wIO9By/Xp+7Xf2j8bpF/wT4CKihtvvPFcXFzcRQlGOqoMzITi4uI+r7zySqa8V20OC7E/vjdAfOirTREREbWzZ88+M2jQoBLJH5DPySU1Ib2NKCkpgcJLS0tDZVtuPahJfoPvR0vDce3IVyW/DxbjK0Tyi+7y/QfLb7V8QvZfE3/Gc+OP2tbzbeRRWhoEyTm0fUhXZBFkf1ykRdhvfHbqeGq/4Rpa0i0j8vtGeIeV9KBq9OjRpQMGDCiRPAjxoIztUEkPYvft25f6xhtvpMs60jWHODq+L1Fx8dBDD+1NT09H76UHsU1IR8AHpK8SkzBHMptHVq1alSaGV7IedhW+TpQMCf41yD4UHGt69+5d279//1rJTOuRsQhBKPRL5hNSXl4ecu7cue4omNXU1KBwphke+HfDvTm7R+3cxmtAgi8LVUhoKezqGZAGCgpY2scdfm/8HdALFQ6vw/j/KrMCOKcsmuyMIJtkxqi51ZB7DZb7DhHDMlwyPlUodYr9tQJcr76q4eg3ncVwDlW4rkPhOiUlxSrGc8sE+HiOKCSUlZWFSIEChQQYdMEobOnXpeJRu0YH6wrjuhHtOvTrwbUYl0Attd8YjtlyXifnVMuO0HJOA505nhmxv0d1f9fcu7NngaUhvsFVx8BvRPhm4Eik1Uolu+N4FXUvstRq9uW7voKwBim04n3HNyzXpxVgtX8g/orDdMXAVe+vA1reUfv3VT8uDK0rSEuTk5OvoCIU4fitGJUhBQUFYWJ0RbaVJwD743sDQ9xo34Lch1WMrCvyPcBI1vJCSfdhZFpkXcvPEaYMORUHWBe0b91glON+1LJVjNehYzx+C+qYhnXg7Pj2x7T/v6vAuUSo3GyQ/L1enmt9fHy8ludjf4OkDZLPB6PSvLa2NlyO4zRtcOWevYmKx9jY2IpvfetbRdnZ2fQcTDoMPmp9lfgY1FzCo+jcefPmPSJGTnf7hMksiZGDRL5TtOe+jOdW/+fK9Tg6h7vvw924cs2eeCfcES+euC7iPjr7jNvz7XUWX79Lrtwj33fz4Kk00hvvuiv46l1rz/135hrdEc/tOb+7nqs6pyvH89UzdBXcgxjMVQsWLFgjmxDG3aJHmlYpSIgrsNbVPMC4vEk0zJFxSQghhBBCiKepqakJf/nll+Gc6OuiPqI2W9cJMWJ5+umn9VXiI2BIYmD8UNGsvXv35u7evTsJNVwC9hsxS60XruMqObjW9tCefzaeV2EMcyZHOPpdh9VaHOg1lu2NJ0c/1o5jkNuxv0Z17UY5uw/Db4m5aXmWHZTC0T6X5eg9cvC++Rr763EkYh489Wzsj+s2OUtPgYm+B/vraE2dwdHx2qv24Oj/OyKFo332MjX6+4ju291TU1OvS05OhiMj+NIowg5CXIGtZL4HtULwpJq+du3aiUuXLs3UQgkhhBBCCPE+cGgY/MEHH8AXCKZbaXWqFULsoYHpe+JFmGx/0s6dO6P12krUILX040eYCjcr6ho7Iv0Qfo+je1PSf3LNb/RgU+HKNdr/RknfTQghxEUcpZ9MU4mvMLx33eCU8JNPPsFc7EOagwhxDRqYvgMfMOaN6i26ce/evWNLS0sxjQczlC6EKkQ4kv4TQgIWvveE/At+B8Rs1NbWhq1du7aP1WodpAcR4hI0MH0HJiLGuMtJdXV1Q95///2etuZ54AghhBBCCPE1WoXHtm3b0BhCiMvQwPQNMC7RNXakaOKKFSvSS0tLY+UjVhPCXyX8AyGEEEIIIZ7GrvzZ7dNPP03cvHnzMVl/TpQqQo87QpxCA9M3xIkGiMa9+eab43ft2gVjk4YkIYQQQggxFegq+8knn/SU1WzROBGMTEKcQgPTN8BT7NTi4uKhO3bs6NXQ0BDaHEwIIYQQQojvUS2Z8ChbU1MTUVBQkCHBcEyZrv2AECfQwPQNI48fP/6tv/zlL2jFRMslWy8JIYQQQohZ6Sbl1vRly5bdIevwLEuIU2hgehd0hc0RZb7xxhtpJSUlkVqoAUxPYpyihBBCCCGEEF9TU1MTvnPnzgRZ5ZztpFVoYHqXXqLrRRkVFRWxNpsNzn4IIYQQQggxNU1NTUF62TWrOYQQx9DA9C7os/71bdu2seaHEEIIIYT4E9qQrs2bN3NeTNIqGLyrrxIPEiwKE/1g/vz5T1dVVUU0NjZeNeelwR00IYQQQgghpkIN4ZKl7YYbbjg/e/bs+bL5D1G1qAH7CAFswfQOyaLJoqE1NTWhYkxatFBCCCGEEEL8CHSVPXDgQJSs3iiC0x9MYUJICzQwPQtaJdF62Vs0yWq1DkHfdXyY2EkIIYQQQog/gN52eo+7btXV1eH5+fkjZB1GZl/sJ0RBQ8ezoKUSnmL7iXE5+aWXXhpM45IQQgghhPgzNpst5I033uhbUVExTDYHN4cS0gyNHc8SLRotuuHtt99OLy4u7qGFGjDUBhFCCCGEEGJqDK2YUWvWrOkj6+O1HYTo0MD0LImir+Xn599y9OjRWFmnIUkIIYQQQgKC3bt3x69fv36avkmIBg1Mz4Bxl/1EeaLsFStW9LZarS1eY1WrJVsuCSGEEEKIvyLl2+7r1q1L0jcJ0aCB6RlgYGIS2jHbt29H19i4xsZGhGkoN8+EEEIIIYT4K01NTUE1NTURhw4dOiCb/5/oVhEbULo4NDA9Q6houNVqnbhu3br45iBCCCGEEEICCs2YfO+995KLi4snyOogEafj6+LQwHQ/6AobI8r+zW9+k3fx4kWMvSSEEEIIISQgsBvq1U3Ku3GLFy/OlXX04GPjSheHBqb7SRHBZXNybW0t57wkhBBCCCEBDcq7+nCwAaLbtEDSZaHx437SRTcUFRWlyIeGLgItDn2M0n5JAgKMqTVKDyaEuIj9N8TviBBC/AO78m3Qnj17+kvw9Oa9pKtCA9P9ZBcXF9/69ttvp8k6DUlCCCGEENIlWL58eeqyZctu1DdJFwW1Dfoq6STRogTRQ88999z3y8vLI2w2W3fsQK0Olt7GXa0Azq7f08cH9udw9Nv2XEd7zgXsf++uc3mSjjwXV67VeFxf3RtxHVfeZyMdeW/aizq/2b+j1q6P737Hae872Rlcecfcfe6OnrMj34Mv7q+jGK/VLNfkDlp7Bq3dZ3ued0fxZTzj/kSNS5YsaZk9gXQ92ILpPpJFI0X9y8rKosW4bJn3khBCCCGEkK5AIFUkkI7BFkz3MUU0p6Cg4IaXX34ZXrSuwZMfnDdqxAIJR8/CURza/64j8eythJbvADE76lsw63fEb4gEGt7KfwC/H/PhzeevUO/BmDFjzs6ZM+ewrP5BtFZ0GeGka8AWTPeAeExfu3btzL/85S8ZzUHOwcenpAcRE4CE2D4xNj4rPi9COge/I0K8C7854iu2b9/ea+nSpTmyCueX6OVHuhA0MDtPL9E00agvv/wyFlOTaKGEEEIIIYR0QVBhf/LkyXBZxfCxiVog6TKwi2zHQUsXpiFBd9jZVqt18v/7f//veolPhGnYt4YpjLWJzn7TXlqroVTnkN80BgUFNYSGhjaEhIQ0OPof/FaFy3pTcHBwy2+M6/Y0NDRcdR/Y1g4kx5N1VGQ4us+W46lzGrFYLNfsxzVh6eha1DWo82LdZrNd0yoJ1PGM58Bv9VUN7MPvZNmon6+xeY92LgtUXV0dahhv6+geNRxdg7tR92QPnnlYWNiVqKgoa79+/axxcXF4Bxrr6+u7yfVbKioqgkW4FzwnrdJJ7q3leo3rAPGLpTGOsbRHxS2uCyAO7Z6bw+vVueqY9tcDWju/8dxYqvNj3Rmt7cc51Xmxrc7tCOM5tQAHqHO5ek6cz9H7iaUr5wN253T0W+349ufV9tihzgnUeR3cE5baevfu3ZskzdHW5d1rWdbV1XUrLS21SPoZLOcMkWVIY2Ojw/Hrzq7FnRjvywDSAS3tjI2NrRXVx8fHy+U2dJPrD1LXr+JLPSeVfmgHMMQR/g/rwPg/+v1dE+fqGIK2NGxfhXofFI7OjSVwdA1YV9duvAZ1HPvjK5ydx3g+oM6Jpf051bGNcYelI4znc3Au4/+1nM/RObFUqHAFfqquoZXzGc9lpOW8agmwDoznUscGOD6WOLbh+E3q21HfjQLfDtJsOb5F1oNra2tD5RAW/fgt51AYz+spjPdjh/YtSD5UJ/dyRZbIS/EtBMmzwD0EyfVB3ZAvNf/Lddfhvg3H1Jb251D3q+4P/29/r+p/2jqe8b2zP48RHB/vkPHc9teNpX4Mh8fEubAN7J859uO5Y6m4cuWKdi6sI74Qb3JO7dnLISxqWjzsN4Jr01e9Du5P7rPu/vvvP5Gdnb1Jgn7UvId0BfB266uknaAQ1EM0RT70//vKK68MOXnyZILEZ0ursLMP25jIuOvjNx7THpzj3nvvvW7EiBG1snlRVCpCX/h6kU0EcB3qGFgiA7AXwo2/UesA/w/h/pHQwXsYWnMRT1hXUuB4OLf98RXqepTUb/A/xv8zgvPi/MbzQQhTxzMex3gM47WrdcQPhHiziupE+D8cJ1YEr8H9JWHv88tf/lKdwyHues6t4ewdeOGFF0pkUSjCWIhDIrwDlaJQEbwfJ4nwLkfpYSrO1D0ZpcJVXBtlvEdjPDeIEI9YQmofZLxm9f/G8ymp4+O86v2C1DYEcDz1jqhzq3X78ylUmNqvtrF0dE51XlwTwO+M96SkjqMwHtfZb7FU8YlvxyicV53T/h7tj4PrVhjPp36PJcKVcFzjParzqfuEjL9Xx7OX/XUZl/bC73EevIM9RamvvvpqyuHDhx12pfLFN4R0Mzc3F8ZljWxeEB0Q4VvCN4RrjxQhHcD3g5p6pHm4ThVHuHf1fHDP6vj4jbM4V/GO3ziKVxV3V12rHer86rdK6n/UM1XXoKTCFPi9OpbxfGrduN94bcZ1YDyP8T7V+dRx7AUQDypOIRzTeA7j+6X2txW/6rz4nRF1jtbOo54p1rEfvwU4lopD41LJeE7j/ahzqfOofAe6YljHPvxW3RvuB+k13r3khoaGAb/+9a8TMNG9fCvYfxW+yoPwDeXl5cHKxj0cFxWIkKciDsNEESKkAfh+sK3ixvhc1bNQ8aWk4gLPFHGsni+k7tcYt5D9ce2PaZRxPzCeT0m9Vzg/wG+N51Pntz8XwtS7pJ4xpK7P+Fugzq2eO9KeOFGv5557Lq6srCzGV8/dGXgfRI3R0dGVTz311A4Jurl5D+kK0MDsOEgQh4huXbZs2QNfffVVby3UgLMP25gIu+vjd5Sw6zT9+Mc/vjJw4MDzsn5GdFKEglKZCJkXEjIjKkFDYmgvtU8JYKnuAYkbhIQWiaAyMFUCDOG3+B8cz1HiC4xxon6rpBJl9Xvj/6hz2yf8xkTXeBx1XmD8f3UfSOwRRyhcIkOEgYlz45xapi4aKxr5xBNP9KipqUGC7xBvJPL27wBqDhctWlQhq/mi7aI9on0iPP9yETJzGMq4D2RUMSJkXIg3FQe4biW1jThSUr9T+xQqnu0zUJV5Yp/x+SmM57MXzmF8vkrqWgCOp94RdS77c9qjwozXpMLUedW5jO8ywoG6V3up4+AYwHhsZ78FKj7Vt4PvCDKeE/djf584jkKdE6jjG39vf171LNX9GZcIN96D+l97Ga/JfqnW7YXj471D+plWV1d3/TPPPDNSlmjJxPlb8MU39MILL+C6q0SomNkv2itSaSiuHZUyiSIYmSgg4/vBddrHN9ZVPAH8BvGKe1Tx7CjO1XGUjMe66lp11P9Axmeizq3+B8eH1LeD86p3AMdQxwH2/wvUOpaQ8VxGIRzgeOpe1T2qcxqv2V4A16RQ16LOZ4xfdT7j/xnPp86pzqvuVaH+D0t1HHVc47kgpGWOzqdkH6/qfOqcxntW9wOpY6u8R0mlnfg9/hfHQZqA9y1elCLKKSgoyFy6dGl6ZWVlpP69tNyfL74fAANz+PDhxbKKihkYGciDkKci/pAHId9EGoDvB1Jxo+LaGM9qqaTiQj1Xo9T9GuPWeEws7Y8JjGH2+4zns3+nIIDf4vjqHGpdHQ9gqfZDxucMYb86N8BSvT84J5470h6kO0g7+23fvr3/unXrEoqLi5GXtzxv+2fijffAiDr///k//+dIbm5uthZIugQ0MDtOquibohnz58+fUFFRgYL6VTj7kI0fvLs+dkcJOwgKCqpfvHjxJVl9X7RJBGMDxiUSNWMCZo8Kt18CZ/+j7gVLCImh/boCxzAe29kxFfa/dfZ7dT5H51QY/994HPV/AEsVP8gI7BN8ZCbI4G8RzVy7du3w1atX98MOR3gjUbd/B9LT0y8+9NBDKBB/JvpQhEwehWVkZHj+iB91HyqDNMaZ8Zrtw7B0FKYwxq+KN6OAWjrCeCxH53Ekhf25lIBaOsPRfkfnUgLGY7tyHvvfOPqtOr56Ho6+H7U0qjWc/Rbr6nzOZI/6f+PSKGAfZi+AY6t3EIXN+1euXHnvjh074uwrbHzxDYmBiQqaUyJ4QVwnwveD3gz4htS1q4ImnhGkcHS/xuOruFVSz1gJGP/PqLaw/z9g/3/Gc6nzqaU9zs5pf2wslYBaAnUeR/cJjL+1/z+F8bhGAeM6MJ7DmRxhPIY6pjMBtVTHsz++/TbAuvo/YDymkko3jemnEfW+4R2EsYEyycRdu3Z976233upnax660XJOX3w/CvmONstilWi3CD1p1D3h+pUhru5HxY1RCvt1dU9YOhIwHkOtG6UwrgO1bQxXx1THV9erpFDHVgLG49jvh+zzSaCWCuN5EW/K2IQjnQllZWUTnn322TGy3vK87Z+JN94DI+r8eXl55+fOnXtNQwwJXGhgdpxM0S+2b98+7e23306TxBwf+VU4+5CNH7y7PnYnCXuTJOzo0rVL9LHoS9EJEXEfcPA0s6CgYObLL788DAHeTsAV6h2QZaPFYrnyox/9KF+MzOHaTkL8gx9eunTpgWXLlvWTbwpdt1vwxndln45K+omCHCFmBwYaWgGvF923efPmUatWrepr7AXgi+9H0LblO/qHLP4/0TZsE7fTVwQj85ZDhw7d/O6776aUlJRoLZn2z8Tb5RN1/sjIyKoFCxbgHSVdBGaeHQddOfr//e9/R00hat/NhhrMvlX0vyLUIJ4WEfeC1uDClJQUtGyYAnnujfHx8dViXGKsCyH+REViYuLZQYMGoQsdIcQ10CMFfhUwxnHLxIkTD0k+gJ43Pgf5kSzQiwpdzIlnKBKtF62DM51vfOMb57RQE1FdXe10CBEJTGhgth/UCGaJRhUXFyfpNYQ+abFqjcGDB19csmQJxtz9m+hTEcZfIhMi7gWVCxG1tbUtNcUw7HXj3ifAY+z999+Pbn1Hm0MI8Rvw3bR4nCWEuAwMOTifQivhIckHMJbPDN8RykdKxDOgMgF+Ig6K1oiReSI4ONgaFBTk80oGtJjqrabdHnnkESkyN2KowZ2i/thPAhcamO0Hfd7RFXL8wYMHMbheSzTVR2QUwh3hym+MKIPFRcNFK6A9+OCDqMFidxTPg1q5+MuXL1/TRdpXwMBMTk5GV+gjzSGE+A3Ik4Lr6uqYNxHSftCjBg7djkRGRsLANBbwfQHOjW8ZFbFwjEg8yzERDLjjCQkJ1VJeNEUrNlDv4bFjx+AxHHNioqGGBDDMxNsPDMyc48ePX79x40YYmKZDEhXUZBaI1mgBxJP0EmXn5+fDq6wpwDx9skAFA7rNEOJPRJWXlyedPn0aDn8IIe1Hq2RuXjUHYligtWpm8xbxMOipdvSxxx7blZWVhQoHU7FixYqely5dmiyrg5pDSKBCA7N9oJUKA6czX3nllWwpCPmkRs7Ymqmk78LUFFeeeuopeD5ECxZbMD1P0oEDBwZu377dJ4PXHb0DmAReFphG4awWQIj/ELlv377Es2fPYow7IaT9KAPzqnzBG6hWKnvt3bs3TXZPb/4V8TDI//Pl2e8cO3YsxuWq98EUXLx4MW7hwoV5skoDM8Chgdk++ohGiZIk0TRl3A0dOrQsOjoaYy/RVQJzHRLPErt8+fKU8vJyTBZtBpoiIyORwZSKSrQQQvyHiA0bNsRXV1ebpss5IX6IqYyKlStXpqxdu3acvkk8C/J/TAXzVUZGBsoBpkKvdED5OaM5hAQqNDDbB7p5jC8oKEC3SG3QMgJNRJM+z9BU0e9FmK+NeAa0WKaLelZWVkbDk7CqrVXSfuVdmjCof9asWZijD63YrGAg/kb3y5cvRxqnVyCEtJsr48ePrwgPD7fa93DxJOpc9qqoqIhubZ5o4lYw7hI9mI5FRUWdSU5OLjM6+3H0fJT0n3gazcDcu3cvnfwEODQw28fA4uLiKStXrjTjZLHeTCDIddchs8SYkgwfGZMOkYwEtZfwJletLwnxJ7SKOzN9U4T4IVViYJ7OyclBF0nS9YAfBlQy5//whz88LoYmygKmKh/+4x//6PPmm2/CT8T/FcG3Ce2RAIMP1DUwHgier/r+5S9/6X/u3DnTeUMLDg6uW7JkCcfceY9U0Y179+7FBMemKQwvXLgQXXVzRatEpvEgR4ir0LgkpNNctlgshydMmIBpSzTDwketVVfxySefnJTFB6KviTjO2nPg+aIH05dxcXHbMzMzq/RnbhYjs1tNTU3Ezp07Ua4eLBohMqXTTNJxaGC6RqxogCjl4sWLsegOqYWaCEysLwtOS+E9eklmOW758uUwNE2BrwoNhBBCTAXG3+9NS0sz1YT769atw/CiHBH8WaBcRTwHDMxNos15eXlYN1v5QOup0tDQgArxW0SmKUsR90AD0zUwGPmbZWVlOeg7LustNez4QDxd497GOVAb2Thv3jwM5t7aHEQ8CCoX4Ek4ftu2bbG1tbVmcUZiptpJQgghvqNY9KWo0JstV6qs4qzMgrHVVqsVvWxSRDQoPAt6MFWKzubk5ByePn16EcqKsu3TcoLdu9Hts88+w3CjkaIELYQEDDQw2wYfQuaqVau+9eKLL6LmrU1jEgm6UXqwJ9COrY+7Q1cYGpieBwZlkiiuuro6DBmms8zU2+iZByGEkK4NygM7RDAwbR4uhzhF5Y1GLVy4EJW0aMnE1CXEc+CZo2x4SbRn2rRpJ43OfszCmjVrUjdv3jxUVmlgBhg0MFsHYwRQ05Z0+PDhyNraWgxENhXwErdo0aJ9svqFiGMwPQ/G32aKektmaZrvx2Kx1P/Hf/wHukkT4tf4qjBMSABSdf311xdLOcEsDt+62Ww2iyxhTCRrIcTToJv0R8HBwV91797ddAYmylEnTpxAqzaMTBJA0MBsnSgRjIm00tLSCLO5zkdBLDo6ukZW94pgYMI1NfEsmJ4E74RPpqrBMzdKD25KSEiojo+P5/MnhBCiKL/jjjtOZ2ZmoqukhmpJdJCPeAUpR8HAhEMXOHghngfDp74S7R89enQJGiW0UJOAd7GgoACNOeghSAIIGpitgwRwWn19/XDduPR5N0gjFovlyrx588pkFV1h0D2WLsk9Dyod0ouLi3siYWwO8ila4eDrX//6eVngPSCEEEJAUVhY2M4JEyagm6QpegZcuXIlKD8/P1FWUUlLvMe5O++8c8vdd999Wt82C90w3OjAgQND9G0SINDAbB04cxn+zjvvDNBr3VxC1RAq6cFuZ+rUqRjInyX6nahQZKqaqQAEzxIGZr9du3YhgzRNhUN2djZaL3c1bxFCCCFa98jd6enpGJNpCqRMZNm5cyfKVuwi613OiNbl5uaekKXPKxuM5WMpX4fAI79sr5XNGSJ4GKZ94ufwAbZOeFFRUaokhhgvYBpjQjFz5szD+irxPHj+aMWOLi4uTt2yZUu8JysP2oG6BhQg0FWaEL/GJN8VIYEADMw9QUFBJd7uCusM+b6DDhw4AAMClbTEe6g5SI/Iu+Bzb7JG8E5UVlZGnDhxAr0Gs0XpItP5PCHtgwamY+DlDM59+hQWFsaoeS9R8LEXwr1NcHCwNTk5GV1jDzaHEC+AdwA1rr1Onz6tpicxQ0EYY2iQWeB9OK6FEEIIIc3TVGD4RGl0dHQ1PM77YtylEZSbrFYr8k/4MyDeA/468C4U3H///Ufj4+MxN6bPUWVpDEP74osv0JhzgwhzY4ZhP/FfaGA6BgOO4chl4MmTJ7Fuqhp1SRiq582bh4TiQHMI8QJI7DBfU98zZ86ESYJoim8HBQXd9TjG357SAgkhhJDrrqsTwZAoGz58+OWwsLArWqiPwZCjvXv3wnMo8T6nc3JyvrzjjjswxMpU7N69O/7NN9+cLKtjRCh7Ez+GBqZjMBUFXvBR+fn5UaqGRdvjRVRNo32N4913310kiw0idHkg3kEZmH3EwGxpvfTFe2FkyZIlwYsWLcK1/UpkOhfkhBBCfAryhXO33357Qc+ePTGVla+7RiLP7Hbu3DkaEL7hkOjj3NxcOPvBu2CarrIYi3no0CF0n+4vQhmc+DE0MK8FiR+6boxeuHDhSPQLd2Tk+QgtMUhPT4dDn09FZvMGFsjAiOsrBiWmrAn1tWFJCCGEuAAMzLPBwcHH8/LyqpqDfG9UHD16lAamb8gXrZXy7CnMn22Ccm0LUq4KqqmpCS8oKOgrmxOaQ4m/QgPzahAfSSIYEolVVVUReOG1PSYACQHGUMgqBu7DY6jpujgEMFoL5t69e/tUV1djPCYNTEIIIWYHY/RRZjjRp0+fKrMYFCUlJchTiW9AOfL4o48+ui8pKQldqE1jZIJ//vOfcPYzsXmL+Cs0MK8GU5H0EQ0+c+ZMYk1NjdOxdkikjdKD3YajY2KC3MWLF6N75g9FcOhiikHaXQB4j40U9V65cmVPm83W4t3ME8+eEEIIcRMtBmZKSkql5FnY9jnV1dWhCxcuhPfzP4vgNZTlUe9RLzqcnJy8fcKECXAQqKHKs0bpu7xJt/z8/Lgnn3wSjn6IH8MP+mpgOIwQTdmyZQtaMk3VSjV58mTTzGXVhcA3gjEByQ0NDT0kUww3U6s2IYQQ0gowKDFPckFYWFiZqE4MB58bmfAaWlpaiopb5K+YF5NOf7wHnD1tF60bPnx4sf4+mKayXMpYltraWrZw+zksKP8LJG7aHDybN28eevDgQSR6XsdJrRHCGqdPn45MgngXfCPxol4XLlyI1lsvfV7xIO+DLSIiAm7HCSGEEGegPAHnPqigPjt58uRL+lAbnyJGRDd9Cjj4vOgl8kmZq4uCcblwFnk4KiqqMCkp6bLujf4anJRJPQoq8VEBoW8SP4UG5r9Ai+VgUfqaNWt66vMcmgYYmLJANxfiXdBtGvNf9rl8+bJpnBLA3fz8+fNL9E1CCCGkNayi49OmTTsRGRmJdZ8DI7O8vBxe++E1FGUw4j1gNKKS+vgPfvADtG5jShtC3AYNzH+BKSgmFBcX94UXK8zT1BzseyQzqF68ePERWT3YHEK8SIuBefHiRXTZMEW36ejo6NqgoCDOe0kCDTrPIsQzwKg8JvnGsfT09BYDE0aevuptcN5uFy5cQDdZlL8SEUi8SqVoZ2Ji4p6ePXu29Ijy4TtBAggamP9ioNVqvWn16tV99I/LNB/YyJEjMYn+NtFuLYB4ExiYqFntffr0adOMCRg0aBAyg2PNW4QEFCzcEOJ+akVHRcdSUlJM0YIJzp49CwMT01LQwPQ+FSKULb8aOnSoGeZIJQEEDczm/v8DRBkrV67sd+zYsShZ1wo4MDTthXAvgr7vtjvvvBNevjAge58WSrwJDMyehYWFaSdPnjSLE4KmAQMGIDM40bxJCCGEtAocu5wXnUtOTkZ3SM2Y8Ob4OkdlqV27dqHMBS+y7CLrfeBNFuXLM1OmTDmal5cHPx++8h57DY888ojt0UcfxTX+lwgOOIkfQQPzuut6iDD2csBXX32VUl1d7ZIRYUwojYmlO8FHvmTJEjiVyRP9QXQY4cSr4BtJWr58eWpVVdU1LZieevZG8B4o6UHX5ebmogXzZPMWIYQQ0ipw7ANHP8UxMTFW3amLzw2JkpKSyKVLl7IF0zfAtwcqq1HxcPC22247I+UMn3kYdlCuxhJlsIGi6/Eb4j/QwGz2HHu91WpNa940DxaLBTWOxLfgGwlHJmgyr2aogaZXYUIIIe2hNj09/eywYcNKfGlMKOrq6kKOHj2KnmSmcaLXBUHFw+bExMRDUu5Ei6EpWjB1uu3ZsydLlhObN4m/QAOzuVvGqG3btvWWpVZjgkBg32rkZZoiIiLwoRPfgRZLuE6PwpxMqEkz1q5B2q+8S5Ne8YBax5YJkgkJNEzwrRESiKD3y+kJEyZc1A1Mn5Rx1HeNils4VpQgzoPpO1CWgI+Po/Hx8dVmMTJVur98+fI+shiGdeI/0MC87ro4MS4HffbZZ6brnhETE0O30b4lVZQniVxC86bvQbemoUOHIjPAFCVs4SaEENIe4Dn0aEZGxhlncx/6CAxXIr4BTp/QTfbM3XfffTYhIQHviGnAtIGbNm3CWF3iR3RlAxMT/GIC/eQ1a9YkVVVVwZOZaYiIiKh9+OGHS/VN4hvQqp178eJFvCemaEEJDQ2tnzt3LjICTJLMCggSsKgeJD7uSUJIoAHjAdOenenevbvWRdYE3xryV9NU5HZBMD4XvaLOpKen777rrrvOq/dAtTRj3VfI+S0FBQVs4fYzurKBidoQ9OtObWhoMM2cl4q8vDy0Up1u3iI+Ai2YuXv27DFNxicFAnRdwXsBD7It81YRQgghLtBiYAYHB5umBbO4uJheZH1PoeifWVlZBc2b5hmLefLkSY7R9TO6soEZJxouyrBarXDe0jLWx174sadwUnPYNHv2bHzou5o3iY9Iys/Pz/ryyy8xDtMUoAVTFmdEBSLMa0YIIYS4Cnq+FIswv3ajodzRgpNyiUdQ5aytW7fSwPQ9cPaDcmdRUFBQvTx77f3w9DvQGur9qKqqCtWDiJ/QlQ1MdHsce+DAgUHy8pqpBVN9yDAgvmheJT4i8bXXXssoKyuL1rd9TkpKCgxMVD5gihIamIQQQtoD8hBMsF8dHBzsM8PBni1btiTrq8R3oOfcIdH5qKioOjON0bXZbBjWRvyIrmxgRohhmfbBBx8kNTY2msbARE3RAw88gI8arVT7tUDibVBTBocDamoSM4y/REGgae7cuRgrcUmEKUro5IcQQkh7QX5SO3PmzEsRERGmGGqBvHbevHm4lkdEmP/bFH4Puhh4L1D+PP3444/vHDlyJMoaZqmE6Pboo482FBcXfyXrs0XwkUFMTFc0MJFoIfGKPnr0aIq8rKZx4AKWLFkSnJ2djZqaeaJ8LZB4G0xPgu46GFR+VTdpX3YXkfPCIQMmpP6TCF5kURNNCCGEtJeavLy8c4MHDzaFx1DJZ4P0ViqMtYPMNO90V+OUxWL5ctKkScXOyjuqLOTN8hDKYhcvXoRDzkwRykLExHRFAxNGQw506tQpU3mOJaYB43PhAMpUXu369+9Pr8KEEELcQWlISMj+G2+8Eb1hzESKaIiI05b4DgzB+SI1NRVjdWFAmqYVc8eOHXgvxoo4L6bJ6aoGJhKvIUeOHNFaqBBIiAE49RnY1NQUb2y99BbGmkFj7eBNN92EVktCCCGks6D7424xIs7J0gxGhOotRAPT96DS4aCoBOMw7cskxnKJtzl69Gj01q1bh8rqwOYQYla6ooGJrhdZVVVVmSUlJegKSYg9MDAHXLx4ES2ZpiEnJwe1iYQQQkhnwXzK20RwGmcapGzWSxaDRKbx3t4FsYrgCKoyMjKyVgxK0zj7qa2tDfv44497ympicwgxK13RwEQf/7TVq1enVVdX+8TtsaNaIIvFUvf000/DgxfxPTGiAUeOHIGBiRrVllZM1LD6olVTBy7ECSGEkM6CsZfoClnmyxYpO7rt3r0b3mTROoV8mPgGGJTwUl/0wAMPFERFRcH5khlauVEGs0jZHfPY08A0OV3RwISDn8Qvv/wy0WazYd0UJCQkVEdHRyOxJ74nJj8/P/3zzz83SxcdVRmBLk2EEEJIZ4FH8moRvJH7tNujkXXr1sHBXobINNODdVHwXhxMTU3dfuONN5qu8cNqtZrKRwa5lq5kYOJe+4gG48XUvZVprVE+bpXSaoWmTZsGBy67tRDia8K2bdsWX1paiu7UZoEGJiGEEHeBPAWeyavFiCizWCymmPaqqqoK+S5aLzmEybfASz3mxNw+ZMiQ0m7NXuxNw5EjR9iCaXK6koEJl9fo1z/m+PHjppqaBIwePRrGw5fNW8THhBw7dizKTBP7Ll68GIUBOvkhhBDiTqpuv/324vj4eHSJ9DmYD/PNN9/E8CWfDGEiLcDAPCzakZSUVKqc/Wh7TMDq1atpYJqcrmRgWkTZknhd//nnn8PANAX4YPWaQxgP+JiJ70CXaTgWiGxqagoytm4rab/yMqg5FGFMhGkG2hNCCAkILmZlZR0ZP378ZVn3mQFhzGNLS0vRIJCKdeJT0GpZIeWPA//2b/+WHxYWVifbPnlHjOUwSN6RiFdffRWOqp4SoezWFYf8mZqu8kBwn+hukfWf//mfI44ePdoytg4GHqRveh0YDo8//jjGQcBD6AktkPgK1JiiVixGZXRmADWHskDCTgOTEEKIO9GmpBg0aJBp5lkuLy+HwYAhTcT3VIn2ZWRkHIyOjlat3D5vyWxoaAg7fPgwxutiLCbG65qmxxlppqsYmDAo+4kSJOEKb2xsRGumKUhMTKyKjY09IKtHRHANTXwHvMYOF6VfuXIF74gpjEw4gJIF5irDkpBAxzTdsAjpAhSJdiUnJ1/yZWW7kbq6OrRgYroS4nswXckXoh3Dhw+vMss7YqCv6CYRKyRMRlcxMFHLkS2C59juTU1NZrhvfKRNgwcPRu3QXhG6x6KVivgOdI8d2tDQ0M8k74jGY489BnfyZ0RYEhLI0LgkxLtg+itUcKOLrM8w9ibTDUzMdUh8D6YoyRcdycrKuqx3kzUL3YqKitJkeaOIXapNRlcxMFHDcUNBQYHpasRmzZpVLosdIhiZbMH0Lehmkbl79+7eZjIwJdPFO4Lu01gSEsiYyvkaIV0AGBDoHovyhykqeNDLbOvWrTQwzQHeCUxpU5menl44fPhweJQ1TUXgihUr0HI5UdRbCyCmoasYmKl1dXUjN23ahJZMFGB8XoiRD7QxOTkZiTpapgpEGKwMr13Ed0TYbLbUdevWxcPANNE4TMxBdVTk0xpmQrwEjUxCvAeMB4ytu6J7CvX5dBSS91o2btxoGmeMRDMyUQ45cMsttxTq2z4F5TPo1KlTPebPn58uQSjfExPRVQzMns8///zQ/fv3mybBkoS8Yd68eadk9TbRBpFpag+7MN1PnjyZcOnSJbNN8IyEHV1UTDfZMSGEEL9Ha6UKDQ1FJbcpjAfJh6P0TWIOMJXe1qioqCNmqIRQYFqb6upqzJ0KHxrERAS6gQmvoHjpelRWVkbbbLYQVethL+3XHgbdClTXgsjISExNglYpYh4sklCFIMHChnpe6pn5gKb77rsPCTlaumlgEkII8QTIZy5+61vfOhMREWGG+TC76fkwnMtMFaEsx54NvgVDdA6JzkiZCO+LWRpE8K7AKSPHYJqMQDcwI0QpIjXthFkSqKawsDAYmBhYT8yB9n54q7LBFWDYDhs2DJnsD0RwAkUDkxBCiLvBFFhnc3Nzjw8cOBCOB80AHLgg/4sUoYWKBqZvgZNBNIqcCw0NRVdqsxiYAO8GZoogJiLQDUzMaThChMG/Pkuc7FvBUPvzyCOPwMDE/FPE96B2FAPFe5eVlWEuJVNkZNHR0ZyWhBBCiKeBgYmxdflDhgxpMTC92cPLEVarFfNhYmgTppozzfRyXRiUY8t+9KMf5aempppm3lS8o9u3b8c4TGIiuoSBKUZDi3cpe2PPF6D1Mjg4GIk43IMT3wMDE66uU8+fP2+ayXoHDRrEaUkIIYR4GhiYcDiYn5KSYpp8B0NWZIGJ9GlgmocSMS4PzpgxA2MytbK0Klf7onyteie+/fbbKMMRExHwBqa8fMM3bNiAbrKm4ZZbbsGk+ftF7PJoDmBU4h3pdenSJWRoZqApLy+P05IQQgjxNMrAPJacnIzKb59WwisqKiqQH8O4xBzVNDDNQbFoR3Z29jlfN9YYwZjdTZs2HZfVfxOhUQkNB8SHBLKBiXvrIcblgJ07d5rK3fXEiRORkGPeS9N0MejiICHCHKk9y8vLzWJgXicJOA1M0mVR3fOU9GBCiPuBoYAK7/MhISFWXxgO9t87VFJSYmzBDPQGEX8BPe92BQUFYWo9vCemMDLlfbEUFBTA7wrmvUd32TCEE98RqB8sarpgNITv378/sra21jTdHnVOi74SoYsB8T14P3qJcdlTH/NhFmhgEkII8SamaZUqLi5GOS5ZhOFOmnd34nNKRPtExWZqwQQnT56EM6hhIvheiUEY8R2BamCi5gJdHpNKS0tDdRfGZgD90+HeGTU/8CDLifPNgWZg7tq1K7muru4qA1PVpOqbHgMJtZLalkUN1gkhhBAvgK6yVTExMVWSB2meQlWe5AvOnj0bWlVVhekneopoYJoDzNkOI7MiLCysLigoCO/MVaj3xtvvTnV1dfcDBw4MlNVsEbwPEx8SqAYmJsofLOrb0NBgqn77ixcvVvMawmMbvYSaA83A/Oc//9kTc6U2B/kUJMx4T+BpmBBCCPEG9aJLU6dOvWSxWLDuU8RgCFu9ejWct2BMHQ1Mc2HNzMysDA0N9fl7opDyW/e33noL05UMEKE1k/iQQDYwB4nS6urqYGB6dfyOsfbGWIOTnJxcJtswZp4XwXiAEUF8D1opQ61WK56Nz8d6IWPv168fxsOwhZsQQoi3QLnkzPXXX18UGRmJdWOPGq8Dxy179uzB+EuU6ejkx1xc+O53v3t4yJAhpimnSDkuqLa2Fj0Y8c6g5Zv4kIA2MI8fP97HRN1jr7v11ls5LYk5gVEZhMSpedO3YBqbhx56CO8KnUARQgjxFuj+eCokJKQwPj6+rjnId2MyJU+21NTUwHELWqPo6MtcnLFYLHtGjx5ttnIK3hN0j0UrJvEhgWpgIjHqs2XLliQkUAiQ5VXeyRDmRZBAN+Xm5mLsJTE5PnxPNOLi4pDJw9Mw3xdCCCHeAkYl8p4zvXr1umqIhn2PLC+CfBgOWzK0LWIW8J7szsjIaJkP0yysX78+ShaZzVvEVwSigQmDMqqoqChl37598WIkoGXK5zVfkjCjO+yF5i1iIjDmUjmC8vl7AtLT02FgFon4vhBCCPEWWhdZUVHPnj2v+KprrEJV9FZVVcHApMFgLjCf+wGLxVICRz96GdcUYPYIWfB98TGBZmDCWIC3sZ4VFRVhMC61UB9jqPnjmDpzAacBqBXNPX/+vGlcWkvGjlpkJN7sUk0IIcRbwMBExWZxTEyMaZy3nD17FvlzVvMWMQlwUonWy7LExMQKMTIbtFATUFxcjF6M/Zu3iK8INAMTcybB41jfS5cuYaCvKVqk5MOrX7x4MeY05Jg6cwEDE4nQ4HPnzkWr2lJtjw9JSEhQLZjsIksIIcRbYMqJCig8PFwZDD7PEw8ePEgD03ygMgLvytm77rrrXGRkpBqz63Nqa2tD58+fj8Ym4kMCzcBErQXmv8k5fPhwpBmMBZCSklIpi6MitEoR84Busb1E/Y8dOwZHAqYgKyurVhanRGe1AEIIIcR7mGpM3Z49e+C4EfMbEnMBI/OolFn25OXloRHFFO+NlP0tVVVVpinTdVUCzcDECzWoqKhoUGFhoWlerkmTJqFr7H4R5r4k5gHvf3J5eXmfU6dOmWXOJCTQqDlGYl2FAEIIIcSL2Hr06FFrsViucvTjKzAfZk1NTbK+ScwDulEfFu0eNmzYZV+P2VWgcQlT3OibxEcEkoGJe9EG9v7xj38cKImRadxajx49GnMa7had1AKIWUALZuL69etTKisr0aXa57zwwgu4pvGiLSJ0VyKEEEK8SX1SUlJ5fHw8xtn53GgQYyHk6aefRismMReogICBubNv376Y5x2OfkzV+k18R6AYmLgPdHUc0NDQkFhdXR3RZHDw48NaFTj3wQeH1qh8EbvImgtUQETu2bMntq6uDg6ifIZZunMTYhaQbhulBxNCPI9VvrlzM2bMKDXDt8cWKdOCdwOVEBdDQkJO3nzzzWctFgtaNX39zqA8xTKVjwkkA7OvaMi5c+dizVJYR8K8ZMkSJIozRP8UcdoJc4H3JLyioiJSn6bE17AQTQghxNfUiAqzs7PNMsehKRzwEYfg/cBwnqNiYBaYydkP8S0B14J55swZTLBqCsLDw+ENlPgJqqVESQ/2Cjgf5pLSNwkhhBBfAUdz58LCwtCCaZr5DYlpQS+9LywWy67evXvj3dHwVqUAzuNI+m7iIwLKwJQXasDRo0dhYOLF8vnLFRUVRQOTOMRoyEIIM9M8UoQQQrosMBIwVVaJMjBZaCetgBbMPaID/fv3r1VlGrUkXZOAMjC3bduWfvz4cTj6MQX9+vWjgUlcpnv37mzBJIQQ4mswrg5TZRXTSCAugMpxbf7Unj17YvwuyzIkYAxM1KrFrV69umdNTc013kC9UeuGRFhJD4KB2dJVgJgOjI2Fp2EzjL3UCAkJYaJMCCHE16DsgnmYSyVfMouBydZT84JWbjSoVGRlZZUkJiaiRdPn780jjzzSCMnqi6JYLZB4jUAxMEEIjEuTOGsBTePGjUMtIDEncHneU2Sa+VJDQ0NpYBJCCPE1mH6iVFTZjWMwietUhIWFHbnrrrvOGhtbTECiaEjzKvEWgWBgokssDIUo3bg0w0BftGQiUaY3LfMSJ4LnYbM4hWqKjIzkGExCdEyQjhPSVVHll3rdUDCTsUDMC5z9HM7KykLrt2neG8k/UmQxtnmLeItAMDBRM5El6iEyTSFEd9iC+YCIOUkQZVit1hhZmuK9+dGPfkQDkxBCiFmgYUnaAwzMQ6IiM7V879ixA40Jk5u3iLcIBAMzSZRdV1eHFilTgOkmFi5ceF5WMUiemBNUTGScPn0aBuZV+KrFJDg4mF1kCSGEmIWm0NDQBrMYC48++mi95M0Y6/ewyDT+E0gLlaJ80TnVRRbL1oTfeApVllu3bh0aFAY1hxJvETAG5qlTp8xkYCJBhnGJD42YkyRJeAYePHgwVjcmzdCKybEuhBBCzEJjbGwsusmaIm+SvDpoz549IbIKwVEfMRfwJHtMBAOz0dMGpKtcvHgxVmyE/vom8RKBYGAmW63WnG3btsXr2z4nIiICXWNPitBVgJiTHnv37u174MCBljGYqrZL3/QqekLM7kiEEELMQs2tt956QfcKaga6vf7668ijkW+jVYqYD1RGmKosg3Ldq6++aoZGhC5FIBiYCa+99trA/Px8s7ggbgoLC8NYOrZgmpuYlStXply+fBlOonye8IiBie6xHLNLCCHELNRkZGScGz58OLzJer2LYysg36aBaV4a0dAi74dpemVduXIlEOwdv8KfIxxGAbpIhF24cCGqrq4OXSZ8DhLcefPmwcDEGMzTWiAxI5aampoQdLnRt31Kjx49MKVNWfMWIYQQ4nMwpu50VlYWnLeYCUwvBseOxJxU33nnneekXGOalm+zlPW6Ev4c4WEi1GDF1NbWhppl/sslS5bA6MW0Ka+IMI8UMSdB9tPaNAf7hl/96ldIiC81bxFCCCE+BwbmqT59+tDAJO2hPC8vr2Ds2LGmeW9oYHoff45wjLkcKsL8NoR0BJ8blgqLxYKE+ELzFiGEEOJz4LTlZEhIiNl618DANMuwKHItF0W7xMA0U5mGYzC9jD8bmKi9GixK9oWRYByDAOnBxPyg5RuehyPNYlzqICOngUmIDtNYQnwO8qXjIhiY+AbN8h1iDKZpHDuSa8AQsW2xsbFFsjTFe2Oy8l6XwN8NzKzi4mIYC4S4Cmo9M0TInGhgEkIIIY5BzxpMO1FiskoeepE1NzAsN4oKTfTe0MD0Mv5sYGKC/IF79uxBIoMXx9cvjylqaUib4L3BfEhq3lSzJDqoIT7TvEoIIYT4nCsiVH5axVAwzbyGBQUFyMfh64KYkzoR3psai8VyBe+OFuojVOvlI488gutAhcndonCEEc/h1wamGJcZmzZtMk0tlslq+IhjokX9bTZbD5N1mYBDqMLmVUIIvk+j9GBCiPfA9FkwFjCFlmnKN8eOHUNPpF7NW8SkwJirj4yMvBIUFIT3yBRIXgLnjmgBb5kDnXgGfzYwg0+ePBlutVpNMz3JAw88YJqPiDgFzgF6lpSUmCZxuffee7EoEWHuVEIIIcRMVN58883nIiIiavRtn7Jz5060YCY3bxETc+H//t//m5+SkoLWTFPw+uuvh8pigChTCyAew18NTFx3yIkTJ8IbGxtbDExf1nQHBQU1DB482KpvEvMCA7PX+fPnYWD6vFXkhRdeCBo+fDje56dEGBhPCCGEmInyCRMmnB04cCDma/Y5JSUlcPLDMZjm50JiYuKRG264wefTlSj74Ny5czAw00UDtR3EY/ijgYl5JmEchF+5csU03aZiY2NRs0cDwfxE2Gy2nidOnEAGRQghhJDWKYmKijoxZMgQzIvpc/Q5rFEWJOYGZeIjGRkZMDBN0cW6uroajVK9RX20AOIx/NHA7C5CzRX64Jvm+ocOHYqE93TzFjExYcePH086cuQIDUxCCCGkbTCE43jfvn3R1VEzFHzZY0zOGySCkUnMDQzMQ0lJSZebN32PPqwO43dhZBIP4o8GJro49hP1lBcl2FcJnD2zZs3CB5TfvEVMTNjOnTvjSktL6UGMEEIIaZtLouOJiYk+7+qoMEvZj7TKWdHBbt26lZnFCWZjY2PwwoULE2WVY3g9jL8amGming0NDajB8rWXQXw0EKaZOIwAYmqCT506hbG77F5DCCGEtA28nBcEBQWZoosseP/99/U1YmJqRWh8gSdiVVb2OjBulYSg0tJS9GCjF1kP448GJlqe+oqB0LOurs5MXSTQhWR/8yoxMUFo+dbHcBBCCCGkdVCBjiFAVWZpiSJ+g2ZYynvj07kwDXSz2WzoJmuKGSgCGb/tInvkyJFeTSbog4/EFh5kZRW1NJxmwrwgMcG43ciGhgbtvfdxyzchhBDiD2AeTLRGoaxjBrrV19f7Y/m1KwLDsnTUqFEXg4OD0ZJpBlDuYy82D+O3BuZ7773XU7VCqaZvrHsb1Mr8/Oc/vyKrGJtQpAUSM6KcQ0WLkLjIo/tXtwlIwgghhBByNTASYFxiqbVIiXzKlStXaGD6B3hvimfOnFkUExNjhqn80E2WBqYX8McPNNhqtUZVVlaiq6zPW5969OhRlZqaekJW4S2LRop5gYHZQxRpolZLvi+EEEL8BdPkWaonEjE9MDBPx8XFHcvIyMB0fqaguLg4TF8lHsLfPlBcb/eLFy9G1NbWmuLlyMnJqZIFDMwLIrP0MSfXgi6yMDCjWPNJiPlhDwNCTEdjUFCQTV/3KRUVFczH/QN0rz4pys/OzkZ5WcOHQ5S0HmyXL1+mgelh/OkDRXfY/5+9MwGTojrXv9M9S88OzDAsI8uIoCwCKi4oKBEBk6igwTVK1FxNvOGfxLigUUlEjRdBTXL1Jkaj9+IaoxHcAcEFFFQWh0VwAIdtWIZZmH3t4f+91XUmRdMz07N016nu9/c871TVqZqq6qpT53zfWTHqU6o4l7pUbR8ZPHiw1cGkEaQvzX0wRbrUYBJCCCFOAPZNXXp6erU57oStVFVVcaA+Z4AuZJjCb2OfPn0wCrEWdnJ5eXmCuUpChJMcTDiVmLumpziYavQn2yNqr1694GDmi+hg6g3iTJooSaMmsoQQQogTgH1TNWLEiIqEhATbHcza2lo6mM4ANd6Fon3p6em29MFUtaVW26+goIAOZohxkoOJyDBANHDnzp1aTJKPZluZmZlwMFH9jw+IDqa+wMHEAD9a9N0FbPZHCCHEIaALUPmYMWOK4+LiUCtlK16vlw6mc4Ctg+bVTbrYPYWFhXQwQ4yTHEwM0nK8qJ8ZMYx21KKwtuUO0B/oAtE7IowgS4dBX4wazKamJoxCrANHfvKTn5irhBBCiNYYDmbfvn1LMjIy6gPYQiHDWgOlxLmsHYfRf1fijK1jlaj4s3//fvbBDDFOcjDhIPTxer199+3bp0PJAxJWOpTOAU2sU6urqxORuPiC7CU2NpbxhxBCiBNAflUhDkJpZmYmBm6xFQ7W5zgwZzwcTDSZtd32MWeiICHEcQ7mpk2b+jY0NKA2M+xYS+uwrkNHdxI0xjQlhw4dsmWQH8QXq5DQajInFCFaokqalcxgQog9GDWYopLevXvb3kRW0gTWYDqLBrF9Do0ePboE9o8ZZhuIP3fddVeNrP6vqJ8IPgbpQpzWRLbPwoUL+9TW1triYPpxxOPx2F6KR4IGiUe3vXv3YiTio7DDgJWE1pudna3NnFCEEEJIK6CAHQ5maffu3XVwMFmD6SzqRAfGjx9fiMoZVdju2xV+0MS6sbERzWRR6YDxOdgns4tx0gcKByCuqqoqXoeERZzL+jlz5mBgH+IMEiRByfr888/Twu1MBiI5ORm1l8W+LUIIIURrUINZJipKSUmBg2lrM0cd8nHSLmDz7O3Xr98BHUYhtoBKh4GiHsYW6TKc5mDGipOAvnS2N50yR1HD1CTEGcTv37+/e3FxMUqqbM+Y+vbti9I8OpiEEEKcABzMw6JDqampyL9sw6z5ooPpLOBg7hHtS05O1qb1X21tLWxCzFBBB7OLcVoTAyQoWiQqGEVNFvt9W8QBuKqqquJ0GXmuf//+SGyLfFuEEEKI1qDf3CFRQffu3dF3jZD2gDjznWh3nz59bG9irdi/fz8czBxRhhFAugynOJjoP4e20m5dmkUcf/zxKMHD1CTEGcR4vV6XxB8t4nxWVhbiDzJrQgghRHdQa1ghKnW73c01UKovnZ396YgjQKE6bOYDaWlpiD+2xBdrfIXMcTlYgxkCnOBgwqFECUOGOAfadMLt1asXHARU9xOH0NTUpE2Tmm7duiGxZR9eQgghTgG1mLbPZUgcCZzKEtHh5ORk20eRVeTm5ioHs7sRQLoMpziYKFnoW1VVhUnyj3ES/EskzOCQIg4Cm8g6A8RxzHeU2NjYiHUj/qj+u3bViOfk5NDBJIQQ4jQMGytctlZr3H777U3l5eWrZPU8EaeZ0BvEF9jNDXFxcc1xJ9y2uz+FhYWwD3uL0owA0mU4xcHsKep36NAhOJhaMHToUA7y4wzQ5xI14GkVFRUYIEoX0B+BDiYhhBAnAUfAdudSUV9fjzwetiG6URH9OeJ2u21zKP2pqanx7Nq1K1NWj5nCjnQOR9VgHj58ONHOWicTfBxwLlEDpU1HZdIiKNVEAUVmVVWVTg4m5sBkH15CWsBasq2LMUIIaf42j2kma/1eITM4pFRUVKDrFGqgkM8T/WlKT0+vx1yY5ratYODHJ598EnProyaTdCFOcDBxj3Aw++zatSusESBQYollcnIy+l+iBor9EPQHDmaWqGdpaakODibiEYT4QweTEEKIk0D+pfphhsWJbI3y8nI4mNmiXkYA0R1vRkZGTUJCgi5TlcSY0x/SwexiHFODWVtb2/fbb7+1PQIgUT3//PMxf+EBEWoxid7AwUQBRfeioiKd+mggc9amozshhBASBMi3yvr06VPucrlsz8N27twJu/B4EWoxif5UZWdn7x03bpxu84Br0wUvUnCKg9ltzZo1vSorKwO2sbcO2BLq5rNwMIcNG4aRsOhgOgOUTMHB7IEmsuGII0GCkl/WgBNCCHESaNpYdvbZZ5eJPWS7g7lnzx7Yhf1EdDCdgdF6S+zoUlmGvQbc6iv42YKswexinOJgpi1btiyjtrYW7aRtBQ5mVlYWPgzMYcg+mPpj1GA2NTV1r6urw2AAhBC9sb3ZHSGkRYzpJgYPHlyakJBgez86cxRQOJh9jACiO6iYOdS7d2/MqaoTdDC7GCc4mCChsrIy2WwnbSvx8fGodSoTFYnQF5PojVGDuX///u4NDQ069MEkhLQMnUtC9AZOZUlGRsbh2NhYrOObDet3a62BQsWD5O0YZyHDt5doDuzm4ri4uErf5r/fp7lpF2wi28U4xcHUIfIZmB3blYPJGkz9gVPZ/ZtvvkENphYOpsShsGfIhDgEpPNapPWEkIAYNZiSj5V6PB7bazBR8VBQUIA5DDnNhDOA3YxWgFWmLaQLdDC7GN0dTDgEqLbWpuYJ8/fIolyED0SXUbBIy6BZbMq6detSjhw5Ynt8R4IqQr8V9r8kpBVUqbaSGUwIsRfkX7CBynv06GF7H0ykDU899RS6wug0iB9pGTiYiD+Yqk2nwnY6mF2M7g4mhp9GyZRuo3+i7TgdTGeAOJ5cUVGRJBmRFvHd4/Eg3kCsxSSEEOIkUGsJB6EiISFBh4JSFkA5C9g+iD8Y7EcbNmzYkGyuki5CdwcTLxxzG6FkQYcE5Ig4B0hQD4vYB9MZIN646+vr3XZmQrg2hMmF77//fvQ9QOkdazEJIYQ4CeRbyL9qzDEpmlH5nJIZTIgVLR3MvLw8NrHuYnR3MFNFGHpalSzYnmD9v//3/5Cgsg+mc0CccUlmF/a4bjaHPUqSIXtFqAGHk0kHkxBCiJNAs1g4BzVmgTsh7QF2M2xorRzMb7/9ljWYXYzuDiZqLnuKc6DN8MFwEmSBBFaNnkacg+0FFOJcovQONeBwMpk5E0IIcRKwe9B6qy4xMVGXPAx5O2tMnYExiqyo0rSntaCmpgZd8kgX4oQmsj3r6uoSVXMLa22QHZFTElQMh/2/IjiZdDCdgTYZT0JCAhxMlN6hiYjtAyQQoit2p/WEkIDAqTQcTJfLddS3Ga5vVV0nHNciXY6ygZprMK3v0653qsM8+5GG7g4mai4zi4uLPb5Nex06JmbORZf+IH369EHNNxJXNpElhBDiNJBvYbL8Ol2ayJr5O2swnQHsaMQb3eyfmF27dsEu+6UIvgdmICCdwAlNZHuUl5crB9NWxMGkQ0A6BfpgyoJ9MAkhhDgR5FtwMGtjY2MD5mE21UTRwXQOhpMpccSri12NQoqmpib4RGg5mS7itDedxAk1mD2Kiop0cTDZpJF0iu7du6MGEw5mlYgOJiGEECcBOwj5V7Vmg/zobs+So2lMSUlBM2tt7Oq//OUvKKSAc4mucFr4HU5G9w/S09DQ0L2goECLzrfJyckotSOkwyQlJSExxRDvapJhQgghxCkg38JIoPXog2mE6AGbNDqL+lGjRpWJXa3LdH+YWgc+EebezxRx0J9Oon0NZn5+fvddu3Zp8aIHDx4Mp4A4D236ZyQmJioHE4UVrMEkhBDiJOBUoiVOow3NYFuDTRqdRc3UqVOLMzIydKq4gZ0IBzNDRAezk+juYCZs2bIlTZfRna699lo6mKRTxMXFwak0BkgQsQaTEEKII3G73cjDdMnHOAqos4AdVNyvXz/dWgaiD2Z3EQssOonuDmb81q1bU6qqqpBw6FALRQeTdApzUAQ6mIQQQpzMEc2ayNLBdBaGgzlw4MAaDLBjlW93+DGvjcFF0Q+T8amT6O5gxtTV1aFdvd2OpUK3khbiLI7ExcWhiSzmf4KDySayhBBCHAlqMHVpJst5DB0H7OnStLQ03exqDC6aKoo1tkiH0d7BbGxsdFlLNKylHNbwMNE8MSxxBIjfOhVQHDdkyBA4mEhQIdZgEkIIcSIoMEU/zOZRQMNlnwW6RmVlJZs0OgvYQCU9evSoRSGFJgUViE9wMFNEjE+dRHsHM5SJVAegg+kcEG8wzHSyxCGdRpdDraUa5IcOJiGEECfiTU1NrU9ISMCAP7ZTUVHBGkxnYTiYGs7OgMF94GCyBrOT6OpgwiHAS0YJAhwFXZxM9sF0Ds0lUV6vV6eEAqW9xhxiIjaRJeRYjIIXay2FZgWNhBDJy7p161aNuQzNbVuprq6mg+ksEG9KYmNjdXMwjYoJER3MTqKrg4mEopsosb6+/qgmsjYDx4A4ByOhaGxs1CmhOEP0vqhCRAeTkKNhrT4hzqBBnIOKQYMG1WjQvDGmtLSUDqazgGNZai61YeHChbAbWYPZBejuYCYp51KTUuxKc0n0B3EFteCe+vp6TsBMCCGEdB1oGluRnZ3d7CDY2ZeuuLiYfeacBbqcFZlLI86o+GNnPNq7dy/sRtRg0m7sJLo6mHjBRg2mCI6CLjWYqHUizgBxBhlOgtfr1b2vMSGEEOIkGkQVWVlZzQ6CnVRVVbHGyVkg3hSKVNcz2+MQKrFKSkrgf2CqEsanTqKr4Q3HAMMEe1StpZ0lGuD666/HQre24qR1UAIV19DQoFMza0JIEFhLsu1M+wkhAUENZlV6eroxCqish/Ub9U8XxDGgQ+AsVA2mVmOb1NfXGxUTIlZMdBKdHUy0gcZLPsoxsMnYUImnFp3ZSdAgwzEcTN+mvdgQbwkhhJBQYAxYBwdTlrbnbazBdByINyVY6mQb1dXVGXajiA5mJ9H1AaLmCc1jtei0jcg/atQoJKYclMU5qCay8U1NTUwoCCGEkK4DNZg1sbGx9b5NexHHgH3mnEldUlJStcvl0mG6G4z1AnsRcYmt3jqJroY3ShDQBjpOh6aN4mB6RUhEmycUJtqDeIMCCg7yQ4jDYG0/IdoDe6havtWgW3bhu1YygzoMbEOrfdjQ0MAaTGdSO2zYsHKPx4M+vTqAOAXfiA5mJ9HZwWyuwbTbyTQjPgb40aKkjgSNMU1JbW0t4pMOiQWNZkKCQIeCRUJIq8DBRD+6eh0KhMymjcR5lF1wwQUHUlJSEJdsh3lP16Gzg5ksLxoO5lEvGy8/zBHgiDiYcCzLReyD6RwQRwwHkzWYhBBCSJdiDPIjOmbww66qpWwPYhfqas+S1inLyso6cNJJJzU7mDbY+f7g2oxPnUTXB4i+c5ggX4s+mP369YNjWSbiKLLOAQkEBolKrKys1KJkU4dSXkIIIaQLsDqYtudtdDAdC2zr/QMGDNCiBtOEDmYXoLODmVZWVoYaKNvp1asXHMxSER1MZ4F4lFBbW6tDPEeJLvvwEtIG8p00sTCGEO1RXYdq+L2STnBYtC8zMxPTlegSj2AzauF/OBldHUzUXGrjYGZlZSkHU6cSFtI6KIFCzWVcU1OTnU0tmomPj+coxIS0DpxLfieE6A9qMA0HMy4ujg4m6SiwrQt69uyJ2nBdgG+U7FslHUVnBzO9sLAw0eZ22EazRrNkpVCk0wdANEf1I4AQj8TB1GWUNEJ0pTElJaVOvhev9fuBzP2EED3A2BSYx7AS+RsC7P5m77zzTtzTYyJ0j+HYC86gWLTL4/FU+jbtR+IuazC7AG0dzKampm67du3CSLIgLAkWEkmrzODjunfvjppLOpikUyQkJNDBJKR1GgYOHFgj34oOc6IRQloGzhxqn+AYBFWDqey4UNhylvOi5RIdTOeAQoo9ouaCCrtZsmQJ4pHyP0gH0dbBLCoqShMH0+4SBCOyJyUlwcE8JEJNJnEGeHcwUutdLpftiZYknE0DBgzgKMSEtE7N6NGjD8fFxXFKKEL0BgWmcC6NPpi6OAcC7Fo4mbrat+RokNbDtm6QOIRxKmyPRzU1NYg7KKQgnUDXDzDuwIEDKZWVlXjBRkmXnQmYOCgY3AelLHQwnQUczEaPx6NDn64j2dnZdDAJaZ3agQMHHu7bty+/FUL0BvkqbKPyCy64oCgpKUkH+wj2IuxaDPBHB9MZwKlEel+dkpJSK3a+7fZaY2Mj4hEdzE6i6wfo3r9/f2JdXR0SCR1ASR3mwWSpurNAQtWoQ8kq7mH8+PEchZiQ1qlNTU2t6N69O5uTE+IM9k+YMOGzq666aq+5bTewG9G8UYvpyUhQwFYrO+ecc0rMeeftJKa+vh6+kRbTJDoZXR1M18GDB9EPU5c29HBQlIhzQEbjqampaY5HqiY8HE5nOK9FSISAkuOjWq34C/sIIdqA/nPLhg8fvrlXr14lsbGxqIUK+K2G+js2+2DCuexpLokzQHzAAG9GhUAg+Q4LD42NjfCNWIPZSXR1MGPq6upwb4ahYSdmggVHJclcEmeA+JMm6nHo0CFdSqIYfwhpnYTDhw+nHThwgKXHhDiDnaJ3RKtmzZr1XZ8+fTB1iZ2kiwaIkP8TZwA721NQUOAxaw9tRfwPZfeTTqCjg4kX6zJfsC4gwTpR1MPYIv7gXaE5CgZlShGlmsJ6MOD/UcvYVe8c8xf1Fp2Qn59/wvbt222fz+jIkSOu2tpaxKP3RZeLskVswkO6Cnw7OqWZ7aWbaIgo58svv+yFKaqMUPtZL/qb6BIR0hRCyNGg60eR6AvRv2677bY1Z5xxxj5rTWZHa6Ha+f8qDcR3eqZokIjoTx/RcFHfzZs3p+jQcpEOZtegm4OJl4rIpdt9ZYpGiWhgBAbvDDUOcChhKMIRzzCXwYD33pWjvuEeBoqG/8///M/Q8vLyYB3dkIFEU5zd7rKaIzpVNFjU1U0wdCwwIuEB797J7z9LBKNw2NKlS4+vqqrSZZJr1ITgvpD+49slhARmtehZ0UdXX331jh49etg1rdvxovNEcFqI/qAg4NzCwsKBYqulia1ke8F7Q0MDbFK2oukkmDfIXNUC5Whc9+STT/7Xzp07M1DzY+wxMZushoSWSsiysrJKLrvssv1DhgzJlc1NIiScapRDlHKg5g6RUTlJuEfrfbZ1z519CSF7JkECBxPCs8AzUL8fvwuDdaDTNkYKa2l0MGUcY786xvpMWns+2Gf9P5wHjlzW+vXrz3jxxRdR8wyOeUahjEsgQHw6InHp8K9+9astHo9nm2zvEGEKHByH54bnp56lldbu038f/hdhrT3vzmK9Zmvvpivx/52hvm6gZx6u39pecK/qfnGPdt9nMNdX94n7xjeLQrzsNWvWDH3llVfUN3sUof5egf8363a76/r371/+85//fEtsbOx3ErRfhG9WPXOV3vsT8nvVAPWsWnrf/s/AejzyBQjzKGKidQwQc0CE/nzEuaDQFIUxp4nOEqfhlP/+7/8+qbq6Gl2MQHOcCOZ79v8eA/2P/zFJSUlVgwcPrrj++uu/kX3IZxG/lLOL/1ffLIT/VQJYqmOsxwG1JIE56j20gHqG6jmDAeLQDZR0f0hubm4vM+wYQpX+B7DTYPMXz5o1a7GsXucLIR1BNwcTH7RyMB+x28FU11LhiYmJNRkZGVWTJ08u6tu3b4XX640pKyvzbNq0KX3r1q1JlZWVGPnWbd6z8b+W+23tvrviJTSfv6VnFOhD8sf/N7dFS9dSBHseP4z/sfzvUdt+93gkISHBK8Yf5lCKaWxsRFPUeHk3bZY+tXXvXYnltxggLg0ZMqQ8LS2tITk52bt//35Pfn6+RxLaeIlDhpPud39H3Wsw9+5/zY7SwrUQ1nz+rrqWlQDXVdudulage23lebZ4zfacJ5jnE8w77Qz+9xDs9dr5bo1j2/gf1dwNikGJteVejrmnUD+X1rDcJ6ar8no8njpJa5qQ9qNVgvmtAuMe/e414H239Xusz649v721Z97aedp4Vy1h/I96PuocAa5j3VZNHZsk3asdNGhQ9cUXX7w7JSUFjvs60dei5TiQOB4MsjNedMGqVaumvPfee71ramoSzfgRMC62J663hiU+G3EtNTW1Wr5bY1TqRrEPRG4sZRPXM+Ikvmm5PpZH5Nt2ST7srq+vd5vNNa15cZfcY0cJ9hlZnkGXPVd/rNcw8d8OhPHMfavte65h/B1GpZI4mEiLrvSFkI6gm4OJjxmOwY+feOKJPxQUFPSQ+9PGwRQDoxFC5pienm4kWFVVVW6R4RRYDCV/5yCctHXd1l64//+2FTmC/Y3BXPOoYwJ99C3QbLRYnr0L8u1umXC+I//fI9tecTLrcN9ut/uIZGixLWRogWjPfQf7HFsinNeyEup3Y73XzlyrPedp7fmE+vcq1D2093pBv1v/uG4F8dqyH0sV11u8n3B+p/5Y7xXrIrQMUBhpjbke7H0G+1uMZ+NbbReBnn0w5wn0f61ieTYtYn0m1mcJZz0hIaFh8ODBlaNGjSobOXLkXtmP/q53+g4hDgetutClCF1BRorGPfDAAxdUVlZ6JI8L2Letq75za7yU9SaRF/EN2+Y1AqU5xvdtrPgd01X31QW09z7we0J9722mAUHS5n2G6j1Y44tCHMxScTA/ldXLfCGkI+DjMVe1AMY1Bne4VhzMh8LtYLZEoAjYEholRo6kpWcdzHMN5j3p8n5au1fGIaIbbX1biLMd+f6c8M0Gc4+KaPl2rc+kI7/Z+v+yjhrNytmzZ6MGc4IvlEQIGOwPjuZFtbW1V7/zzjv9V69e3VvijKpBbKYrvx0npCvRTrDpaqjfU6D7kPSo7He/+93nsvpDXwjpCG3W8oQZ3A+aHMHRJIQQQkgEA2ejoqICBcsYnI1EFuivvE/0scfj+fP06dNXJSUl1aAlmLGXEA0RpxNOLQf56SS6OZh4qWqgmKNAKYZdJU7q2laZu5ppKZy0D+sztsrc3W5aOg9KrZTMoLDif19WmYcQog2B4qlVwRwDGSdrg5b+x65v1v9+WpP5LxFPZ3+z//+je4ks0KySRBZwJDHADvrZrhB9MmfOnM8uvPDC/XAy5VtuHoiuK79va/xqSeahJMz4v+NA78Yq87CwYl43YFNuEjw61mAGdDAJIYQQQojjQE3mIdFS0TNTpkzZiAGzxNEI1UjnhHQYDOImCzqYnURHB9OY7qO+vl7rEiYdSlnI0fi/E74XQpwFv9noxKzRsA6gRCILOJIYGLFAhL627z/44IMfXHjhhftcLhfCbWlJREggzHyIDmYn0bmJLA0NQgghJDqggxn5oLnsbtEbov+bMmXKDjWaOnYSogl0MLsAnZvI0sEkIYO1nITYj/U7bOtbDPY44ljoYEYHeM9los2iZ+fMmfPK+PHj97nd7jrZNmoyVT89JYSRyMCajuuQlge6F3OdXfU6ic41mOolGzChIYQQQpxPC84Da7GiA7zzWlG+6BXRa1OnTt162mmnFWO+SokTjAfEFpSj2dDQQAezC9CxBhMvNbaxsbHZuSSEEEJIREPHIjrZInri6quvfmPcuHH7U1NT0YyWENtgDWbXoGMNJl6qmw4mIYQQEjWwhVJ0gnkyP4CmTp26asaMGfnJycmV1rkyrTXefrXehIQCOphdgK4OJl8sIYQQQkh0sFY0Lycn570bb7zxu8zMzHJfMCHhBTWYXq/XbW6SDqKrg+mKEYwQQgghhEQMqq+T2RTtqPEWSNRSKIKT+bE4mUvuuOOODaeffvr+2NhY9NdErSVrLklIsdaQS5pEB7OT6Ohg4qXqdl+EEEIIISS0rBL93e12v3/ttdduPPHEE1mTScKOOJj0QzqJjg4m7okvlhBCCIkC2K+OWKgQ7RKtFL138803r7jpppu+jY2NPWoaEyyBqnVSMoMJ6RSNjY2swewkOjqYSoQQQgiJDugcEAWaxX4h+pforeHDh6/t0aNHFR1IEiZi6uvrWdHVSXR8gHQwCSGEkOiBjgPxB9PWlIrQL3PJrFmz3v7Vr361UZxMhLPGkoQUl8tFP6ST6OpgEkIIISQCUc6Bn4NAZ4H4gzkxvxF9Inq3X79+a3v27FmamJioBv45BjqdpCtoaGigL9JJWAVMCCGEENswnQI6BqQlikWoyfxg1qxZL//yl7/cwjhDiN44xsG0DmlOCCEktKgaJqvMXVFDoGfQUZmnjFii7feSsIKazJ2ir0TvZmVlfTVt2rSdaWlplbJ9jKPJOEg6S1xcHONPJ9HNwcQLNdrXG1uEEEIIiWjMwmO2qCJtgbky14veGzdu3BszZszYSUeShILU1FT4IqQT6Jig46Ue82J1KJFS92CVuYuEiEDP3F/moY4g0P23JfNfO02gc4dT5m10GaE8txOxPo+ukHnaowh0XEdknu6Y85nBEYn/b400mT+zmUBhbUAHk7RFjeiQaIPoo5ycnM9vvfXWb9qqyWxN5qHt+j7NfzFobV+04P8MlMzdTuRIfX2911wnHUTHGky8VJYcEEIIIdEBazBJe9gnWiN6e9CgQR9Mnjy50OEODdGM+Ph4+iGdRLcEHS+0QdR4RDBCCCGEEBLpcGJzEiywE8tEGGH207Fjxy6+++671yUlJaGGk7Yj6RRmYUWjb4t0FB0dzDoREg9CCCGERDhmH0w6mKQ9wE7EwD+fi17LzMz8qH///pWsySRdAOIQm8h2El0dzPrY2FjtEglkgv4yd5EQEeiZ+8s81BEEuv+2ZP5rpwl07nDKvI0uI5TndiLW56G7zFs+5p7NYG3wvz+qfTIfY7DQwSQdASPM7hB9dPPNNz87d+7cT8V+rHW5XK3WQPnHUWu8bUvmvxi0ti9a8H8GSuZux8EazK5B2xpMnRxMRLaWZB5CNELn92O9Nx3vj5Bw4v89WGUeQiKQFoxQ9sEkHQE2Y4FotehVt9u9/Oqrr96TmZlZDidT0hL2pdMYu9P8Vq7PGsxOoqODWS9iE1lCCCEkeojK2h/SZVSL9oo+OPXUUx+eNWvW8iFDhpSIwwmbkpCgMefAZA1mJ9HZwbS9BDuYUpVgjiEdRz1fq8xdzbS2v7V94aK167e2jxA7CSZuWo9pS+a/GAQK8yeYY0KFunZrMg+NKgI9ByXzkKMIdJy/zEMBHUzSGWA7HhZhCpOFog9vvvnmry655JJ9aDIrca25JhM159Y4CJm7SIjwf95K5m6DQGF2YN4DHcxOQgeTEEIIIYREArAfUZv5vujP48aNWzV27Ngi1mSSdgD/gy0pO4muDmZjfHy8bSUZupSikK4nnO+2vdcK570R4hTC+V2051rqWKvMXaSdmM+ONQakK1BxaY/oK9HSadOmffzjH/94V3JyMkaZbeK3qjd2p6dMj7oGHR1MlBrwxRJCCCGRD4xJDKiBwVoI6UrKRW+Jnh85cuT6SZMmHTLjGiEt4na74WCyBrOT6OZgqpfaaHaybSbAiHN2gcwQJWDNsoQZpS7+8v3bvwl0TCCZh0cVwTyDAMf4y9FYflfQWJ9HMDL/rdMEOnewCvb/jQu1QqD/UTIP0YZw35v1ep25pv95lMzdQdHR/9MQ3L+/DKy/Mdy/NRzXVPlwIJmHtPc+jogx1zB16lTUNm3xBZEWiBOlitJFKaJ4EWkd2Gfol7lVtGj8+PFv33///etOP/30/bJ9VPy0xlt/mYdEDYGeQSdl2MkWaQ3uWRZsUt1JdHQwUXvZmJCQoHMkND4YP1k/IhI68Hz9RQjRn0DfrhKJQpBvejye+nHjxm2TzfW+UBIA2GoJoh6iDFF3kUdEggMO5T9EL6Wlpa249NJLdyHuyTbTnq7BmpYfJYt9bJXWtvIRQRaswewkKHk0V7XiumeeeWb+t99+myn3ZzjB1hLSUIMPwFw1+OUvf1k9YMCASln9WrRRVCrC5L5A3ZdaonSxmyhNlCRCuIqs6qNCGBQrwuTS+I0qTF3beg9qH45Tx1r/B8LxEK6hhKYgSup86hxKuL71PMC6ro6zHgOpa2GprmEUDli21TWB/3mA9V7xf+p8CnWs+j8r1v+D8HxRwpso6iPqO3fu3L6FhYXIkI8hHPHJPx5df/31x40ePbpWVgtF34rWispEKClT995f1FuEeAQDAuHqWRu1+yL1fCH1zNTzUNvq2mpdyXoMUM/XKvXcgfV/1HOGcM/W66vzID5ZJ0xX17UeC6zH4zvA77R+C+q66pq4HpY4jzqH9X8hlOirb0r9BnXvSipcHaeuCQGcG9fE9TBQBN4XpJ67uibeDYR3BsMP11fnwTnU/UNW1DEQ7gNYfyuu639NHIfj1W8M9DuBuq4Vtc//GFwP58Y1IDRPVM9YXVfdu/UZQ+q6QP1GHK/uFVLH4X/V71XH1Yjw+3BNHIt0sq+o/5NPPtknPz+/p6wfgx3f7KOPPormUngmB0SYzP1LEb5f63FZItwz0hrULKnnY33Oaqmet3rOkHon6nnh2WFpfXb+WK+vnrlVwHp99Q0FilvW94t13AeuiX3q3nAetQ7UMWqpwHG4FqTeM66D/8P58b3gGan4USEqFuWKNovWiIgvPiEfyBEdL8oUIU9IFuF545nCBkH+sVu0U5QngiNFWqaXaIgIz3WAKFuE54w0COkqnq31W1XfKbb9hePwjeB/1Pdq/X6UAqG+UfX/WCoB/+8O17NuKyms/x/oPP5SWI9VWI/D9ZRwDyrNsko9C3Vv1ntQvx/PEek9vnesYx+eFZ756aKRDzzwQM/y8nLU0DdjR5oPevTocfjee+/9VFan+UJIR6CDaSFQRAOPPfbYQVnsEv1L9CjCWgEJGBwcJFpwNHH/+ADxceFjxEeIMCRC+LhURqsSGdyDVQiDsF/9n38Cpv5PJQLWhEAlkNgH1DkCJYbqWtZrWq+nwoD1ergGpAxULNU11W9Q54Gwrf7fep/q3rEfqPtSUuFA/UZcC88WhgwMfmTCJ4uGi8646667hjQ1NcWqeKSwIz6Jg3lEHEwYUyipXyp6XQTDFfcOJwX3Plp0kgjxCIUUCMd58FvxOyH1fCH1zJTwTNVzt0q9K/XMsQR4DioeWKXA/+L/1LNWBiqMRxW3gDqPErYhdV2rcE51POI/3ht+J74HXBvvSt2nerfKWMU11b3jf/E/ytGDsI7zqvetzqOujetin/r2rPesnhWuCecSxhv68CBTVM8cx+FeYSSr5mow+tR1cf/qeeN4LLENcG3rM/a/R/VbcT1cF9fE78Vx6rowhJQxhPvHPkjdu3o2QL0DSGG9N0h9PzBWlUONbetzxnXx+5RwL/73bo0L+G3qfapnjDA8fxynfh8K7RCOdBLf7GkFBQVj/vjHP56C71WHb1bSfvwm3Oc60Ueih0X+DBKdIOonQu0SfjPu1fqc1TOC1HvGEs8fx0F4XupZ+z87/3dovU88J+xXcUEdi3OqZ47r4f3i2eP3qHeMc+M6/u8XUuAc6lwK/J86Duu4Lu4Jv1P9PvWO8RuxD98n0jQ8I1wH131ORHzPz/r+B4uGisaI0T1y4cKFAzZt2tQdeZmEGSQmJtYOHjy4YsaMGSj4xmA2MIiXYR9pEzxjpNsjRHA4kQYhXUVcVt+MiseIvyotVt+x+qbVN6fSO//vFgL4JtU3q75P9c2q7wdS4FiVLuB+cC21jqXar7B+/5C6hvU8SlZwnBLA8UrqeHV99UxUuuX/XHAs/g/4/yb8D/KYIhGeKVBx/UeiixcvXnzakiVLUMAelrReEcjuz8rKKsE8qrJ6pS+EdAQ6mBZacTBRao0hr1eK2krA8cEgoUJmisQGWD9WrKsPGh8hluojxLr1HtSxQP2PVUAtAY5XUtdS11VY/18lROocgZb++9U6zq2W6hqQNQFUxwDruaznUMe29D9qqdYV6lh1PSzxPJG4w+iHg3/lqlWrJr7//vu9qqqq4BA0Y0N8OnLzzTc3nnzyyd/I+tOiFSIUWsBxwr3jXSC+oBYERhjiD36LyqDwG9XvVOs4P5ZAbatrHnVtUwBLdSxQz1ZJxQmF+l9IXRuZiVpX5wHqf1V8Bmq///0BHKfknyGpY3Edq9R5rPdrzczVeQD241j/a6v/U7Les/WaKvOEcA5I/Q/ejZLVyFbXBDgeWK/rL6DuTV1XXRPr6n9xbvX7cD11H+o86ji1VKhrWFHXU78J18E7tb5XSJ1LXVcp0L2r/wHYh+PUPar7VMep3wchHPEe3ywcj+vmzp17ZUlJSXJjYyPS0mbsyAMk7YdBhNqhl0UwODDHnj8oaICQ7uOe8XuB9dlYn5F6z2pdXRP/p56x9bmp81mx3qd6Llhan5H1+uqa/nFLnV9dF/K/pjoPpFDXUvcIqWP8r4XrA5wb3wsMSxWH0TSW+OI/CipOEaFGJ7u2trYXbKAVK1Z0P3DgQIpsJ1i/AZfL5U1ISGgYPXp0ydixYw9lZ2fvlWD0NYSzidpgtJLBeyDHgriIOIimxshvkQapuA/8v9NAQlxXcV99Q1havwkloL4ftQ38j/E/Fkt1LSVgXQfW/1fripb+R9HW8Uq4D/U8/J+L9bhA94JjkBbA0VRxUj0z1CSPbGpq+sWdd975PewIR1qvaMHBLBYH8wNZvd4XQjoCHUwLrTiYi2Tx3yI0QUEiTvQHpZM3eb3ey/7yl78M9292F+74JOtN999//+H09HQ0dSKEBOZXa9as+cV7772XVVZWBsOvGTvyAEn7jfyHkBABhxtNrFEDfppo7Kuvvjpu8+bN3aqrq1HICIx47x///fMXcTgbrrvuup0jR45EQfgXIjiaaHpMiO6gqfL822+/HTWGRw0aFmr803yQk5NzaObMmRh9+GZfCOkIzDyDA30uUTKI0mziDFBihsmVCwYPHoxaQluRzL9RnEv2jyGkdarley3p0aMHSroJiXRQiDJR9JPS0tJr4VyuX7++R01NDWp5QVCGthjkrqamprjXX389e9GiRZO9Xu+PJfhnvr2EOAIUkqAVTcCKnnBiDjLKPKiTOMbBRClDoJKGUGOWYN8k2idSbceJ/iCuoM9RZXJyMhItW0EJc21tLfokEUJapkkyd29aWhoKiAiJVOA4nig6XzRhy5YtYx9//PFhX331VZ/GxkaPOIzNzTVRmxOoRkeFq32ydKEryKeffnr8/PnzT8nLyztPgp8SoY8b+hoeNYAKIRphu1NpRfIg5D90MDsJazBJJINEotGcNNdWMK+rCH36CCEtE1teXp5QXFwMA5uQSAX9/8aLfrJy5crznn/++RNqamrQJDaoGss2iDl06FD6s88+O+jVV1+dWlpaepeETRBh4DhCdATxHoUl8Em64hvoFLGxsbAZWaHUSbR1MM0qatsdg9tvvx1Oyt9FGDRGNVshzgAd9z2NjY2I57bGp4aGhhiRGvSJEBKYpG+++aYHnExzm5BIA1NkTBadI87l8CVLlmR5vd54GNeojfSX8R9t4H+srLvlnAnr1q3L/Nvf/oaa0imi6cZOQvSmeb5MczvsxMfHswazC9C5BjPskUsl0v6JtQBjB6ONqU73RH/w/owRfaurq22vDUF8OnToEEaZJIS0TPLy5cszKysrjxpBlpAIYpjoqi1btpyzcOHCgVVVVRiQLiS1NnBcCwsLu915551TxJn9DzOYEB0JyTfQEcwaTDqYnURXB7MpLS2tEf3WzG27wRxJmCsp4KT9REuQWKFAILW4uBgj9dmKOJiub775BoUUhJCWcdfW1sbhezG3CYkU0AcSo8Wif+Rpb731VpZZkB1qwxoF5q5PPvmkh3xbGGF2vuj7ooHYSYjNYAo5jK6PQkUdnMwjU6dOZQ1mF6Ctg5mRkdGAeZ7MbVupq6vDHFXIGOhgOgckVBgsIamkpAT9XcKRkbcIMvjVq1cjHhFCWgajYcbSwSQRCAqqUXs5/G9/+9vJhYWFsCe6NE+Cw+ovM9wl+WD6fffdd7Y4txdJEPpk4l4IsRs1b7kOLQRVy0k6mF2Atg5menp6fXx8vBYOZllZGSI+PoCjJusn2oN+KLHo/2hu20lMdXU1+5UR0jo6fKuEhIK+ogliTwxWjl+YMRzOf/7zn33z8/PhZP7QF0yIrWCO8hNqa2u1GeXY7P9JB7OT6OpgelNTU+tjY2Ntn14CmH3nMBky+koQ52B0FMcIrua2bSBjF2fX9qa6hDgAOpkkEsmUPOC0d999t5+sI463Gs/VQCf+MncHDfIei0Mbg5rMp556aviePXvOke0/iS4TYYRZjjFB7AA1+f3379+fbFPBSyBQg8lRZDuJtg5mt27daj0ejy4OJtqGo404E2Bn0ehyuRrMEYl1gIYzIYREJ8lffvllv9zcXLv74hsO5/PPP5/z8ccfXyLbGGF2rIjTmBA7SBNlHT58WAv72izEgYNZYwSQDqOtg5mSklLXp08fLRzMffv2cRRZ52E0cZDEojo5Obm5qbVfaS4hhBASSpDfYIqqxG3btqU0NjYmqHzIX8bRIcLvGjFlZWWp77zzTv/CwsIxsg0n8yxjDyHhBS0Du0s8hJ2N+KmDfQb7scG3SjqKtg5mbGxsXVJSkhYO5p49exDx0RGZQ+c7ByQQKIGqFAdTi3hECCEk6sA0WSic9pSXl+tkcxkO52OPPTZswYIFU2WbfTKJHWAwRi1G+7cA+xEinUBbBzMmJqamV69e9bJu+4uuqqqK93q9cDA5SItzQJypFB3OyspS8YgQQggJJxjDYYCoj9gSakRz2/CvyUSN6saNGzPy8vJOle2XRT8XoVaTY06QcBCPuWDN0f5JBKGrg4kap+q0tDQtqqhra2vj0ZxEVulgOge0oa8QlXbr1g0OJiGEEBJu4GBimrNssSU6bET7OYadxnK+GEwN9PTTTw+bO3fuFAn7kYR9T8RptUg4SMBAmmbhiw6oSi1WSnQSXR1MOJYV4mBqMUywJL7u//qv/0LzWJawOAckDoaD6fF42JaeEEKIHaBgGlMxdG9sbNTV5jIc15KSksQlS5YMllXMk3k9wggJMZ69e/emdqbwpSsx59+HzUgHs5PomtihxqkCI8n6Nv9NR4fq7gxHjhxxeb1edNJHXwriDBBHjCayycnJdDAJIYTYAfqW9RA7Ig22hC9IH8xaTGA0l126dOnxTzzxxBnl5eXTzHBCQklCbm5uSnV1dXMfTMRJS7wMKwkJCWhBCR8EreBIJ9DZwTycmprKYYJJR1EOZllaWpoOTWRtSSwJIYTYCgqmPXDeGhoadM8HDMP+wIEDKQsWLECzXkJCTfzBgweT0Ezb3LaVO+64AxVbVSIODtlJdHUw0TS2NDY2tibctZUtgExBiTgDlD5Vi8okHjXoEI/sKpEjhBBiG0j347xeb2x7ambUse35n47idw2jJjM/Pz9TnMx95eXlqyTsTtFJxl5CupZYjHMi8c8VjrjeGrATU1JSYDeWi9jyrZPo7GAWi1CKoBNsIusc4FAioahwu90siSKEEGIHMJhtM5o7iHG/mzZt6v7f//3fJ4nRj3kyr0MYIV2M8X3Y6VhaOCL2Ilq+wf/g4JCdRFcHE01jD4nwonWowVRw2G5ngQQChRVsS08IIcQOYMMgD9LJlgmIXw1SDMaeKCkpSf/HP/5xckNDw/lmOCFdiibOpQJ+R6lIi0FGnYyuDibaQCsH06i2xlIDuplL4gyQqWNOVV3iT0xRUdGXsrxAhJEFdUpUCSGEdD3IfxrdbjdGp3QaRh61du3ano888shII4SQrgVxTAtbyLQV4XeUiFiD2Ul0dzAr5IXrVPuEuTCJs0CCoYuDeVxdXR2aWaeJUkS6fn+EEEK6BsPBxPQHGhV2top/TSYGYKmoqEhCn8yGhoZPJOwe0XhjLyEdA3bQAHMJdClwR9e8wyL2wewkOjeRLRJVmgmyLokynAJCOkxtbS2G4sYE1iisoINJCCGRDQrJG8TBdNxYABZHE06mOzc3t9cf/vCH0QUFBVdI2PeNgwjpGGgRiIGjMIWPLs4lfA1jcEgRazA7ia4GrlHiJ0KJX5MupX5er5cOJukU9fX1qMFEPEoS0cEk5Fh0KVAkpCsw7BmxY7xxcXFOjtuGE1BVVZXw5ptvZos9NNYIJaRjdBedKM4lljqBCi40k+XgkJ1EZwcT/RW88fHxWGqRKJeWltLBJJ3C4mBiwCg6mIQcDZ1LEmk02zPGlgOxNpfFwD/5+fk958+fP3LPnj3rJez3ohwRuxCR9oCWXIMOHTqEpRY1mGZlFrro0cHsAnQ3cL0ejwdzGGrRD3Pfvn1MQJ0JEg0tDNeKigpMJswmsoQQEh0g7zFaZBlbEUJxcXHyyy+/3L+2tnaSbP5GdJaxg5DggA3Ur6CgQPXB1AU6mF2E7gZu3ZgxY8qTk5PRFtp2B+Gbb76hg0k6hWTK7INJCCHRA2wXOJfadPfpCKo/phJqMgsLC7s/+uijw1esWPEDOWSi6ExRLxFa6ujSr47oSUp5eXm/jRs3NtvV+D5s/EaO3HLLLbg2+mCWizjITyfR3cCtPPvssw/k5OTghdvOt99+SwfToeiSsVdVVVlrMJEJE0IIiVyUgxlRNZgKjC67ePHi3rm5uZfJ5m9FcDIxDRcLUElrpC5ZsuT47du3a9P1zO1241tVo8hykJ9OonsCUJaenr572LBhmK7EcBBU6ZmxN8ygc7u5SpyFmuTadiezpKQEDiaahLAGkxDNsNbQ2JXPkIgD+Q7yIJ2mXOs06hvBFCY1NTWJL7300sAFCxagmSxqMy8S9cdxhLRA/ObNm9Mk7mhjV+fk5OBbxSA/FSLWYHYS3Q3cUtF3/fv3x5DBtoOE1FwlzsHI3GM06cdbVVWl5sHkID+EEBL5IA8ymsia6xGJ1+uN27hxY8bcuXOvEMfzPyVopG8PIQFxo9JG4opOLblglz0uQhNZ9sHsJLobuCWi7T179tTCwWSJtiNBhl6PfrzhbiarSnit8aa2thaJaaIpxidCNAJphFVmMCGdBXEp0uOTUZuJUUHfeOMNzG843RdMSEBgG7l0saudOE+t7jjBwdwmGT3aQ2vBE088USiLG0TsxO4MUGpc5/F44GDqUIuJbw7OpcdcJ4QQErko5zIiHUz/glRZulevXt3nrrvuukI23xZhvkxMqk97iSgQF5rjgzUOqXgUbjBjhblKugjdDVw4lrtEaA+tRQJtzmOIiWGzRPEII1qDpkmVZ511Fvrx2u5gNjY2unJzcxFv0NyaGS4hhJCIAk5CU1OTe8WKFcNk85eiH4n6Yh+JetDnMkOUYpczGYj+/ftjahLShejuYGI0p4MiLUaRFWJqa2vxzDAKaKaIg/7oDxzMin79+lXGx8d7NWj6FlNeXo6pSiBCCCGRT0TWXrYCaqLcixYtGnDnnXdeLts/FI029pBoRzmYGOjwqJpMGzly8803oyKLdCFsotdOxDnBx4BhlTFQCwf90R+0qy/Pzs6ucLlctg8TX19f7zLnwmQNJiGERAdatMAKN2aTR/fixYtPk+VtZjCJbtA9qKdIt2n/6GB2MU5xMFHrpMUooGjiKAuMNIVaTNZC6Y9Rg+nxeCrcbrftDqZksq5Dhw6hiSxEB5MQQkhEYDqU1r50WLqWLl16/F133XWebL8uulF0mgj9Mkn0QQczSnCKg+lF7ZMOTiYSS1nAwWQNpjMwHExInEwtHMx9+/ZhkB80E6GDSQghkU/U1V5aQb6HPpnPPPPMuNLS0p9L0ETRIGMniTZg+6CLWapZCKELdDC7GKc4mLX9+vVDE8dG9J+DzPCwY34QqL1EG3IO8qM/cCoxp1FFcnKyFg5mVVUVazAJISS6iNYmsiqfi9m6dWvPxx9/HAP/fE80yQgl0YZRg9nU1IRKGoNw2vXqWtZrmkvYiaQLcYKDiRdfee655x7GXIa+IPtAH7qGhgY07eAgP87A6IMJ9ejRA+u2ZvLIbCVhZR9MQgiJHmzNdzQiprq6Oum+++47f8+ePVeZYSS6MBzMkpISXZrIqm+TDmYX4xQHs3zo0KGH0tLS6nxB9iEOgjsvLw/tx7NF+FCI3sCpxHQ3h5OSkpprMP1LsMKJWaJL55IQQqKDqE7vVU2myvtqamoSX3755X6yvUS2fycaJ+ojIpEP7OZee/bsQUtAnb4LzFpBuhCnOJhlHo+nqF+/fmF1MK2JokWud955Bw7m8SL0pSN6AwezVHS4W7duWLcb5VxCTmmiTkjY8U97zWBCiINR33NhYWGPO+64Y6IsL5Hgc0U5xgEk0vE0NTX1WrNmDRxMLfjpT38KP6PGt0W6CsfUYIqKevfuDQcz7DVOVpAwlpSUYJAfVO9zkB/9aRAdgtLT07GuC2he3d23SgghJIJRhYrEj9dee61fbW0tnMzv+0JIhJNQUFDQY/fu3bCjbQcDiA4dOhS+hU72YUTgJAfzUFZWVq0RYi8xjY2NcA7wcXCQH/1RTWTL4uPjbR/kx4IaSY0QQkhkQwczMDH5+fmZ995779iGhobzZXuWaLyIBfiRS9zOnTvT0EwaG6pGGzL2hpmEhAQ4lhhB1vYxXiINpziYaOJ4sFu3bjo4mACJoluWWpTAkDbB9DZNLpfLlj6Xgairq0uSBfucEEJIZAPDGbYWHczAGM/l6aefPmnPnj1XyypGlx0lwkj9JPKI8Xq92nR7SE1NRdPYgyIO8tPFOMnB3Jeenl6ji4NQXV2NkUBZA+UMEGeOuN1u2+KOtZQOKisrQ+ldb99eQogO+H+nZjAhXQHjkwW/b8yoyfzjH/84sqmpCf0xMY3JycYeEknA58BMDHjvWnwPJ510UrUsDojoYHYxTnAwUftUJCpISEhARNCCkpISNHHEQD+EtJvi4mI6mIQQEh3QuWwb4xnNmzdvtDib02V1ArZJxAB/A93K4qqrq7XxPXJycuBX7BOVGQGky3CCgwlQhY3SheZOuNZpJvxlHhJS9uzZg6GWMVUJcQaowURhxTHxI5zxRlFUVIT4k+XbIoTogDUfCXeaQEg04l+TWVhY2O3555/PkTD0xZwjQpPZ/iK0GiPOBZUysJn7VFVVadO/dtSoUXAw94tYg9nFOMXBhGOJUZ7gIGiBOJjqYyHO4IjL5WoSo1GLOFRQUMBBfgghJDrQpkmgA4iprq5Ouvvuu8/ZvHkzajKniEaIkGcS54IxS04S5Zj2sy7QwQwRTnEwAUqTveIgYCRQ20qWVWlbVVVVvHwkdDCdQ33//v1LMzMzK2U97PHHWisC7dq1CwksBzEghBAS9VhrMmXpamxsTFi4cGHv8vJy9Mm8SDQZ+4hjUa3+etfV1cVa37fNsIlsiHCag9ng8XgaYKD7guyjpqYm4YMPPuAooM6h3u12F5122mnlOsSfqqoqOJg9fFuEEEIiFK1qLq0Fnf4yD7EVi9OBOcfT58yZc8b69etRi/lDXzBxKLB5+jQ0NGSJdGgii/gO0cEMEU5yMNFM9uCUKVMOiKNg+3w1kgi6dZkolgQFprg5ePLJJ2NOTNsz0tra2jgR5voihBAS2cBpUiLBY9Ryvffeez23bNlythlGnAkG+Mnavn17Zl1dHab5sx2zUAVjvBwSoXUb6UKc5mDuO+usswqSkpLQH9NWJNFz1dTUoMqfOAMkIgf69u1bKolK2PthIpO0qqmpKfbgwYMsoCCkBaw1K6YhQIhTga1lq3PppO/IL790lZSUdHv22WdPXrRo0S6v1/uRHPIzUT/jYOIUjKn9vvrqq+7yTsPqYAbKR2S9af78+ahJvUa0Q6TLPPsRg5McTDiVu+Li4nbm5OToEhFYGukcEGf2u93uEh0yWWSaTz75JEfFI4SQyAZ2AgxqLWptHEzMmjVrMp577rmhsn65CE4mcQ5w5tK3bduW2tTUZPu34PF4bG8JGek4ycGEg4BShm39+/dHbRScBNsdBa/Xu1wWl4gwJyYdTn1BO/u9omKRDnEHJbM0OAjRCLPGpFlmMCGdQTmYtthb/jU3raGObc//hAP1PWJ02a1bt2Y98cQTpxYVFWHQn1miM0XdRU6yZ6MRt9jLntraWvTFtD1tTUxMtL0lZKTjNAfzW9GWvn37wlmwHSR4xcXF6Ed3gqiXiAaJviDO7BEVxsfHazPdDSGEkIim2cFkoUXXsG/fvvSnnnpq8J49e66WzRmigSJt5lYkgVEFBeamreTk5KCiioQQJzmYmJ4E89SUJyYmajGSLNi/fz8czBNFvUXMPPQFBRSFojKJO0c5mDoleoQQH+q75PdJHA7iLpwfxzlAutZkNjU1xVVUVKQ+88wzgwoKCsbKrktFmM6E6Af8DNQwZ1ZXVzfXXtodt8yWkCSEOK1JARwDr8vl0iXBi9m8ebNyMDFlCZto6Ava26N5bIUuGSaNZkIIiXhgF8C5dDc0NDDN7yIk/3RVVVUl//Wvfz1p8eLFN0rQj3x7iGYg7qMCpn9xcXGiEXGrhK8AAPLwSURBVCKvz1zaRlZWli5juUQsTnSIjsTFxXnFSdCimeP27dsxEmiOiE1k9QeJWpPb7daqVJYQQkjEYtRgikOkVZ/7xx57rCE5ObkyMTGxBlO/SZ6IVmKOwFI4G4M5yVeuXJlZVFSEvphzRReJUFPGMQ70AA4mRvwddODAgWRNCtaPDBkyhDWYIcaRDqbH42nUJTEsLy9PnjVrVn9Z7SliguYA6FwSQggJEzCo3TqMnGmC/A+qmTNnzqExY8YU9+/fv0wczVrTrjomf9Qxz4SjYsqNwX8effTRkQ8//PDNsmuKCPaYqi0j9oLR8g0Hc9u2baiQwfegg5PJGswQ40QHsz4tLa20T58+WjR1lMTN5fV68QElidKNQKIz8sqOqAyWEKIXOhgehHQlysHUZpAf03baLvrntGnT/j5z5synH3zwwZXjxo3bD0fTOMhhYG7psrKyxMLCwnGy+VvROcYOYjeowcwuKCgYmJ+fr4XTb8b/Rt8WCRWOdDBFh8aPH39Yljo4CUYJmixTRGgmS/QGNeBNmpTI0pgm5Fj4XZBIwwUH01wPG4HyOQlrcrlcDbKaL1oiWiT6l+gjcTY3jB49GnNFB6zJ1BE47aZQ2J8wf/78EQ8//DBGlz3fdwSxGdjHWcuWLetbVVXl8QXZixm/8Q2QEOJEB9OYz3DEiBGFkkjq1Gegm+hk3yrRGG+fPn3qzASGEEIICSUoMNGm0ETspsaMjIxKWT0g2ibaaWqh6IXLL788LykpqQaOqGw7DowwW1ZWlpSfn3+xbD4vwnyZGIyRXZjsAX5G0rZt21JRy+wLsg/Ea4/HA+cSlVUkhDjRwUTH3N0SQTCfoTalbJWVlXAwB/m2iMY0DBs2rDIlJaV5kl1JcDjoDyGEkIgnISHBe9JJJ8GOwrRvmBsarcGgPNEqcUA/+e1vf7shNTUVhfnIF4/KG1V+qVu+6VeTGf+Xv/zlpIULF06UXReKMIXJABxHwgq6jmGKkhQMxoR3Y4S2QDjilpy36cEHH6ySVRSykBDi1BrMXaIDOtVg7tu3DyVkTMD0p27w4MElffr0YQdvQgghoeYYJ81OYGBnZGSgBidQH7RDotc8Hs8b559/Pqb1ciwYG+Pzzz/vuXjx4itl8+cizJdJwkum6ARRmkiLmnyJ//AbUKBSagSQkOFEBxMlD9+J9rndbm0czC1btuADGujbIhpTl56eXjpw4EAOUU0IISQsuDSZvxu1fOZqIGMfLXtQgL9+woQJK2666aZvzYJ87WosW8L6+1CTuXTp0mxxMkfL9vd9wSSMYDTfQZWVlbCPj8KsbQ67w2k2jy0UoYk4CSFOdDBRrb1DVCARRZtRoDZt2sQaTGeAmsvivn370sEkhBASDnRyzGKqq6vRHzGQ/Yd+l8gbYWO9NXz48C8TEhIanOBYtgCcGDeczPvvv3+aGUbCR5Zo8L59+9JMZ9L2eJScnAwHE85lgRFAQoYTHUyAEjWvRBSMBqpFR/Ty8nLP3LlzM8xNoi/IPIt69uyJmnBCCCEk1IS9pgYEqiGqr6937d69G6N5Ynq1lkATwg2i5Q899NAbt9566zdm08JjHAQdazb9a8fgZNbU1HgWLFiwr6Gh4VMJekh0gbGThBLMrDB4w4YNrU7hF8449Jvf/AaD++SLME0PCSFOdTBBU+/evet16YeJphiHDh3CQD9Eb+BgFnbv3l0NYGArt99+exMkq3eIbB9hjRBCSJcCRyemqanJFifTH7kP9/79++FgxvtCAlIhwgizcMZeHzRo0HrJMyvcbjeMc+SbSlpjdTRl6crNze11zz33nFNaWjpJgthkNvT0XLVq1aBvvvkGLfyM78AItQcjzsbFxaEZOEZNRlc7EkKc7GCWT506NX/EiBEl5ratmImYFhkIaRXUXO6TRAYj6OkEOsOzDy8hhEQWsAvcDQ0NWkyTAUersrIyQVZbq8FUYKCfXNE799577//9v//3/7bGxMToMo90RzAcztdff31AQUEBazBDhxHnRanLly/PkPimxfyXZoUUHEzEay18h0jGyQ5mmTgJ284999wiWQ97YodEyioJwtLJzzNaQB/evaJy/0wynM00AtBD1N+3SgixA5UG2JwWkMgC9kGs6WCGvRDaYqMYwE4x5yMMpsUMajIx6M/norf69ev3xdVXX52flpZWGej70PX78XsGMVu3bu35xBNPjBTHB79rvgjTmbCLU9eBAgy06OtWWlqahhF9jVCbmTdvHmrtTxL9Q8RpSkKMkx0ilD5sGDRo0H7fJiFBgZrLfJEaolqXTBB9FHr7VgkhhEQIVgdTC+BkyqI9zi5qfDaLXh4zZszff/rTn34nDmTAPpkOwagQeOqppwabNZk/EI0z9pCuAM76cBFaZmmBTgUe0YKTHUzUXH4tKlARx6+UipBAGH0wRWgqq1OCAwcTI64RQgiJHGCToIls2O0tVZPoZ1zjftprJ2H0dcyRCZvrw+zs7MUPPvjgmrS0NLQEMgZa9LuGlvjZiDGFhYU9nn766RMrKysxR+Z5vmDSBaBF1jBRRls2eRjjjfbxM9JwuoO5TqSGGmbkIcGAqW3gXGKwAp1AJ3g6mIQQElnAwHZh9FbfpmOBjYW8c6voLx6P538vu+yyAy6XC3mqU+0vTNmS+Nhjjw0vKCj4nhlGOg8czJPFgdem2bEqCCHhw8kJHuayQf8AlKzZnrix9tQxIK4goTGmuNGl1HXHjh1wMLVpTkIIIYT4gWaxcDL3iFaNHDnypblz565ISkqqkby0eUR/3e0h673Juru8vDzlxRdf7FdbW7tSgv5LhNrMbOwnHaK76KRvvvkGjiae9TFxAbZXGO0vrfoERwtOL1EjpKNoM4cq2LNnT4osevq2CCGERAgwbI/ExsZGkoGL3/KNaL7ko28MHjwYU5ig0N+pxBw6dKj77NmzxxQVFaFP5mTRYGMP6QjdVqxYMeTTTz+Fg6kFOtl70UIkOJiVY8aMOZiUlFSNEgq7SinUtTGn4dy5c9F8904Rp53Ql+rRo0eXJCYmogbcwM5S1/Xr18PB5Ch2hBASWcAmaUxISNBizm7BcHh9q50CBjvyz1UzZsz4L7F7PhY7rApNZu20xYLFP7+XdRdGO33vvfdQkzlBgjBXJmkf8CkwYmzS559/nlZVVdXaXKshQ8U/i2CXO7kAxJFEgoNZccEFF+zv378/mm1ogSROGC0OzStOMAKIjlSNHTu2KCUlpdnBtJOSkpIkWaBZCSGEkMjBcDDj4uJ0cTANA1wWXeUAYp7MP4mWXn755fu6deuGKUyM36oMfKwDtW0Nsxs/RzMmNzc367777ju7vLwcNZloLotlskibUYA1Bj4FnEpPRUVFki7Tk5i16xjgkYSRSHAwD2VlZW0966yzMO2EFolWY2MjPirMaTjECCA6UpKTk7PztNNOQz9e26mtrUWcwdxRhBBCIgfU9DUkJibqNBgO7qOr7+XDU0899b/uvffeFdnZ2aVi1Os2kF6wGA7nwoULBxYWFl4o29NFPxJxnuq2gaMOR1wr3+KMM87ANDsYnIqEkUhwMNEcdevAgQMP+zaPLiULV0mZKgWD6urqYiVhQmLENvz6ggRnx4knnoh5MW1H4o1bZEtzEkIIISEDNkh9bGxsgw41dxa7qKvvZaPoDdFHv/71rzece+65B8WpRq1RWG2xjqLsN3PTqMmcN2/eyA0bNmB0WcyTeYaxh7QG3jEKVOozMjKqdOmXO336dEyxg3lcSRiJFAfz27S0tFJdErCmpqbY1157rZ+snugLIRpyQLS5f//+JbK0Pd4gY3vrrbds6f9JCCEkZBg1mGJsowZTC8RWwj2FIt+rFr0t5//r1KlTP//hD3+4z8k1mWLLud98882+S5cuPUvy6P+QsN+LRogSsV9EjgZNo9HtqPjHP/7xLl0K8AXMfY45XEkYiQQHEw7Cd6IyERJMHZwF1+7duzFxfi9fCNEQJDh5kvkh3uhATE1NDft4EGKiaj2UzGBCnAbirlficNj7YKpaOcgMAkfi4+NxL3Ayuxo40TtEn4mWjh07duXPfvazbVlZWWgxdNQ3rOv37fe8YjCFyZIlS7L/8Ic/jKmrq5soYRj8Z5QIA/ORo8F7RBzYLe/808suu2y3Ge/ter+4LgR7bwMCSPiIBAcTDsIukRZ96RSoxdyxYwcGbiF6ggwPBRPlumRuFRUVseYqIYSQyAD5i1FjGBcXZ3teg/zO5XKFysFUoGXZW6KXBw0a9NEtt9zynVw3VLWmoQY1mbGlpaWp8+fPH56Xl/dTCbtMxGnFWuZb0SuZmZmbzFGFQxnXggEO5ibfKgkXkeBgorQEVfJVaWlpxhDZRqjNoARs//79dDD1BfEE/UNsiS+qlNRaWlpSUkIHkxBCIguk74YaGhqsNYl2ccTtdsPRC6Wzh753cDLR721J9+7dP3zkkUc+Hz9+fEFXOJpwkpXMoC7HP3+WpRtO5gsvvDCwrq7uHAm6BuEkIKj4QU32h48++ug/br311i3mVIKt1uJbn7l67sFgjQ/WOPHYY4+5IVm9Q6TNTBPRQiQ4mAARqmbYsGEVHo9Hl7luYr777js6mM4A8SdkGVWwmCPJEkIIiRxgKGMQt0ixt9rDftEHojfj4uLeuvTSS7fJekgdw1Ai79BdXV2dOHv27NPnzp37azOYHEudCDM7vC2aP2jQoC8HDx5coUsFEAkPkZLgoURs949+9KMtEonRqfgohyFQyUY42LlzJx1M/WnESGd2Z3gorWtsbGQfTEJsRJWcK5nBhHQGxKM4NLP0bdoO8hrYfuGI38hXUWu1W/SJOBiL5s+f/7rYavnmvmbsstOCwS89iMH8jsXFxSnl5eWrZPsxEaYzYZ/MY0ErsX2i12fMmPG3Rx55ZPXpp5++X+IBKoLwnluMA8HGhWCOIfYQKQ4mErBdEtE2jx49WpdBW9CnLnHu3LkYHvl50UARDRa9QMJUn5aWVitxp9WmG+EA09uYq4QQQiID2FlxDQ0NcToUWpjOEu4pnPYf+sCtEb0v+tfYsWO3pKeno0arQy3OlMMX7udpua5bnMyEBx988DSx8W6QXeeKso2DiBXUWGIgTtRiv+B2u1dcccUVOzIzMys7WpupHE8lM5hoSKQ4mKjB3CnaOGDAgDJdIh0SoZKSkmRZTROlijiRvl4g3pRcfPHFhYmJiWjSYSsYEt1cJSSaodFAIgk4QXH19fXapO9yL7D97HB2D4owXcRbs2fPfnvcuHGYLsyx3ztsvOLi4qTy8vKLZPMWXyhpARQyLIqLi3t91qxZX1144YVoPh1KmI/YTCQ5mEiodqSlpWFUUGzbjiQ+rsbGxgRZwsHElCWYuoToA+JJ6bBhwwqTk5Pr7C4RQ2ZlrhISrTR/f/I9NNdSQGYwIU4DcTfWdDB1iMf4nuxyMNGFCZUBK0VLpk6duvH0008/YK3JxLeu8mK78+SWsKRLLq/XG//QQw+Nzs3N/aG5mwQG736taLnokylTpmzOysoqjY2NxSCdAcEzNlfbC51LDYgUBxORqVJUIolRpcfjgbOghZMpxBQXF8OxHC463gghumA4mHFxcQcHDBhgew0mIYSQiANGsqupqUk3e8suZxdNI/eKvhK9ee21136cmZmJaeac6hRgGpO4RYsW9Ta3SetgWsHXRe/OmjVr/QUXXICazS5Hx4KJaCNSHEyAEjA4mQcmTpx4CAO3GKEasHPnzm6ygIPZzwggugAHE/NhHjj++ONbLEULJ7fffntTWVnZalnFhM6JRiAhhBCnYjiYDQ0NkWRvdQZVIbBHhLxu5Z133pl7xhlnoMmkljWWLaFq2FCTWV5ennL//fdXCp9L0H+KTsc+cgwoTMBownj370+ZMmXd+PHj92IaE+y0grigZAZZa48NmcFH4XK5vLfddhsGGCI2EmkJHmqh8s8///wdPXr0QOTSIqFavXp1em1t7TBZZQ2mXmBgH3RAP5CVlQUHU4v4IhlUvCwyRT2MAEIIIU7GrtrC1rA7v4ONhrkSV4lD8O7VV1+9QRwJXVqetRs4OzU1NQmPPfbY0Nzc3F9K0I99e0gLbBG9KPpg2rRp68eMGYPC/i4BAwhlZ2drM+BntBJpDiachG2SSG0bMGBAjbXUw04OHjyY/MEHH/SX1Z6+EKIJyMzgYB7s1q2bFjWY4PDhwx5Z9BUxvpBow1ZDXJWWK5nBhHQWxCVd4hPitg6OHO4B+S6ay34m+vSRRx5ZdcYZZ2BaCwNVS2X9JpXMQ3QC9+quqKhIeemllwaUlpZiZNk/iKaJMIsABnok/wYFDGgei6bS706dOvWLyy677DuzJvOY7yVQHIAQP8xDmjErmFBDTmwk0hxMRCpUveedeOKJASOpHWBi3pUrV/aRVdZI6UVzE1lzqhItMq1Dhw7BwcSQ5xgYipBoQ8faHkI6CvKVpri4OC3yF2DmdbrcT5EITsYyeUbv/ehHP0KtpmOBk4mBf/7whz+cet999/1Kgn4kQgs22n+BwajCb4iWjRs3bqM5l32nGDRoEOz/73xbxC4izcFEv0uMJrs/IyOjGu2wjVD7QTELnjWcTKIPyGDRF+SwZGzNfXatpWP+Mg8JCSiJg3bv3o2+l6jxRi0mIYQQZ4PCzLA7dIHyLqzHx8fjfnSoxVTgXnaLlsPJfOyxx95Hvzz/e7fS2r5wovJtJTMYA/+4a2tr4/Py8k6V7etFPzD2EH/wDmGHrRK9M2PGjM+uueaaHcGOoxIoDkyfPr1KFo4uqIgEIs3BxOhkatCWMjX1BHb4ffwhxZrYWK4ZI4kNRxnTC8QNlHSVW4dJt5v8/HxPaWnpAFmlg0miFmVAKpnBhDgNxN0j4jhp49DJ92SLw9sGmCPzS9GHovenTZu2BdNYiKNRL9vGMxRpj8Xuw9L99NNPD73rrrvQTPb7ov8nGiHCnOhsqfFvMH7KBhHe/adjxozZPHjw4MPmu28PKp6wBlMDIs3BVJRJYr7hpptu+k4SUl1qMY9bs2YNHUxNMQ1YLTKwqqqqxLfffhsjDtPBJNGIIwxJQtqBTnH6iBju2uR3AcA8mR+Jnpk1a9ZzP/7xj3eiNZpOeXQ7MaYxWbx48UhZv1h0oWiUKEVEjgYVRMtEb918882fXHfddflGaDvAAD+ywEi17INpM5HqYJaK1vTr12+rx+NBzZQWidKyZcsyzFWiF4gfXrNJte1xxev1xm3cuBGjyHb3hRASNTjRgCTEUWjeIgBOBkYYRW3WW6NGjVopzsa3PXv2LDObTeLeO3T/+N1KZlDIUDWZplxLlizpP3fu3DGy63zRWFEOjiNHgaay34gw6NPykSNHGlOYJCcnI7xNYMPNnj0bxyIOHTICiW1EqoOJiIUSsNzY2Fhtmj5WVlYmmatEL5DZ1FmbVNuMkSHJ0u3bJIQQ4mBcXq9XmyaRcHrMVV1BE170o9ss+u8hQ4Y8c+utt+b179/f0VNPFBUVpSxYsOAsef6oyZzsCyUBKBB9IHpr2rRp7994441B1WQmJCQ0pKamYlTiXSJtZgaIViLVwUT7a0Syg2lpaQ3iNDSFq9QqEGYJltFM4vbbb0ct2cMijBJKh1MPUAhRfM4555SYzStsxzQAkn1bhBBCHArScpfk/7rYWzGNjY24F92dTOTLmEYsV/Sx2HLvzpw586vTTz/9QHJyMpxPw56z07YLFqsNmJub2/uFF14YLsHf8+0lAcD7hZO4VrQkJydn9U033bRV4kBLBQx4/xi8CnGGDqYmRKqDCVAC1pSRkYG2+9p0rjdB/zq0weew1XqADuZ7x48fv8/j8bS3U3mowKBQ3cx1QgghzgSOnLuurk6nFim4J90dTCt5omdEb1xzzTVbzj333BLTqdTasWwJdIGZM2cO5skkrYORhY1Bn4YPH/7h9OnT9xuhLXDnnXfCfsP/oMYT0xYSG4lkBxOUX3755flDhgxBn0xdgONwgizRBp/zHOoBHMwCcS73JScnazNi3f79+zkxMyGEOBujBrOxsdGoxfIF2YeqTZNVJzmYqI3CKLNrxLF8bcqUKasmTZqEvnntqslUv92u96Cu3dTUFFtWVpa2cOFCOENoCjpLdCaOIUcBewy1lptEy8XJ/HTmzJkb0tPTMVemstOMd56UlFSdmJiI7nHbRZiiBC0ZiY1EuoNZmpKSsuWCCy4oNLe14LXXXhski/EiOph6YNRgivb16dNHlxrM47Zv355mrhJCCHEuOjWRPa6+vt4JTWQDAUfjWdGyyZMnbxs5cmSZk2syV6xYkX3HHXdc2NjYiClM2CezZeA0YlyV93Nyclaed955qME2ur5hJ5aDBw/G4D6YBx+13XAwWYNpM5HuYGIkqdxBgwahWt32BEiVXm3bti1ly5YtPSUo3beH2AxKRzE0+u5evXopB9P2zHfdunUcxpxELSq9VDKDCXEiR1wuly5OEL4lJaeBZ4guT1+IU/HS9OnTV48fP74gKSkJzkSzs6GEbR2xpGlYut55550TxMnE9CWkZfCOUcDwwYQJE16dP3/+W/fff/+a3/zmN7m/+tWvNs6YMWOl7PtEhMoCNdowsZFocDA3ivabiY0WEa66ujrpq6++Qv9LTluiB0YTWSgjI6O5BtNuo7akpISD/BBCiPMx7A9dnJ4IKLCBXfeW6LNLL73026FDh5aZA/RpY+cFg3I0V6xYcfw999wz1uv1Lpfg34nOELGA+Whgm6FmcoVooejt9PT0z7Kzs7/o16/fF7L9qWiOaL1IxQViI5HuYB4WYT4lNJHVKbLF7NmzJ0GWGEmM2A9KRFE6VhsXF9fc7MJu0E/DXCWEEOJMkL80xsfHYwR5nXC6k4n+l0skv/7HNddcs/mUU07RZhT4jiCOpvsf//jHSbW1tZNk8wrRRGMH8Qe22nci1Fi+KlpgCoMBEY2IdAcTnXzRJrtCOQ1YtiTsDxc1NTUJjY2NQ81NYi9492hSUZeWllanMqlwxwl/xMF0m9Pa/EmEAX/iEE4IIcQxGPlLUlKSY50fTUHLI0zK/7Hk1Suuv/76zRjQ0e12N7dCstp3Vpm7tcGsyXStXbu2z8MPPzyqsLDwAgmmgxkYvN8iEfplfiVaJfpchMokohGR7mAqkKBolbDU1dXFvfzyy0PMTaIHDX379i1PTk5u7s+hCZiuBCMPs88uiXSMfkm+VUIiAtRg1icmJurULyySvjGMsfGK2Hev3XDDDXkjRozQadaAdlNTU+P5y1/+MmjLli1wMP8pukmE7jJMF4mjiBYHs+qss84qlAQejoMWoHZq06ZNPUpLS9F2fJooU6TTPFnRSHVCQsLeyZMnF2lSGKGM7e4iFEZgSUhUoGoblMxgQpyG4WDGxcU1aBaPI8VhQUs11Gatkmf83owZM1ZfdNFFu/ymstAe1R8TTWXLy8vTX3rppYGvv/762bILg/9cLBqB4whxCtHiYBZPnz59x/DhwzGfjjZ4vd64nTt3onbqZBFqqNAvk9hHhejbMWPG7BNDAEaBFtTW1mJAKMQRLAkhhDgH5CXoeoEaTNtRjoy5GUlgegpMYfLPSZMmfTV16tQDTi6YQk3mF198kfXkk09OzMvLu0+CfujbQ4gziBYHEyNPLZ8yZQpGCtUlwTFqpzZu3Ii+daeI4EDQwbQXFEBsiYuL22M6mFrElR07dsCxZA0mIYQ4D+QjjZKneCVvcazD4wDQJxN989aJ3hw1atQHDz/88CpZHjPIo86Op6UAIKapqSlu165d3V944YUc2Z4gukt0rgjdZTgmA9GaaHEwvxW91717912+TX3Ytm1bal5e3ihZxYA/HiOQ2AUczM2i3TqN+Ld27Vo4loNFqO0mhBDiHODMID/RaRRZw4HxrUYcsPcwuug/ExIS3r/ooov26lRg3F4wmnx1dXXifffdN37RokW/kKBzROhSFY/9hOhKtDiYlSKUYpWkpaWV291URZVQQbW1tfFvvvlmLwnuL+pnHEDsAn10MWBAKUo4dSnl3L59Ozr49xVxXixCCCFBYbU1zKBoAXl3vujjrKysF+fPn//G2LFj0fUFTr4jHE2/9xaDgSFzc3PTJWyybF8vOs3YQ4imRIuDWSsqFu2fNm3awZSUFGwjkbE9oUETiMLCQjSBPF6EfpjEPjD8NeJJWWxsLAZk0KIfZnV1dZI4mVmyCkeTEEII6TBR4nDuE2Eai7dEi6ZPn/7NSSedVOx2u43RfHUqRG4N5WiiJrOsrCx19uzZY/Pz8y+TXWf5jiBET6LFwQSYg+rrUaNGfTR58mTUZmpFXl5ehizO8G0Rm6mZOHFicUpKihajDiNzefrpp/GtJvpCCCGEOAQ4c0i/dbO3osHJRI3lIdGXoj/ffPPNr4wYMaJEzXXtQIxWb6+99lpfWWL2gbki9MlEAXS01VITzYk2B3Or6Ithw4YVa1ZyFbN69WrUYo72bRKbqRw7duzuUaNGoU+mFvFEnEx8q2m+LUIIIQ4CU5BFk72lC2iFhC5S34mWit6fMWPG51ddddUu1VzWSTWZWKIm89ChQ91/97vfnVZUVPQ9CTpPhDE8OE820YpoSvCQ0OwVfZuenn4YiYtOicrmzZu7LViwYJi5SeylyO12bzznnHN0qelWfTFQSkkIIcQ5GDWYKCRsaGhgLZM9wNZD09ivRY+OGTPmvcTEREwdo9PAS0GDuIRp7v7+978P2rFjxzUShHkyBxk7CdGEaHIwkcBUieA0fDd16tQ94kSgz52twHGAGhsbEzZu3IhmssR+0KRmXVZW1n5VCKHeE9ZtpKe5JCTiUd+cJt8eIR3FcDBN6YT2tXZdDH4vpjFZL/r4wQcffO/666/fgcoGc5/2WNNCWboPHTqU/vTTTw+pra3FyLKcJ5NoRTQ22YCTuWHcuHEbe/ToUe0L0gJ04kYzGmI/KIRYK8KIskCLzKe8vJw1mIQQ4jxQg8lCEvtBSzbUZH4u+q+RI0d+if6YTmgiGwiJU0ZN5h/+8IdTXn311VvMYEK0IBodTLTHh/OwdvTo0Vg3EhZNEn9mQHqAQgiMQFch0iXjiVm3bh2msyGEEOIckK/rWAsfzfbGYdEO0bJHH3104dSpU9EnswmOppJxlKYgLlniUwxGml+7dm1WbW3tZ7I9T3S5iE1mia1Eq4O5BsrJyYEDYWB3guKXYBB7qROViKpVvAhnpqPiglUIf//993sbBxBCCCEdA/lJtNsa6B6FQfyWiJ4bP358HvpjSh7fPDWZyvPDle93BIuN4MLgP/fdd99ZDzzwAGoyvy86xTiIEJuIRgcTIMHwduvWrdbsh6lNAnLXXXfVPPzww3Bufi8aaAQSu6g89dRTDyUlJWkxXQkykFWrVm2T1atECaJo/X4JIcQpwL7QvlYsSkElA2oy35g3b94/x4wZc8DqZDoNOJtVVVUJ+fn5Z8rmFb5QQuwhmg3U+p49ex7OyMioVAm/Kq1SMo4KM16vN6GkpATDTfcXDTECiV2UXXjhhfusfXXtjCNwMAsKCjyyiulKoFiEExKJ2PmtEdLFMA7rCbrD7BFhCpO3r7rqqq3Z2dmYJxP9NB3zvlRNpqzGoE/mU089NXzu3LmTZXux6G4RZihIERESNqLZwcRUJRtvvPHGnbLUbqjq2tpaOJfn+7aITRRkZWXlTpw4sVjWtchsDhw4EC+LHBHiRxLCCCGEaAvyDtSKObZmLMKB/YfRZdeJLfj322677a0hQ4aUYvAfY6/zMJzNkpKS5Ndff32YOJxwNGeIxhl7CQkTUe1gir4WB2JHS3MhocTRplLHmA8++AA1mKf7NolNoGRz7dChQzFtSUDCHT+Ki4vhYJ4ggoOZjDBCCCFawxpMfYHjj5rMXaLlog9uvvnmFTfccMMOdKGS92bMmW6VHKMlZi0mMKa+W716dZ/58+ePLCgomCRh5/l2ERIeotnBLBWtE21LSEhASZVWicaqVasyZQFHgtgHMpwv4uLiDumSqTQ0NMQXFRUhXpwkYg0mIYToD51L/cF4HLALV4geGj58+Fv9+/cv83g8ts+X3kGMmszi4uKUv//974PKy8u/Z4YTEhai2cHEwC17RYeSk5MbxIHQqvlKY2OjZ+7cud3NTWIP5aIDIpRutkg4SjVVH4u6urq4Dz/8sK8E9ROhPyYhhBC9UX3kiL4gD4czeVCUK1o2c+bMf9199925WVlZJW63G6PLa19QoGwFcxN9MuPLyspS4WTu2bNnvYQ9JDpHxGnPSEiJZgcTnbjhQFT26NFDOwcT1NbWojkksQ80nUY8QdxAxmJ75tLU1ORet24dareROWAkWUIIIfoCY98timZ7y4lgTskHU1JSPrjyyiv3ZmRkNA/250Bi9u3b1+3JJ588qbCw8CLZ/omIg0iSkBLtCR4ch8Kbb7756wsvvHC/L+hYwlFDFYiqqio6mPYDJ7M8Ozu71O12w9m0mxiMJitLjAjHeTEJIURvDAdT0m06mM4CDiVaMH2Uk5Pz6qxZsz6/5JJLdsXGxtbaZRO2B7+aTGMUerSMe+mll/oXFBScIUEX+/YQEhqY4PmaQ6yeMGECBnTRCjRtMFeJfaAQ4vDkyZOLkpOTVRMZWzMWZBr5+fmJsopmsoQQQvRFOZhuq8FvI7bnYQ4C+T/6ZP5dtFTsxK29e/eulHXj+enuZAJ/R3Pv3r2Zf/zjH4evWrXqcjOIkJBAB/O44/aJPklISMiXxEI1hdSFmDvuuKNBnImvZf1mEZs0hB/UYO4ZPnx43uDBg5Gx6ECMZBKowcRAP4QQQvSFNZjOB3n/p6JFt9122xcXXXTRbgdPYwKn071kyZLMHTt2bJDN/xFdIeKYH6RLYYJ33HGYgmKtaFdiYmKN3YmGKm1SJU5ICPLy8rrJ6kgRHYrwg/iA0WTzhg4dqouDeVxubi4dTBLRWNNClR4S4lBcGsZh1mIGDwaFREH/MtHKSZMmbc3MzKwQexHjdzRPXxJI+Gcd8EtPXeXl5elPP/304FdfffVS2X2JiBUYpEuhg+lzIJB47Pv5z3+e17dv3zIjVCO++OKLboWFhWNl9TRfCAkj6Hf5nWhzdnZ2hS4ZxsGDBzFFySDfFiGEEM3RxsHUyfFxGOhS9Y7o3d/85jebTj311CIj1KE0NTXFbd68uZtojGzO9IUS0jXQwfS1sYcTsVcciNyJEycWy7oWia8qbSovL0/+61//eqIEQSS8oIksMpU93bt312YUudra2oTZs2dzkB9CCNEf2BR06pxPhWiz6PO4uLiPrrnmms1paWll5hQmjsFak1ldXZ20YMGCgaILzd2EdAl0MP9Nvuiz4cOHtziarF0gEaioqECNVQ9fCAkjMArgWFZgFNkYTaazwYARNTU1nAeTEEL0BnlIk+QfWuQdpEvYJlog9sCS//iP/8jv378/prxzLF6vN27Tpk3sg0m6FDqY/wa1VBslE9iZk5NTZC2RUqU95qYdGFNTFBQU9DG3SXhBLWaty+U6bPa7wLbdqOlKCCGE6AsczEbkG2yaGjGgJhNdZz7Pzs5e9Itf/CL3+OOP181uDBq5TzdmLZg1a1b13Llz0YoPo+aibyYhHYYO5r8pEW0Xbbvyyit36zip7muvvXa8uUrCT72oENOV2D0QFCGEEMeAmst6zfINOLp0djvPOtFfYmJiPrr++ut3it1Y5Qt2Jo2NjQmHDh1KEyfz0qKiovvMYEI6BB3Mf4NaKSQOa7Oysj666KKLMLqskQCj1NHOkkdVEnbgwIGUBQsWoAnvXFEvEeZCJOGhVrRr9OjRe5KTk+FsEkJCiEp37U5/CekkiLuNEocb4+LiGI8jC9gFqPH7NDMz85+zZs36Yvz48XtRk+mEdEvZlkoShKVbnMv0v//97xhE8AXRTaJRIsxmQEjQ0ME8GjgOa0RLhw8ffkASB63mxWxsbPRs2LChp6z2FWGS/TSEk7CAkYYxV+ru1NRUxBMaCoQQQtoCeQUGEtShawXpevBePxPBGfvkkksu2Y6aTNN+dOSIveh+U1hY2O2OO+64Oi8v7zcShFkMUKlBSNDQwTwaJARoGlscGxt74KSTTirWrTkkSpnkwz9ZVq8RYUnCAxzMHaL8fv36aTNi3P3331/Z0NCwT1Z/J0owAgkhhOgC7Ao4GxzkJ7LBQD/L3G73P2bNmrXsxhtvzBP7EQULTgW1ma4333yzlyyny/ZVvmBCgoMO5rGgyQP6Y+ZPnTp1r8fj0a05ZMzzzz+fI8sfiAYbISQcIF7sFu3t1atXvS6lkhhJ9re//W2GrGKE4XQjkBBCiC40O5hOrM0iQYPKibWixaJlw4cP//qss84qTEpKqsZ7twoH6wgqMJTMIFRo9LjzzjsnlJaW/lC2/5/oLFGKKE5ESIvQwQwMSqJWZGVlfTZ06FCsa5UgFBcXJz/wwAOYA5GD/oQPNIMpE5WnpaWhVFKLOGFmBviO4WQOMQIJIYTogtG3zZTt6O7kRAAYv2O56K3p06e/+/Of//xbed5adbdqJ4aN8be//e2EoqKi62V7mmikKBM7CWkJOpiBwWA/m0SbhwwZgrb0RsKgEuZAwv5wgeGky8vL0f8SNZkkPCCDQNPYikGDBpWkpqZWGqEaYHEwTzICCCGE6ATSaGvNEIlcYD9iRoIvREuzs7NX3XLLLVuzsrJKZfsoWxLrumIWXjersLAw45FHHjm9srLyfNk9UTTCOJCQFqCDGRhjSgrRwYyMjBpJCHTrnG9kUmVlZXQowk9lSkrK9mnTph2UeKFNn5qioiI4mOyTSwgheoH82m2KRA8Y8f9T0aIhQ4a88qtf/crpNZkg5rHHHhu6cuXKn8j6FF8QIYGhgxkYJADoc3coJycnb/Lkyft0cCZUSZK5GfP++++jiSza+08VJYuYgYUeTLC8fcSIEcg8jIzC772EG1w3ZsuWLXAwhxohhBBCdAFpdKyI+XN0YdiQos2iTzwez+e33XbbxqysrMOy7TgnU9k55eXl6W+++eYJtbW1GFn2UdHFIsxq4BER0gwdzNbB/EarJ02atNUcTVarRGHt2rVZS5cuRb87fNwY5IWdrkMP+uTmud3u/To1cVm+fDn6QwzzbRFCCNEE2FmxYpy7Gxoa7CqIbMbmAtFo5KBovejD7OzsJZdddplWtkNHmT179mmvv/46ZjOYLEKfTE6bR46CDmbrFIkwv9E3CQkJ2kxXojKIpqYm97p161IlCB/3GBFHEQ09cDC3igpEYc8k1LtXMoOPq6qqSnjggQe6m5uEOJ6W4johDsQlcZj2VnSCLlaY5uxb0YohQ4as/MUvfrEpKSnJGN9DOZtq3RqmIyo99nq9CV9++WVmUVHR2RL8fRFGlyWkGSZ4rWPUYIq2pKSk1MlHr02fO5OYioqKRPnAR8s6PnI6GKHHqMEUqWbTtmYIlsQ+vrKyEs2kCSGE6AMKR3QrJDHuybdKwgBshZ2iVaLlOTk5a0aNGnVY2ZR22Q+dQTmZGPjn448/xrR5GPyHkGboYAbH/lmzZn0+depUzIOoFXV1dXHvvfcemsii/x1HlQ09yBAwCFRtenp6jdl0Wgs0M2AIIYT4YNpMAEaYXSdaOn369GW33nrrN2JDYNozJxPzySefZBQUFHzP3CbEgA5mcKA55CfnnnsuSqC0KmlqamqKzc3Nzdq8efOJssk+eKEH7x9OZfX555+P6UrQ9EWXOEEjhhBCCNETTHWGKUxQk/nRoEGD1oldeRDNZWUbdkSzLaFaRimZwVqhWlCVl5enPv7446Pz8vIwvd/jIgw8iYEHSRRDBzM4donecblcGGb6qERAE2I++ugjfMwTfJskDBSPGzdu86RJkzBKnBawBpNECFoaU4R0EMTnJl2dBGILGN8DU5i8N23atA9+/vOfb4uA+BHzyiuvZG/evPkiWcfIshcaoSRqoYMZHJggFwO77Bg/fnxBcnIySptsR5UeQXv27EldvHjxKeYuEnrQP3fTKaecckiHjMF0LulgEqdDI5xEIlrVQrEw0naqRfmiNSKMLvvV1Vdf/V2PHj3KZNtxaaCyQzGFyXPPPXdSXl4exgTB6LIkiqGD2T52TZ06dfXkyZMLzW1twCAvy5cvzzI3SegxHMyUlBTEBWQIWmQKd955J5rgfCO6VEQjghBC7EebPIJoxT7RR6L3x4wZ896MGTN2adpKrj3EvPDCCwNffvll1GSSKIYOZvvA6KHLzjrrrOYpKlTJDdbtRO7B1djYyIluw0eJCBMoF7pcLm+g0mmEKZlBIUfigXvx4sVJsnq8CIM/EeIkvG63u0G+GaNJYTi/HUJCBOIw4zEJRK0I3Ww2iD7s16/fx/fff/+anJycIkn7ML1Jc7xxQlqo7OHq6urktWvX9hFbZKdsL5Fdt4vGGgeRqIEOZvvYInovLi5Ou9FkSdiBg4n4cNDj8dTDIDZCbQaJ++7du1HQcJJouBFIiHNoTEtLq9VpdGZCCAkxsCk/Fr2Znp7+1pVXXrmnpYJrJ/Hhhx/2ffDBB88sLCy8Rjav8IWSaIEOZvvAcNKYB3H7z372sy1iCFUgAdApEbjjjjsaZs2ahfb9z4lONwJJKIBDifiw75e//OXWvn37HjZCNWDfvn0JshgoGmQEEOIcjNGZMe+wuU2I00ELJ9ha7LJAWsIYmV6EEWZXZGVlvfboo4++O2nSpL1JSUnVqgBbN3uzJVRNJmY5KC8vT37ppZf6V1ZWol8miSLoYLYfJAR5Q4YMWT969Ohmp0J9+HZ//PJRu9FU1uv1wsEY7wslIWRfZmbmxgkTJmAgKB2IaWhoiN+zZ09/Wee8qMRpVA8fPry4R48edDBJpADH0i3GNu0t0hpwItEn8wvRK6J/Tpky5duhQ4eWiV2J2szmVlJWe9Nf5iFaYDqa7r1792Y++OCDoxctWoQZGZ4SwTaJxTEkcmGC134wyb4x8hfmL5IPWoumkf6sWrUKDsZE3xYJIftF35xwwgm6OJjH1dXVxa5YsQIDPvXxhRDiGOrT0tKqxcFkE1kSKSgH0w2D2xdESIsg7YM9sVb01LXXXvva5ZdfvlvSxUrZdmyTWa/XG7d27druhYWFZ8nmr0UcZTbCoYPZfvDxbxOtzczM3Gc2X0BnbFsxS4qaM6/Fixf3XrBgwRhzk4QOjCa7E4m/tRQR8u320dq+rgYlhrm5ud0lQe9tBhHiJI64XK7mbyQc3wwhIQT5cqykx27fJiGtgkoLOJOwM98SvTt27Ng1V1xxRYE5AJrt9mZ7ULYp7JKqqqqUP//5z0PFNkV/zEm+I0ikQgez49SItt94443fJSYmatecq6amJmHz5s3p5iYJHcgMGs1EH0aw7YYwEnOUFu7evTvDDCLEKaTk5eX12rVrV6K5TYjTMWowGxsbtbG3WGDjKDaK/jx06NBlgwcPPoxBBX3BzqS2tjZebNNuO3bsYAu7CAelCuYqaSdognihaPITTzzxA7QxRyCMe//EG2Hmatgw7+EIBiMaMmRIrqy/L/pahIl80Zkcw2Or+4wTxVuEbbSPR4krMkVrxmicN4DgaKmlWoes4DngXFi2JoCl+n91rtbkD/7fei0rON56v9bzqPtHTTUG8UENZWuMFJ3V0NBw/T333HOO+a79r3cMoYgTlnhnLM8444z9V1999eey+olomeigqEKknGG8XwjvWr1n9RyUAO4V+9Txal2Fq9/cXims11Pvw4o6FkvrPamlunesWwWsS7WuUNcE1muq46z7rMcq1DmVWnoW/ljPq7BewxongfVcbf1W/22gzqPOCalrWJ83lup/FP7bVqznUkLcsm5bhW8KQtqDQjmsq2t3F6FJ903PPPPMdeJgptbU1BzlZIYjHfVPux977LFvZYH08w3RKhGaruH+8Tvx3SC9xKBaENJN9X1YUc9Vyf/9KfzXrfut21aBQO8BUuFqn3UbsqLO11rc8v8ftR1oaRXA/1vjrkKlsyiwhVBzE2kME80oKyub8PDDD48SR9OW6cSs+QPW58+f/6ys/9wXRBzA5aKrtmzZMuJ///d/c1CILGki0pujsMPebA8qHrrd7vqUlJTa2bNn/102/yH6TlSEfSQyoIPZcWBM9BD9YOXKlfe++eab6LRsNAXwN1Ls+ODNeziSlJRUc/rpp5dMmzYNpWDQJtFOEZwNZOy4N9R0wsBDjRd+UzdRqihZhN8JKWBYKSNSrSsjwSqEYZ96FjAslINidV7VulXKCMH/Wq8D+W+rMGVAAXUenFudX70D9f/qHpUQpn4HDMgqEYzJz0StcbHoks2bN49/7rnnMDUIaPN9hyJOWOKdsYyNja0bNWpU6bXXXos+wyhgWC/C3J0w7vF7Yehgzky8Z2Ug43/V88ES4PlhvzoeSwjHB3p/1ufekpSxCXAddU31PvCegIoLamlFnUvFUXVdHItw9X9WIQxScQbXVfHM//xAHaOknrE6H66jfiuWLd0HUNeBsG6Vuo76/XgW6jicR53b/7fi/OpelFSY9bqQ+g3qOVuftzrG+gzUOZSs4FjcnzoP4pQSvh+UsluFMDgPKOBAv2XM/YZvDP8L0C/n4oaGhvPvvffeM83+avgdzYQjHfVPu3/5y19WDxgwAPf6gQjTCKBfFAbigDOENBLpJQobe4qQjqo0E/eqnilQ70W9Nxzj/57Uc1Zh1ner/hdLJfV/6j1Yn7f13UIqbqk4AOH/gLqW9b6s11L3pX6L+l2QiqPWpf+11P2ruKueD8Co7BgsD3NLQ3DoIw04mDcUFRVNePTRR0eKg4m0NOxY8wes08F0HEhnMHjjzQsWLPhhXl5eek1NDfJh9S0Z2GFvtgcVD2WJuY6brrvuuu/ETkHlx19EKAwnEQIdzM6BD3mC6C754Efl5ub2MsOOwo4P3pKZHOdyuRowINEFF1xQkJaWli9BB0SYxxFGAO4NRhGMpTRI7je1vr4+sayszIMBYyQRg7FhEBcX1ySOS5OcswnrCQkJXsjtdnsxdx0k11bGhTI6gDKUDGNDruGCTEPShf4pck0sXWJk4hjc1xFcQ87dFB8fbyRGuK4I18K5jTAscawpYFxHzhuL85uj9xnvAMeb51HNWpWshpEykmEMo8YXzwrrQF0H58N5zywtLR3z0ksvDczPz4eRGRC5l5DHAfk96vcr0JfNO3Xq1N3jxo1DLQyGQEfhAgxQ/FZV84KaIhh9eM84h/WZAPxO7FfHq5puHA8Zz9uUMkrVevM+eQbGNt4H3rn5TOS2jfdhxB/ZVtdWv8U4RoRzYHlUOM4p5zPeM+KQxFc34g+uIUsMk+4Sg8441hKvgBG3zLiMc1rPq8AxeIZGXEc8lOON43BOFVdxTYm7uK4hrFdVVRlN4sx7aD6nfCs4j2HgYYnzY4l7wL3IthdKTk7GszDCzd/iqq2tjYXwPYrc1dXVblkiHL83BteTe4mprKx04VvyXbH5mR2RczbJ9+9NSkrypqamGtcQeeXbwrNXv99A3bP8RqPQzPobAI7Hb/B4PLhfnKdBztuA5lvyezAvrNXBUQ4PnDI4lWgVgO8K29iPcw+Vez/n7bffHrhq1aps2W7GjCdhAb/JXG1G3kvt7bffvjkrKwvz3sIBQik7fhO+G6SZKJxDoRzSURh8+Caan7sIqO/A+D7kecbiG8C7xU6h+Rnj9+JdYlvFMQjxCserMByD41W8wTuQ+NWYkpLSIO9ApcdI79Q3pb5ptVT3hus23xuE7wph5v0FKjg13r8ZZkjW1TnVNdR1cH6cz0gvcG6cT9YRjxAfkLYiT0Le9KQo0jAcTMknzn/kkUdQg0kHk3QEfDMo4P2haNKOHTvOevHFFwdIep8o3ym+L2B8q+a61qj4mJiYWHPhhRcenDBhwmuyeTfCSGSAyGiukg4ySnS1GHnn3XfffWci8/QF/xs7PnhLZmIg2zA44AzCsTIMa3OXcX+mIWkY/TCKzXtuMbHyP79gbFvDYTybq8fhnOaqQYDzBvOM/H+T/z0cRUv3Dlq6TzPcMPZl2SQGs7EUI9xwBuT5wVD3woEoKSmJlWU8+hQggZfrHfPuFa3dS1fR0vOQcC8MfzgCsjQcF1O4Jxizxr1hKb874DmAeZxh1CrHQ1aP+l3+vzOI995MW+8zEH7nO+bcwT5367XV/7Tnftq6jyBpvp7/tVs6fyu/L1B4S+dv7Xe29lsCnU85Hc3flblthMOZljjmNeOZ+p8YOM74luQ7MhwQM9ygld/Y5fg9FwXu23De8A3JulHQ0CjfAyT7lbPXYnoJrN9CG78p4L4A/6O2m+/Z+h7M5VG/yZrWBaId99hMC8/smGupc1vPi/9FAcfgwYMrZsyYkS9B5/r2RBQ6NpFtMh3MW31BxCHg20FB1smimYsXL56wfPnyLIlTqtCi1TRIJ6zxEYWSEydOPDhlyhTU0JIIAZHRXCUdBLWWI0Q/mjVr1g3mh37UB273B9+SAUBaxHheLTw3w1DGOxUZRqUvuHXsjAN+v+Oo39aJ+7I1ThNHEeg78qfF+GTntwOYfoYcw8CcO3cupv2KRANzqOi62traCbNnzz5NbAQ6mKQzID1Ed6ZzROfn5+df+PLLL/crLS1F6zOjANiK3elnWyBeIj4mJibW3nDDDd8NGjQI3RE+En0qQgsH4lDcv//9781V0kHwAWDy2L7r1q07DyXxlo9cfdh2f+C4PhWkBFkE3idSzTtRy6KODYagDwwBzfff0m8z4+wx4RTVUVm+jWP2BVBrtLU/1PjfKyWyvN92Yxq9zeeR7diRI0e6U1NTHzEOiCzgDAyX3zhg+fLl2ail9wWHF+v7kvUjkydPXier7/pCiMPAQI1orn+4e/fuA9LT07tt2rQJ3ZysDqZ64R3/UMODkQ40NDTEiQ2dvn///pNGjRqFMHTr0WZ+cdJ+jintIB0CJYN7Z82a9fE111wDZ5MQQgghQYLCWXM10oB90IA+sXDsfEH2gXvQ4T5Il4AxFf5PHLI3/+M//mN7z549He2QofBl27ZtqXl5eaidvc8XSpwKHcyuAYn1HtHyU089NZ+Jt7NB6XpbMg9tlfYeHw6s92SVuZuQLiNQPPOXeWgzwRxD9CDQuwpW5imOAoMXmauRBvrxw8HEoEc6QTvF+RSKMAXZ4iFDhqy+5ZZbvktLSytHn3EJM96vKlCwCuE6YUkbMHhd0t/+9rehd9111zWya5HoWhHGOkkREQdBB7Pr2C1aLNohHzBG7mPiTQghhAQBBk8yVyMN2AJesQm8bQ2yREgHwfRjT3fv3v3t3/72txtHjx5dbNqgjoxvcDZRm/n666+fVltb+wsJ+oEIfZmJg6CD2XVg2P0dou1XXXXVztTUVAy9zswkwrGUvB0j8xBCCCFtYI5wHamoKVt0gbZJZIG5ejHf9SdxcXEfXnvttesuvvji3UlJSeireYyjCedTx0oQi+2EpWvVqlV977vvPsyRfL7oeziGOAc6mF3PtjFjxnw8ffp0TCZOCCGEkNY5IsYw5haNRHR15uhkRh4YGOcl0cIJEyasmDhx4iGHt6YzHM65c+eO2bNnD5rMEgdBB7PrwWT2nwwbNmyffNhGiaUqLVJCGCGERDuqxFrJDCZRSHp6ep25GmkgXsPW0iZ+0w6JWMpFGGjyS9GH4mQuv+2223KTk5Mx2wHe+VHvXVfb1C8/iCksLOz+zDPPDPJ6vZi+5L9EPxTlYCfRFzqYXc820UfysRaI4GAyISeEEEJaQQzKSK3BVA6mq6GhQQcnUzkatE0iEzQ13yLCmCD/yM7OXnbaaacdNu1RpxKDwX/uueees9evX3+ZbMPBPNXYQ7SFDmbXg74WKC365v7771+XlZV12Ai1oEqLIDOIEEIIiVokP4zkGkzMj425k7WAtkfEAycT44JgrswV06ZNWyj26Frr6LJOwNqqRdZdXq83/q233soqKChAv8wpvj1EV+hghgaUxG5KS0v7YuLEiRjNizWZhBBCSMvA+I1EYCS7m5qatHEwSVSAAhvMbrBa9EZ6evpn/fv3L4uNjUW4o5xMi6MZU15envb444+PXrFixYWy/U/RdSKPiN+XZtDBDA1wMDeKPh81atQBt9tdzxJDQgghpEUidRRZ5WC6rDUydmLehxb3QkJOpQhdt5bPnDnzuQceeGAd5mQ1Kz6ciBFvP/roo4xVq1aNltVJoqtEQxBO9IEOZmhAM1mUHG2Ii4vb9v3vf/+AfNCRWjpLCCGEdBYn9xFrCxccTHPdblAjhHuhgxkd1Ij2iTCNySKPx7NaTaXnpNZ1/jWZZWVlqa+//voJ69evP1u2LxGxT6Zm0MEMLaWiZRguOiMjA6VIhBBCCDmWSG3lo2NtoY73REILxgPJEy0eM2bMC7fddttWcTBRk+nU786Iv2+99VbvRYsWnSGrP8A20Qc6mKGlQrRetObKK68sSEtLwzYhhBBCogidmsea90IHM7pA38sSEbpvLRN7dOWdd965sWfPns0jzMLZVMK2jvjXZJaXl6esWLEie8OGDafLNvpk3igaJkoWERuhgxlaakU7Rd/k5ORs+eEPf3hQfciEEEIIiQ40M9rpXEYvxaJvRG9nZWW9cd111+12uVzo/+zYmkw4nK+99lr/l19++RxZv1bCfiTKMvYS26CDGVrgTKL9+3ei98eMGbNeMhn0z4zUpkCEEEII+TfI77XK8y01QCT6wHgg5SI0l/0sOzt7ycMPP/wlptSzOpqqJlMJYTrhX5NZU1PjWb9+feYrr7wyTMLPl7ArfLuIXdDBDA+7RP8QfZaQkNCo48dKCCGEkJBwRIx35vtEF1D5cVD0tei1uLi4d7///e8Xin3aYNqnToyrMU1NTbHr1q3Lmj179lmvvvrqL81wYhN0MMMDPma0f98zZ86c1ePHjy+QdeMDtpYQ0fEkhBASpURy/udUo51ELoiPaGG3R/TZyJEj/++hhx5a3r1793JMrYcDrOhqq/rVxqNW023WZvYoLCzEyLmPiS4SxeEAEj7oYIaXApfL9clFF1202/xAmeEQQoiD8De0WpP5L8QP/2dkLiP+eTFOEM1Ac9lDonWiF0WLr7766r19+vTBFCaqO5f236ZqLmuRu7Gx0TNv3ryR999//y1yyGRRT+NgEjboYIYXDPjzbkJCwrdo6y4fMAf8IYQQQqLAwSREU1BjiWn1Ph00aNB/3XbbbR8OHDiwJDExEQNVOhZxNF21tbXxBQUFE2Tz975QEi7oYIaXQtFa0dZLLrmkIDU1tVrWj8pUUcKpZAY5mkj7PYRY43RLMg/tMgJdw8kyf9Yxv8sM1gb/+2vvPQb6/47KPGWXEegaoZZ56UBgn3bvv6tB7Yq5aittvAsSfWBwnyrRZtEbog9nzpz59ZQpUw7ExsbWSXw5pjIkyO/aVuBgNjU1xT3xxBOn3H///ddI0J9FGAConyhBREIIHUx72Dh+/Pi3r7nmmt3mNiGEEBKNKCM1kp0eOJY6jdxKB5MEAs1i0Wx2mehxsVNXXHDBBYUej+eYPplOwqzJTFi/fv0U2ZwpOkfUC/tI6KCDaQ/bRZ8MGTLk2+OPP744UIdqQgghhDgeOJaoSdHJwQR0MkkgUFuJmQ8+E304ZcqUFT/+8Y93pqWlqX6Z2oOWAlZJEEaYdb/00ksnLFiwYJxsXyg6F8eS0EEH0x72ijC61dc//elPd2RkZKBpAiGEEBJtNBuBvs2IxCW/UQt7S/dmjUQb0IXrfdHfhw4d+uWll156wO12o3bTsXEH3+DGjRt7iJN5sWxe7wsloYIOpj1gypIi0eq0tLSP8OG6XC5Hf7gtoUqQTAOCEMdjjdMtyTy0ywh0DSfL/FmBSpq1wv/+7JR5S11GoGuEWualA4F9kWqPGL+tsbFRu/hNSCugJrNY9I3o/VNPPXXJzJkzv83KyiqR7aNsVVVooXnhBb4/1GTG5ebmZi1cuHCEbL8i+ploiChNRLoQOpj2gdG5VojeHjp06O7ExMSAHakJIYSQSMZ0Pt2+rYjDcDC9Xi/tLeJEMI3Jm6J/9OvXb8306dP3a+xEBkvMypUr+9x1113TZP1SEZxNTmPSxTDBsw98oOh7eVD06QMPPPClZVRZx3281tKrtmT+C9GcQO/OX+ahhHSIQHHKX+ahtqDb/UQKLdRqRqqDCVBzYtSg+DYJcQxI89DC7jvRvwYNGvTBL37xi83HH388WuFhn/ZpYqD0RtbdXq83fsWKFSfL5rWii4wdpMugg2kv+DDR3GCFGC5fjBo1qszlcjmiE7WVSDG6rEakv8xDjiHQsYFkHq69QQ10uQ/yb6zxo613439sIJmHHkWg47pS5mUMAoXpRGv3p/bpfP9djfU3t0fmv7f6/+YhINZcRiKowaRzSZzMPhH6ZC7Oycn56sorr9yLASrlG3bUFCZ+jmbMwoULc26//fbLZf37op+IThHFi+gfdRI+QPtBrSVGld38wx/+cOeAAQNKdfwoCSGEkBBCeyQM+NfkENJOtogWZGdnL7njjjs2y7LUF+xsFi9ePEK+Cwz8g5rMU0XdEU46DhN0+0Ez2QOibXFxcV9feeWVe2QdDqa2Tqa1dKojznBH/y9asOP5qGvyvRDdCGe8bO+11PH+MndHPcE+jyh4ZkfcbjfjBYkEUJP5qeiTrKysz2+44Yb8tLQ0tL5TA1UeFc9VGhBsWhAuVEGL0pIlS/rfdddd58muCSJMZXIijiMdhw6mPsCxXCQf7Br5CDnYDyGEkGgAhqea4D0SgVHdJAb4McY3IQ5mnejl7t27L5s1a9Y3mZmZFb5g54K5MhcsWHBabW0tmsz+wBdKOor797//vblKbAaZ62FRr9TU1JMLCgpi6+rqEiTjRQlQQAm2NHMxr90SRikV5ktKS0urSk9Pr0pOTq6JjY1t8Hq9RuaK0iIsrb9FCcHmPpynxf2tIccd878INnaatHCMgXl/hlS49TirgsD4zWJcNMnxyrgI6h+FYI/rNG38FuOdym9oxGjH8ny8sq0KQWQ18LNRwjHmgQHfqc5S966QMFt+gz+BjlEKho7+X2ewXMv4DrBEn3NZqn7nbRV4hvwmcX+t0HzfInzPzb/FgnECc592UvcHZDvouBwq5NxNyCvGjRt38OSTT0bTu1d9eyIKjE6Jfl0DPvrooz5ixNrS19T6HmX9yOTJk+EgvOsLIaTdYP52jCFynNh3TWPHjk04fPhw/MGDBz1iI6i0PFDiEboEpXPIZxFznNx/ypo1a7qNHz8+TvKnQRKOVoaYWrBG5J/ek1agg6kPMNgRiTP69euX2b1795Tc3NxMY0/L2PKhWjOqQMCZyszMrJw2bdqBc88999Dpp59e0rdv34aampqY6urqGHE0MVqg9STHrLdyjdYvLrTwv0cFtvEbmne29Vv9OCrxkf+FAQ1D1HAuTeE9W0/a2gXadfHOIPdlrh2Luu+UlJTaoUOHlmdkZNTX1dUdaWhosE4e3ubvaO0aGnPUTTv0N3Q1HcpkzXhkCN+FqNHj8TQgXiFM4lMcDvMdHZCQP/y23q95/7h3OMbqOeCf1D/6nyDQswr572iF5mu39Vs7gPFbzWdkyAj1EfBiiAOSV1T99Kc/hbOzUvSZsSOyyBANl3xvoDiYfe12MNW7EQdzvWzSwSSdAYWDmAlhv3zLR0aMGOH5/PPP+6ByxNgb+Lvv8oSnq1DfSH19fdwXX3yROWrUqG6JiYn4jRgrBU2DHTcIp52g7bG5SjThJNHpoun33XffFPlQ41rKkMyaNtuwGhDXX3/9caNHj8Y2SnnyRXmizaIyEcITRckiJDwYoQvg/iFsIxwGJgQH1Fqbgf9Xx6rfrK4Nhw0fPZZKQB2L86j/Ucc2msK6OjeOg9S1rdfH/+E4fymwjnMpqXuwHqeWeJd4DjA6+rz88st91q5d2xs7BHWfRxGO92x9lxaOPPbYY3hOhSK8y90izIkF1LuCAJ4b1tW7xDaknoH1uQd6T9bfqI5Xx1mfZyBaCm8N/3jRnnOo+/WPJziHut/Wzuf/W1tDXct6Peu94/+t8j/O/3ig7s96r9bnrfa1Bo7pCOr/1DXUN5Mu6rVhw4aTFixYgL4vyJtw383Y8R08+uijx7ndbhT8IT3bJcK3AGMD9477sQrgnlV6jbiO8/k/q5D/jiCwxgu1VPel3o36VoPF+juxbv2d6noqjVDXrBSh5Q6e71YRnMxIA5O4X93Y2HjBvffee2ZDQwPywrCj4rYsUeDpnTdv3t9l8z8RRkgnQfo9XHS26HurVq06+Y033sgx02xrOmC73RoM6lvBVCy//OUvN0kegHRpmegThJPgoIOpHyojvvfJJ5/8zz179qRKxuQx9vhh94fqb4yJMwJjBA7IB6KlInyMMMiAulfrPWMdvzVF1M1cKicUhog6VhkryigBCMP10LQYQjMGLGEUqWNh6FmdVeyrNQVHGEt1buUswfjB/2FdoYzgloxwdR8wRHFOXKcl8C6zREiMz6mrqxsrRsfYQAmxIhzv2f9dAhgi8+fPx+9B7QKMkS9FMLLVM7aC54b3h4wG71K9Q5wXx6tng+eOd6XOAeH94D2pc2Kfep5Y93/u6v8Atq3vIhjU9VS8wP/iOuCY5+CHul8Vt7C03rcS7jkQ+F91XYDjWrqmuhauo66l4ibCsV89F1wTS4SruKyk/l8dr+Ky9X7Vd6S+Icj/vvD/kApv61m1h2zRYNF1s2bN+pHX642TeI97bsaO70DSNCzQDAxNN5GuodYH87+1BN4PHAicB/FdvR+dwHNU8QnxQ8Ur9X5V3MC3im+wK0C8RJqA9B1phLoe8otikXpOLX03Tgbx+sqmpqYL7rnnnrEaOZjPyuYvEEZIF4A0BYWD54suuvPOOy9Gn0ZZPyrdtttuDQZLPmB045DfsiErK+tD2b7bF0yCgU1k9QMRGxntkTPPPLN42LBhPVavXt1LtgN9lLZ+qPIRmms+VqxYUXvBBRfsl9V3RCjxQdMJGCjKcPCX1bjFcWjTjxpPGHQw4iAYIJBah8NqXarj8D8oCcf/l5vCNoRhtJWwjX0oOUdNBIxAJRhUuAcIHdbVeZTwP0rqOJxDSZ0n0G+1Cg4WznEwNja2ZvLkyUjEYrdv3w7DC/i/15C/Z/93CeTe6iZNmrRXVr8WofQOEy3juQT6Teo94hnit+E5q/eIpXo/1mcP4Xgs1fO0Pldl4KrCA6vzo7ZVWKB7aknWc+B9KYc3mPOo4yD8H4R7VMI947yB/hdS/xvMvfsfq66l4qp6dpCKe9b96lla47L1+0C4isvqfFhXz6Ol+1Hy398Z4Xy4du8TTzyxz86dO+OrqqqSZNtK2L+DKVOmbJMFClZQYIaCFtTiB7p/JfVs8B7wHFuLC3ZJvTssVZxS7x+yfntdef/qeoifiHeIg0jHsc/I80SRCFqrYDL3nA8//LC/GN1w6sOOituyNJp4S9qO+PyeEUhI58H3i28Z+Uqt2DVVxx9/fNz69euNrl6qEF1AE20jPkIIwx/NUPeK+3YVFxe7JV/q5vF4UChDgoQOpr6gvTeGfx4mjttgr9eL/m7qQ/Rf2oKZOCiOJCUl1U6YMKGfrH8hgmMB4yQYkCjBmIFho4xhGMLKQbSuQ8pRVPushrIyuLEOIRz71THKGPc3oq0GvDKylLBtNeBxnFX4X5wLRlJb4BicA78BtYE4vzcnJ6cnjI8WEtyQv2e/d2mQkpJSI+8TNUtviTDKMX5/SyBzwTPAb8NzV+9ROTIIU0aremZK6jlin3W/1fDsauOzs+fE//oXnATz/juC9Vp4xtbnhiXCVFxW+9XzxDNvKT5bn7X6f7vAfeBb7tO9e/e+ktb12Lp1q/88ZGH/DsTBxAAtr4k2ipDeBIOKC10dZ7sS/zil4o01LnT1/eN6ODfinoqX0UAP0UkSt+BgDtDAwTRqZUwHExPnE9JV4NtGxQLSypKsrKyML774oj/Ga5BtVyA7Qwh5ut4JcG8x4mAmf/LJJ9lnnnnmDxITE1FYhHQSvxPpGWkBvHSiJ8jgYZivmzNnzqoBAwbAIdGZmMrKSs+GDRswEuBPRXBM0GyStA6czCWS4eeJYV0hS20SrMbGRqYPJNwg/teYAysQEgnAUTcUFxdne6EDHMz4+HjdC0CIs0HrMqOGfPbs2f+84YYbdki8c3yce+mllwYWFBRcIKuYwmSiEUhahAakvuBjRK3P1/Jhrpo4cWKRv/OBjELJDAorqFFVwjZKZr/++ms088RARZB/EzdyLOh/tEm0HaPupqeno4bJMEZEYcP/XYL6+vqj+sAREiZ0LtEmpCPQoSPRBFou7RStEr03fPjwtVOnTt2VlJRU7e9o2m3HBoOyjfLz83v+8Y9/HFFWVjZeguFoklagg6k3aMIG52P10KFD96akpKiPU1u2bduWWlRUNEFWLxT5N3EjLbNHEuHc888/H30VtQADrZirhIQLFEr1KCgowIAwhEQSWhjQloJEFuSQUIMxOdaI/jl+/Pg3rrjiir1iwzq6dQoGLvrrX/86eM+ePd8zg0gL0MHUGziTqOHCEO6r7r777k2JiYmt9YOznZqaGs/TTz99onyEZ8kmHE0SHAWijUOGDCnVpSRPjBD37bff3lRYWIgM4kYRhtsnJJSkinPZ67vvvrNlpE1CooH6+nrYfnQwSahBKzw4mWgu+9HIkSM//vWvf70pPT1ddQdyVK2+KpgRm6j7888/f0JDQ8Onsj1XhAqV40XEAh1MZ4CR9t5MSEj4ABPdy7rOTQncpaWlqf/zP/8zorKy8mYzmLQNBnXa0rNnz2AHEgkbr732Wj95rz+W1Sm+EEJCRvqyZcv6YlAFc5uQSEEXhw41mOj+QPuPhAM4khgQZ63oxezs7Ld+8IMfFHo8Hgzs5ljKy8uTH3roodE7d+68SDYvE40xdpBmmMA4A4y2h8Fgvr3yyiu3nXzyyehAbYASFQi1XlaZu8OGug9z3b179+70p556CjVemDvu16IzRYxvLYOmsXvk3VWIvNZ3qN6pNSycYC7Wf/zjHxg57TRfCCEhI37btm0pdXV1bJ5NIgltagstebU290QiHoy6ioEq0Rrv0zFjxrzy4IMPfoaaTLfb3exoWm0du+ydtlDfj8hVWVmZ8tJLL/UrLCxEi73JoitEsJXYQkCgwe8MUAKEmq3dsbGxG6ZOnYq5CbWtxQRerzcezQjuuuuu8x9++OHZEoTaL8a3lsEUDWhKUpmQkKBV05HGxkbPmjVresv7PMUMIiRUuGtra+OReZvbhEQCWjl05vdFB5OEEziZqBz5XPQn0TvnnXdeSUpKitbdvtqipKSk27x580YvXrwYI8v+hwiVKWghQAfTXBJngEm+F2VlZX2FUp8Ys6ZLp5IeVbpjbsZgZNnDhw8nNzQ0oI06HE3SMhjUacett966NTU1FXN2HvNew/G+1Tu0vkssP/jgg2wx/j+TzZkijBbMaWhIV4P4Zk1DCHE6RpyGJB9kvCbRDhxN2DefTZgw4dHZs2cvGzVq1MHExES01INt02zfKHtHJxtX4WcfuT7//PMe4mRi9oRLRb8UnY590QwdTGdxQLRMtPbMM88sSkpKUh+ktuDDg5N5zz33nDNnzhx8dKRl0FRke3Z29mZJcDEHaovYkOjG5ObmZt13331oCjJchHlO2U+OdDl0LkkEwkITQnxg8ErYOutFfxN9eM0112wbMWJEKQb+acmu0dXRFIxvu6qqKmXp0qX9//CHP1ywefNmzAU/1rc7eqGD6Uy2Tp8+/eXbbrtti/nBae1kAjialZWVHnOTBAY1mBtFX51yyimH5d3qNneakZB6vV70MZgqOsEIJYQQQggJHmW7fhQXF/c/V1999WfnnnvuQY/HAztIe5u2JcrKypLefffdXmIrXWwGRS10MJ0JJrB9v3v37hsHDhxYHBsbqz5IbT5KOCJWSRAck7j7778fTSNQcjVD1FdE/g2ajuDdbhk0aNB+NJPVwcm0vEMQ8+GHH+bIElPQYEkIIcRBaFoTRKIPxMOtosWij6dNm7Z+/Pjxh2DTaljAfgxyj+bav+0kjD9y6NCh9EceeWRMRUXFKtl1kwiF8VFXwUIH05kUiVDTtXbmzJnrzzjjDMyV6QgwgMeCBQt6ySqGdua0F0eDBLVahGlp8mbMmLHb7XbD6dSKlStXZi5cuHCorNLBJF2NURjlWyWEEBIFoOLhPdGLU6ZM2Thq1CjMB+419jgQcTRdGHvkhRdeOEEczusk6BoR7N6ogg6mM8GoW3AqvxZ9dPHFF2N0WVXiozMY9Medl5eXvnnz5tGyfa4vmFjACLJ4t2tycnI2p6WlaTfCWnV1deKqVasyZRXT0BBCCGkDzWoNcS+sxSS6gIJ0TMX3pWjJtddeu/qss84qDDTOCL4jHb4luQdz7WhUay+MPbJz587ujz/++CgJ+54ETUJ4NEEH09nkit7yeDzf9uvXrwIdpGVb90wjpra2NmHBggUDCwoKOK9iYDAn5qeiLwcNGlStmWFigIKCuro69MUkhBDiEHQx0AkJwD7RK6LXpk+fvm3o0KGYvg04Mr6KnRRbWFiY9uc//3mkLH9uBkcNdDCdDZpTYu7Ez2bOnLli9OjRcEyOQWUodmYsqlQHoPlAY2Njwptvvpnt9XqXS9BvRcNE3bCfGCOsoZnsjquvvnrjuHHjkOjqBPoauD/++ON+sv6mCKVzmLKETRsJISQA1jxQE+hkEt1ATSa6gKF13mvXXnvtR5MnT96Tnp6OUfURX7WIs2JHm2uBwbdu+d7d+/btS//rX/86SMKWyPbtIrTeS8TOSIYOpvOpEn0kevv8888/aJcD2QFidu7cmXH33XePk/XxIkzin4Ud5Dj0PcB7xbynqy655JIdstTqvUpC6Vq6dGn2li1b0EwWzWUTRExPCCHkWGBs6uRg0rkkOvOtCFOYLJoyZcq2sWPHlhqhDgXNZSsqKtIefvjhsxYtWoTp+jBIYqqxM4KhQeh84IygxGdbdnb2Z7fddtuG2NjYWh0dTb9SHcNJgVasWAEn5SoR5lgk/wa10x+63e5Nonp5p7Z2elfvT71DvLvNmzenyeqpIjR3TkE4IYSQZpBeus0lISQ4MKYIuoH9bdKkSR/MnDlzY1ZWFhxNw7aFjesvhIcauY65FhRWmzdGnEzPxo0b0VIPlSqYKzOioYPpfPARlovyRZ+Jk7l++PDhh10uV0M4P7r24O+kLFq0qP9dd931A9k8G2GkGTSTXS36ZsSIEYcTExO1mY7GfIdwMOFU0sEkhJDAIK9zNTU1aWNvmXaBdrYBIX7kif4pWpKTk7Pmyiuv3JucnFxlGW8krHG4Pc6l9Vhl86Ims6ysLHXevHljvvvuO4ws+xsRxrKA04lCqIiCDmbkcFj0heiTGTNmrL300kv3yrojMhA4Khg0pqCggA7msaAAYY+800+vuOKKPboVGFRVVSUuXLhwuKyOECUbgYR0Dhq+JJKApelGHgcj0xdECGkH60SvipP5zu9///uvMjMz1eA/jqS4uDj5jTfe6CtpwiWyiZrMMaKe2BdJ0MGMHDCcM2ox14o+GT9+/DfoGI2mldgJVCmKuWk7lvvB0v3Xv/51yMcff/ydbKMTNOZYpMPiA8N3Lxs5ciT6ZGplfGNS4RUrVmQ3NDQMlk1MJkxIZ6BzSSIN5WBqY2+pfNe3RYj2wAZaJfrI5XKt+M1vfrNl1KhRhf4zJ6AAPlSF8B2tvbSibF6xmxIOHTrU/cEHHzx927ZtmBMefTIxdV9EQQcz8sCH+C/R8htvvDG/f//+jinpqamp8SxfvhwDxkwWXS3CKKXkuON2ij7AMpQJaGfIzc3tLQsklIQQQv6N4WA2NDREXBM4QsII5gTH6LLvxsXF/WvGjBmrU1NTa3S0h9rCdEBjYPO+9tpr/TZt2vQj2b4egZEEHczIo1KEWsAv+vXr9/bNN9+cZw7649XVOVGlOiJ3dXV10uuvv44pS84TcdAfHxiiG7WX+0455ZSixMREJLTGe9TkncYsW7asR3l5Od8XIYQcC7qBsMaQkI6DQQ6LReiX+Zno49mzZ6+aOnXqLrGB0JUoZHaQnN9ca5u2jsV+2LtYlzQhFn0yX3jhhRM/++wz2E//K7pZBBu4h8jR0MGMXFDS81RCQsIXvXv3rnS73ZhfSHvkw3N98cUXWa+++iqmLfm+L5SYHLryyitRK11pOpXaFBYUFRWlzZs3D/0wCSGE/BsYk6o7iE5ok38Q0g5Q4L5JtFT00vjx49eIPWRUoGCnA0Ha4HrnnXey58+ff7FsTxNdIBqInU6GDmbkUi06KFp52223vXXttdfulg/QKOXBh6iEA3XBUqoTt2nTpu6bN28eKZvPitBkNlsU7fF1j8fj2XDOOeeUyPpR787ud4mSONQ+m5uEEEJ8IG3WKr/VLe8npB3AjsWYIwUijDmybN68eW9df/312yVeo5bzKBtXScI7hPyvudY2bR1r3Q9711LohBFm49Evc8WKFUNle4oIrfgcDR3MyGel6P9GjRq1TSJ3U2c+tHBSU1OT+Nxzz52Ul5eHZgNjRYNE0d6HBX0x1w4ZMqRI0/cYfEpMCCHRwxGXy0WnjpCuA+OLbBEtET0vNu4m+ca6tCbT6hC2RXuObQGcIObdd9/tf/fdd2M8CziZjoYOZuRTJcKUJZ/MmzdveXZ2tqr90jKz8yvVOU4+tl61tbWTZHWiCNNhRDP7RVvj4uKKExISMM8pSvKaQcJqlRkcUvzf18MPP1yyYcMGJPqzRRxVlhAS7SAt9sbGxh6VXtsI8gfciy73Q0hngE0Lm+OtRx99dMEtt9yy1e1210kcN2ozTdmO3I+5djSm/dS807SpXCtWrDhJNjG4412ic0UZIkdBBzPyQVMCNJVFp+hPpk+fXoBBYpQDgqVVCNOImL1792bcd999Z3u93vGyfaYvOGopEmEApwNDhgwpN4foNrA6eXZgJooxJSUl3f7v//5viASpuTEJISSaMRxMMXq1cOiQz8fHx+NedMvvCekI5aJ80TLRP8U2WnPJJZfsS0tLq7LaSO21deUYc61t2nNsSygbSlYNvfPOOwMeeOAB2L2oXDlf5Lg+mXQwo4M60XYRRpb9/NZbb0UJD+bHdEIGY3x0//znP4c0NDT82AyLZjCC7OYZM2as79OnDzq7a0leXh5GQbvct0UIIVGL4WB2dfO9TnAkNjYWtTuswSSRRKlos+jZ8ePHP3nvvfeuP+WUU0rw3Rl7baQ1B7SlfQivq6uLW7hw4TCxfdFc9grfHudABzM6wAd2SLRVtCI7O3vdOeecc8gy3YV2jqalNAfErFmzpvdvf/tb9MV8W/Rz0RmidFG0gcICjKC29oILLkDiaZTQaWK4KGJeffXVfuvXr8f7IoSQaAZpc6MOhq4FNpElkQYGttwnwrgj77jd7uUzZszYcPrppxcmJydjX9C05hD6055j/Qn0v9aazKamJvfq1av7zp8/f1RxcTFGln1CNEHUR6S9/0YHM7rAHEKfiD6aOnXqljPOOANNLh2BfHAuaMGCBWNKS0tvlCA0G0BTzGgDhQIbRKtHjBix32zurJ2hUFFRkfTee+/1NDcJISRagYOpTY0hCiNjY2O1K1QmpAvBCLMvQ1dfffVXP/jBDzB+RVB0xmEMREfO5/8/Yk8lPvvssyfu2rXre7J5kwjLBOzTGTqY0QVqv/ChYY7M98XJ3AAHxawFMzIcZD5WIcxOLKU5hpO5YcOGno8//jj692EIZziZ0QYMFXRqz3e73RtuvPHG73Rs7oxpSw4fPpxsbhJCSLSCtBkjuDfFxcXRsSMk9KDGcodotej9s88+++u0tLQy2EpWm7KzyDdtrgWmtf1t/a8JDkJNZpzYU+kvv/xyzrp1686WMDiY2tu/dDCjE/THfEH0CQaL8Xg8cFCA9pkfnMyamhrPnDlzzikoKHBcm/QuBP0NVubk5Kzr0aMHBnLSDnlX0T6tDCGEANReapG/wrj2er2w/brEyCZEY/JFr4k+nT59+v6MjAzMqtAiQTp9Bu05tj20ct4YtAz717/+1X/VqlVwMGf6gvWFDmZ0AocStWBfzZgx48Vf/epXWyRSa90fw1rqBCezrKws9cUXXxwgmxjG+V4RSnWyRNECRk7bKNpw5ZVX7k1LS8O27fi/pzvvvLN+/fr138rmr0QY+IcQQoh9xDQ2NsL2o/1HIh3YuodFu4YPH7554sSJxWLrHtVKzyrjP7oIOZ+5diwt7bOGK1sKUuGy7vZ6vfHLly/Peuedd2BP/Z9ohmioKFakFUxgops1oj9lZmaukwiMJjzNH5glYofk4+so6r5ErsLCwh533HHHhbK8THZh0J/jjYOiA5TEYdCmjTk5Od+df/75qNHEO2p+T9Z3F+73h3eEJZrKfvbZZ91kFe9nDMIIISTKaNnaDDNImzF4iKzS/iPRAqbq+3rMmDEtjjsiNpK51jbtObaz4FrK7jWDjqusrEz5/PPPj3/iiScu3r9//68l6FSRdn0y3b///e/NVRKloE9f6uTJk+GEpGzfvh0jsyIiG5HZ70MK31cVBOre5GNzn3LKKRmyjQCMIBZNePBn4MCB6UuXLj1RVvEMWnpPYX1/6v3U1dW5jj/+eE9GRgb6RSw2AgkJzPeWLFmCub8CxeOQx1+/9O64KVOmPGCuEtJReohQwzBo+fLlAxoaGuKM0DCj4jaW4mAeN2nSJIzF8J4RSCIZ2AgYcC9bhLkUB4kwQCLi5CmikSI4KFaNEmEfaskw4f9gEf4vR4SWY/1F/UQo1Md5IaxDKhxLq/A/+F+cw/8eRotQAI25ztEa7SwRCqVxHzgG/9NXlClKEyWJUGMXbPcgXA/XGXzhhRf2EVvJCFRY0v2g8hj/fMKf1va3tC+YcLWulrCtSkpK4kePHo1CfLzjVcYOTYBXbK6SKAUxFRPinylx4ZrZs2efhT6Osn5M/zlrCYoOyEemIi+c46b58+cvl/UFImScqN3Tpt9LCIHxgoT7xw888MAtVVVVCWhCYewJQDjfoeX9YN07b968j2U5yQwiJBAP3HHHHb+VeIralaPiajjirjXOgscee4y1PKSzoODvcom/F959993jxMFM9AWHFxW3ZWkMOCTp8d9l81aEkYgBThfyf9RmYYltOB9wAOGAZIjgoCknDQPxwQFVx6t0FwM/QhgY0l8NIjQ9VcfAzrJ2scL/W9NqtQ3BrsQ9oZAF14XUfSSL7ZIo9idsGJfb7W5KTk6ukriK+b4xzR5qH7HEbAhl5hJh6l78sablKLS8aPPmzWc899xzJ/uC/o1cw1w7mkB5TkvHKlrb3959bYXJOn7jkbi4uLpf/OIX32RlZWnVSowOJgFIgFCydJlkft979NFHTykpKUHYUYTDwGsP5selODJ27Nh9l1122XZJmF6R7ddFaEaKBDGSQaaAxHmaJMoz3n777UErVqxAZhLwXYXzHVrfj6w3/fSnP/126NChGAGYkJagg0kiDdT+/EjiLxzMc+x2MAVVIPusrNPBjCxQc4haStQ8niCCUwlbLkXinaeystJTXV0dV1VVFVdbWxsry9i6ujo3asLEsXM1NjYaaSymsUlMTGxKSEiAvB6Ppyk+Pt4rjkwTHD+Xy4VtjIqsHEtruhkwnZbrIxzNs40+wLLtlntw4x7kvmLLyspi5d7c5eXlbhyLEZd79OjRmJGR0dC7d+/atLS02m7dutWlpKTUyf3VSxxWDi9a4R2VbgvYVlMDHZFr9v3yyy/7L168OFPOf9T86XIec+1Y/POc1o5VtHZMS/vaE24Nk3Xjd2OO3b59+5b+53/+p1bjkNDBJIpU0Tmi7+3Zs2fKc889d0JFRUUyDL1wGHadQX1kslQls6/KJpzMTaI92BcFjBN9XxLpiQ8++OAY850d897C+S7Ve1Ecf/zxRbfeemueZFbvyCZGMcZAU1qOgEtsgw4miTTgYF4hRu7Ee+65ZywdTNKFoDYQtYBwItGaCc1Z4VyO2rx588kLFy7sXVpamuqfnqq01D+905R23yN+F6bfQzwXR/gInGn5/o5pmi77zbXA+Oc5bR3f2v6W9rUnPFCY/E7j+cg+OP4NDzzwwEpZf0qC1ot2YZ9dMPMkCvSPw6A/S/r16/fFjBkzdiKyGnscAhJRSUTcS5cuRXOIX4rQ5j5a2Clamp6evhMJjUi7jGP//v1pf/rTn9CfAv0q0Cw7mkb9JYREJ7AKtS+oJY4EzUtRY3mh6Nder/fWNWvW/HjBggVjX3311X6HDx9OkXiHZqmRFvfwe1oUbEF5FnGieDS5FbsQjninCOTc6YRp/8b94x//GC5LjNr/Q98e+6CDSRRoToA27ei7uDwnJ+eLc889tzAxMbEGzoqODosCGbcl845ZsmRJ3yeeeOJ0Wdd+ItouBLWBmA5k+9SpU3enpqaieTDemW3vze+9HIfEvrCwsFtBQQFKWS8QoQkPIYREA3pbqMRJoNYSg+Sg5dIPRFNWrVo1/qGHHjr1lVdeGZSbm5tVXV2dbHWsVH5szZOtYTrKvE0s/RXMvaNQx5D6HyvtcRiDOba1Y1ra157wlsLU78U2fus333yTMW/ePAzUdD7C7IQOJvEHwzm/L1rygx/8YOeQIUPQmdpRyEfmRm3Zxx9/jOlLogU0NUWH92/HjRv39TnnnAOHU0dinn322RzJAKfKOmozCSGEEBI86Ed4nujHa9as+Y85c+Z8/8033+xXUVGBrk5wNgJ7LsSgJceuo7R2vvZeK9jjAx2HMBQqVFZWJi9btgwj8doKHUziD2oyMWrXxri4uBdnzJixKikpqdpsz35UTabatobpAEpz8JHJB5YljgxqZP8kmi5CU5JIBe8AI6mhFvPzM88886C8M6//u7HjfakSNiVJ/JIWLlzYR3ahrwghhEQ6SHO1yieJI0GNJEYKvVx04ebNm0+VvDS7rKwsDS2EJH+NKJve33awyjwkJFivIfaSEdbVtOe8wRxrOQb37v7yyy8zXn/99QLZflp0qQizDYQVOpikJeCoPCNaNnjw4HKPx4PRuowMEg4KhHWdsCQKxrK6ujrxxRdfPGHOnDk/kTAITTMjGbyTPNFn6enp+xISEtCHVjvDBv0EysvLUyVDpINJCIl0mvNNY8tmdM2/SZvAtkHT2O+JQ/mTuXPnTnzuuedOqqmpSVS2T2syzhBlBPrtEvfNtWPpyLNq7Xwt7WtPeLBh/oj9m5Sbm9t7zZo16I5ki/1LB5O0xcoZM2Y88OCDD65ISkqqQU2mGe4IJLFwVVZWJqxatQpzH93kC41o0FQWzZzX/u53v1vTs2fPciNUQ955551B8n4w4/E1IoyA1+L8nYQQ4lAMa7C9hmsYoJPpLDA43nWicxYtWtS/oqICA/yQdhCMY2alrePbe75Q0cJ9GIGffPJJxo4dO+BcTsB2OKGDSdpigwgTMn98ww03fJeZmVkukRnNaHUHH5dRGoWmI2+88cbAu+66C80EFotuEaGZSSQm0KhpxmBN6+Li4r6aOHFisbVQAM/DbkNH3cOnn356/Jw5c86UIIwoi3lYmWESQiIRIz/yrWoBnUvngGaxmNoGDua0xYsXn5qbm9urpqYGtZk6xSltUTZHWzIPN+is89jS/7cnPNgw4Pc71EExhw8fTn/ttdcGih18rmw/IMLsCpiyJfCJuhA6mCQY4FC+M2jQoMfFSVuXmppq9Mn07dKe5g8N/TJfffXV4bW1tTNkG0M4Y6StSAS1mLmiz8eMGbP9lFNOKZFEScdCgZiqqir0G0Fn9O+LehuhhBASOSAPckv+w6lKSEfoLhouOmXhwoXDPvvsM7T2AYxL7aAlx6yjtHa+9l4r2OMDHecfFuiYurq6+Ndffx2jDsPWQtekvqJj5gXtauhgkmBAaec3ovcl8i6/99571/ft2/ew6WRqVxLqV5IDsI7M3f3VV1/1ue+++86SzB4jsH3PtzviwHvZJ8I7y502bdpOj8dTjx3y/rTqfwOn/4033kDzjbEiTEhOCCGRBPKhWK/Xi/kItcDMA1iL6QwwX/QZoqErV67sU1VVlSzrhm3jZ+eQFgjkdLVGe48Plvact7P3oOIGgJ21efPmXl988QVsrJGiHFHIuyTRwSTtoVT0amxs7HM33XTTdxj4R+Ku0zIpfHTuefPmjcrLy7vKDItU0FT2k7S0tDWpqam1sq5jYYBLnP6MDRs2nCibyEQJISSSgKUYW1dX1+nJ3klUgtqm761fv/5E5JeyHhrvhxgE49i1dkxL+9oT3tGwlq5hEiMOZpos0XIPzWTR7Dqk0MEk7QG1YDtFq9LT0xfNmTPHmMJEInWT6KiaMbXtHx5uVCmOvwoLC3s8++yzJ5aXl6+Sw/4oukQUadOYVIq2iL658sor94qjiQF/jHdh93uxENPY2Jjw/vvvo5TW9nmbCCGki4GdFScOJmowW7UACbGAeINapp75+fknLVmyJFPWjfij7Bisk9YRO8dc6xpaO19XX6s1grkWjrHGE8ys8PXXX6MwnzWYRFvgZP5VIu/rI0eOLJOlEwb9OQYM/vPwww+PWrNmzQ9kE8LAP5EEai0xD9L2nJycrZdeemmhEapfTWbMoUOH0h544IGzZf0d0URRc2ZKCCEOBulYbENDgzZNZIkjQHzBwHfdMW90UVFRqhFKgqa9Dl97jw+Wls4bKDzYMH/8jwm0XVtbm/DBBx9kyybmIWcfTKIlmF8RzWVzp0+f/tp99923XiJvk2zbXmMZLGapDmrPPO+++26vgoICjGYKxyaSwHtQ/TE/P/XUU79r6d2o9xbOd2ctWZN1d0VFRXJeXh5Gk0XfWPQTYJMyQojTQTrnqq+vp71F2gOcS0yO31vyRgyG1xx/wp1XRwPyPM21lmntmGD+30qwxwc6rr3XUiAO1dXVwbHsJkLcCilM8EhnwKT+z6enp69yuVwNEunhZDoGODgQJv1//PHHR69atepCCX5W9CNRgqhjX7F+YF7Mz0Tb5R15RdpkTOodmOuuN998s09hYeEU2TxdxHkxoxgVN6xxhBCHgvjLeEzaAwbzOUHUp7GxsVVbHXm6khkU9cizMNe6ho6erz3/11XXaG3bTINQG464FVLoYJLOUC3aL/r80UcfffWnP/0pHE4kcE5M5GLQxyEvLw/9AFGTeZEo5B9gmEBfzN2i/KuuumpXampqhRGqIcXFxcmLFi3qJ6sYlh21yoQQ4mSQHzbFxsYaYxX4gghpExRy9xR1E6eAU9y0g/Y6au093p+W/r894R0Na+karYB/QOE9pr8JKXQwSWdQk/qvFy0aOnToxqysrFK3243BgBzjaCLhhsrLy9P/9re/Dc3Pzz9HgieLMNJWJIC+mOh/+d2YMWM2T5w4Ee/MeDeSOGlR6qnegdfrTdi6dWtWWVnZyRI8zreXEEIcC9JXr8vl0qWFjyPyZdLsBKTQuQwdwThorR3TXgevvcdb6ci9BvgfBKCZbMj79NLBJF3BARGczE9mzZr1ybnnnqsGk3EcSMhfe+21frm5uajFvNgXGjGghvlf48aNQ1NZGBnaGhrPPffcCQUFBdPMTUIIcSpIZxuSkpLQH14XtE7/iYHhCIhNggGi2vYsiEFnHLhAdPR87fm/QMcG8//+x7RjG99+yAfnpINJugI0wdwj+kr08dSpU7fm5OQUud1uDAZkIBHbKX0EMIVJtwULFgzOy8vDqKYviWaIUKOGjtFOBiPKrhZtOfvss/eLwVMj61oZGqomc+/evRl//OMfI6UGmRASvaDmsiExMREOphZprQPyYeKLK43yrrxxcXF8X0Egz8pcC472Hu9PS//fnvDOhHUEOY8Rr0RVRkAIoYNJugpkot+Klos+/c///M9NGRkZiMBOTBjxJce88MILAxYuXDhe1q81NVjkZPA+MKIsRv/9Yty4cUVGqJ7ENDU1cVh/QojTQd5YHxsbi4HwtMgPTYeFToveoIC+TFSlS7zRmfY6YMEc39oxobheSwT6X/+wdm6jciHkLQ3pYJKuBIPHYDCZz10u18e//vWvvxk1alShRGxUxWufQKraM6Xq6urkzz77rPeCBQtGNjQ0TJBDLvUd6VhQaoWBmTaKPpkwYcKexMTEWnk/uo7+G/Pwww+X5OXl4X7vEA0zQklUIPGyudUDZAYT4jQQd+utLXrshN+SY4ATgJZhh+SdHZVHKxvF3CQhQJ65udY+2vN/gY4N5v+DPOaYvFPWmzweD8bkQMEFWrSFFDqYpKtBc9lVovcSEhI+v/zyy/N1yVg7QlNTU+yGDRt6zpkz57RnnnnmZknUl0ownJ2xIid+P0hs4LAtlffzHWqZXS5XyNvid5TS0tLUV155BfM1nSvC/JiEEOIkjCayYtw16tLU0TQ66WjqDWyp7aICsaG0ml5MN+TZmGvB0d7j/Wnp/9sbHgzB/K//MS1tw9abNWsWWrKh9RoKL0IKHUzS1SARRAkJajKXpKSkLH7ooYfWjB07Fk0zjQRSIvtRNRNK2KcTqoRQlu7q6urEvLy8HosWLTpJtjHC7A9FmMrEiWCU30OilbfddtuKwYMHHzZCBfxmnd6L3I+rsrLSk5ubO1Q2MbovIYQ4CaShKMTTqaWIdvktOQY1+nux5NHVmGtc1gPaUAiLVuT3m2vBEczxrR3T3uu1RKDzdOTe2rPdvXt3OJdbROjOxj6YxLHAgVkmei8uLu7TqVOn5ksCaXRYlzAkiE5LFNEnMHbFihXZd9555wXibE6VsOm+XY4EpaMrRB+ef/75ReZ7QWKkxXuBowvJqvHcX3jhhRPl2WPQJUIIcRJIU+Fc6toVgegJHMpSUcnQoUMrk5OTUTAMotqh7Az+zlcggjkmEC39X6Dwjoa1dI0gOTJixAh0Y8sVbRahCXZIoYNJQs0u0TviZL41b968JRdffHHIq+VDjOH4vPnmm73FyTxTtp8X/Vw0SpQocgroj3lQ9O2QIUPWzJgxY7tZQqojxjP/9NNPQz4xMCGEdDGwCmFr6WRvdcpSJWHl0Kmnnrp2+vTpBeJg0Lm00EmHq920dL32hgdDMP/rf0wr20cwa8CECRNg860VbRKhhjyk0MEkoQZNPDA1BkaXXSoRfDOmMImNja2Tbe0TS1WTpmQGYyqTHk8//fTQhQsXTpRw1GSidm2AsdcZoMYSpaPfiVaPHDnym5SUFCQ4x7wTSaRsa45jfeboj3n//fejBG6hCM875BMFE0JIJ0Eapo2DacnLmq1PojVoDbZm2LBhe2XpKAfT33boSvtBzmWuBUcwx7d2THuv1xKBztPWuWX/EZfLddRzVNvmIa2BYxvFxiuW9bNEC0Q7RapGPGTQwSThIl+EAXIWzpw5891p06ap0jhHJZgWkCLErF27tscrr7wytKmp6UrZvtHY4yyQeX0oWjV69OjDbrc75IlORxGjyFVbW5uQn5+fI5uXiFCDTAghOoO8QqsJ8+vr62H7aXEvpE1Q67Ra7KVdyrnwBUcv8gzMteAI5vj2nlPR0v8FCu9MWFv4/4/aluURVB5cdNFFmKc+rNDBJOECtWXoWIwRZpeNHTt2rTiZOzFNhmwbCSY+BCx1RpX+KlVXVyetW7eu10MPPXR6QUHBhXLI70STRH1FTmgyi47eGKlu49SpUzdOmjTpgKxr5firZy2rRn/Md999t3ddXd15sj3GOIAQQvQFdlacpF26zOtrpKWmiP5gEL5togPmtGLajfoO2y2QzN1HEegY/7Bwy7920F8t7W9veDBq4X+NZ6ewbmM//sfcNLDsP5KRkVH2m9/8Bl3V1viCwgcdTBJOMMgBquY/Fy0aN27cstGjR5fgA8FOpyLOj6uioiLpf//3f3O2bNmCmkzoFFEm9jsEJEBvi4OJtvlas2vXrm7z588fLqt0MAkhugNrLxaFY2ZBme2oAjvfFtEctCqCk3n4tNNOOyxOJroXRS3+zlZbtPd4fzr7/4pA5wnm3J29/syZM2HbweZG38uwQgeThBtM9L9ftE70yfTp0z+55ZZbtppNM48puZEwrVEGA4wH9BF8/vnnT8jPz0fTTUxjglo2p4Cmsl+I1l933XXbe/TogYl4tXr+eNaQPOu4kpKS9Ly8PExd8qwIzWUTREzPCCG6gTzC7fV6dUqfOme1knBizKMq2jNt2rT1F1xwAeYwdHShvJX22HlyrLkWHMEc39oxHdkXKLwzYf74H9PSdlJSUtV9992HFmmwtdE9DbXgYYUGGbEDNIvdIcI0Gf8YMmTISrQRlw/D6TWZMCLi//KXvwyZO3futRJ0uW+PI0ATZgxdvfbUU0/96pJLLkG/D6DrO4l59tlnT5wzZw4GWBotShbFYQchhGgGrL62rcfwotv9kNbBgHwfjR07tsC3GV0E43xZCeb49p5T0dL/dfR8IND/+oe1Z/uuu+4qi42NhVO5UvSeKOwzONDBJHaBaTIwqhWcmk9nz5799i233IIJYOHQOMrRVDVr5mYMnMxDhw6lr1+/foRs/0v0W9FFomyRrqhS0jzR+xhVNisrC4P+6Dp1yXHynOPKy8tT5NmPl82bRCcZO0hEoL4rv++LECfiuHyNaAdGkV2TkJBQgFH4xZnQri+mk/HPa/ydt7Zo6fhA4cGcuwPXR6u/pp49exY/8MADX0vQYtEE0f+KMOdl2OMLHUxiJ2gui1K5z0SvDxky5GsknC6Xq/lDMD8axzSZNUEi5X7xxRdPvOOOOy7ds2fPFRKG2szBxl69Qc0yEqaNF1988UHL1CU6Pns8Z9fdd989bsWKFbfKNuYiJYQQ3XBS/kX0BM0d4Tjs7d27d6XYSSik1zVvVhj3J3G/SeQ1l4bUPhzUFnK8uRYcwRzvf4xsW21NM/RYWtvnT6Bjgw3zx/8YbIuaEA/QxSwuLq7297//fdXMmTNRw42pAd82DrQRt9yQuUqIbSCxwfyGx02aNKm+Z8+eiRs2bOiBbcH/y2v7S7SJFhKJmL1798ZmZWV169GjRz/ZPkGEgh3UDMJ5w2/XCST4uKd4uWevqNf69eszZBs/Tv1AW99BoOd88OBB93nnnZciq6/6QohD+d6SJUtQI22Nb2HDP25NmTLlAXOVkI6CvAz9xQcuX748G33IjdAwo+K2LA0jevLkyetl810jkDgF2A69xo4dm1hWVtZdbAs1F7Q14bI93VTA+UlLS6s+9dRTi88///xCLEeNGlUyePDg8vT09Jr6+npUJhxpbGx04RyIl77//Dctnbslgjm+rWNa2h9MuKwrhzqgs9rWNmjtGFk/Ehsb24ARhcePH3/gJz/5yQ55tmvF/vlIdi8SoTksHEy0RsPgULaBGgBzlRDbGSY6XTT1mWeeGbd9+/Y0SXgweAs45itUTRl0BQmBuWokOElJSTU/+9nPtmdnZ78pYSoBwAhfuoHnCmcYNYI/nTt37rlFRUVpyjCyPnfLbzQI5zvxf76SkVXNmjVrY0JCwh8lDP17S0Qo5SXO4YE77rjjt6iZlvWj4lI44pZ/fH7sscfYyod0FrRcuULSz4n33HPP2IaGBlumr1JxG2klNG/evL/LJlp+EOeAPPg00Xl79uy59k9/+tMpZrrYnDaGMw9W+KebN9xwQ9Mpp5wC57FQhPEcUPuKcR6QH+P+8DswbkKaucQ3oX6H9f7b+i1HXTcI1PkC/V9L12rvNXC8EjgmL+skOK+qoEBtJWxIdC+D0BpQG+hgEp1AYtNThNFXz1uxYsV5ixYtGuCfgCrsSEjbg1+ii7mKvJmZmRVXXnnlnpycHCQGaO4y19irH0ki9Bm9WDTxiSeeOHPv3r1GTab1uftnLOF8J/7PF/1FzzzzzEPTp0//UrYxatobIoyOS5wDHUwSaZwo+pHE3wvvvvvuc+lgkk6ANBA14qMlPs0SxmPMBzPcIJx5sMI/3fzNb35TlZ2djZHokQ9/IoKDido0tI7C/UGxIjiaWKo5YsN+7yHC+jxC8ZvwHOHAo28l5jIvN4URhrWBDibRDSQ0J4tOFf1g/fr1p//rX//Krq6uViVcLWJHwhoslgTYaDYxZsyYA1ddddVWWUdN2zIRSvngDNnapMEPNDlFLeaEgoKCHz399NMnVlVVobSx2cn0z1hsztzgZNZjbtVrr70Wz/U50RJjD3EKdDBJpAEH83KJv3Awx9HB7BI8IjxHNBFFPoUCUTgrylEBqC2DEY55I5UwD3ckMEh0+4r/3955wEdVpe/fNNIDgRB6D6H3ooHQCdEVBWyriF3357r+dVGBdS2A2GBhLWtZ0XVdsVcEK0VKQlF6MJRACARCCSGQnpDC/31u7o03N3cmM8kkmZk838/nydx7zpnJ3HPvnHPeU94TFxe7cuXKtmJkKjO9GqL+BcZys3379hkzZ848KYfw8E4aKaw8ibOBCiFFtFH0yaBBg76Ljo7OQIUo55UKMRdFMc527tzZ4vnnnx+cmJj4RzmfK+HXirA+05mAE6a9os3t2rVLnDZt2inVsYCzouyRuXv37ub79+/vJ+dwrkQIIcS9CBXBcIeXzFtE/0+Ejql5qp6W87+JHhbBwzi2s5ogchdyRTtHjRq1s0WLFjh2Krp06VIoRi+WqJBGDJ38EGdEm1+Oof/8iIiIwnHjxpWKUdb04sWLnlJ5VBndUGmQ3jsbwXcTO1n5ijAyvQsKCvwSEhKCd+3aFSZGNHog0Ru7HgmcBBj06PWF0V/apk0bv23btnUuLCxET7F2LUYa4h7ovwvy1guOlcQoDg4NDf23Gk5cA2tOfur82TI+03TyQxwAlhZgy6pua9as6eBETn6wAburOflpI+ovukKEcmJoUVFR/927d/eUvO3y3XffdYiLi2uzZcuWNqmpqa2ysrJae3l5tQoKCmoj14wlH+PwHhH8PXQSYamKK4Kbic7eoLy8vH7JyclYXiSXqNzjOi8njaj/twLJ86IOHToUh4SEvKUGkUYIGmPqISFOB6a7YOoLKugpYozd//XXX7fOzs5WClNRJeRZrveC1V5QsauHGkplj6mdffr0uXD77be3VcOdCdwHrPO4af369XN/+OGH1iUlJZiiVIWGugfGfJVzxX33okWLTL8ncVo4RZa4G5Gim0pLS8f//e9/v8JJpsiWqlNkH0CYCzFGNLWwsHCYlO19JS+9xcD0krIBQvmgLyOUuhXXi2NfX99Sb29vdJaWXXHFFVl9+/bNbNeuHRzmuCK4TqxdjE1KSnpx6dKlPbXrr49y0oj2bGnAwGzRokX+nDlz0HYjjRRWnsSZQWWAaZrwRBbfv3//1+fOnfvTpEmTjgcGBlZMC0GBCqmViSI1yunQvqsmCcKrZ4kYbL/99lvz7du3w7Pst6JnRTeJnAHcBywm3zd27NhP5s+fv1Py2KmmLOvyUwF5Kg06n9WrV6fI6Q+ie0StEEcIIfUIyiWvsrIyzQhqcNQ60mnrSR3o3MTMHvgCuEv0x4yMjJGfffZZ16ysrOD8/PwArD+UvPWWvEX+KjOcVCHPvSW+CdIgbXZ2dhA6qH/++efwDz74oJMYqFiK8y8RllO4wj7VGrh3mOmVGRkZmRQdHX1SrZOVe6sXwuob5Pu5c+cwOEAaMTQwibOjGZk7RK+JVoqBmTRq1Khz6npApzcqrSGVYIWxiYrw448/jpg9e/bEhQsX3i/Rt4lmiLCeEFNo9Q4MGoLDog/9/Px+FRXBK66cO1VDRctL9dTjp59+6vDYY49NlGNMi+qshBJCSP2hGZhsb9kH8g0zUNAxeMX58+fvl3rxphdeeGHInj17WqvxVTptrUl9jwc6dNPT00Mff/zxEa+99ho6clFHoJ51NeA5NPGqq646Jm0gxcBsCEzy2gtGvRpNGiks8Iir8asUpG/FxMSsuu+++w6GhISggHUr0PuXmZkZsH79+j5yCiPzTtHNIky1akhg6MMz3O5nn312zbXXXnvc2Q17VHby4iGNE0yFcpYRYUIIaSi0TkFnLrvRNm0mwtpVdLJet3Llyo6oF+VYMSwdAeqH06dPByUlJY2Q00nloS4FZnet9/X13ePn54cRTaeuj0njggYmcTUOieCY4OfIyMhtM2bMOC5GZo4YOhhNU1CNCpdD7fmDlCmzUqF2euyxxybs2bPnaom+RnS5CKNwqHgVRzui+gQOf7BZ8m+iNdHR0Ud0I5kKMDg1qUENgpaXcqjk56uvvhqZkpKCXmriImj3UHcvCSHuD2bqYDsseFUfnpGR8Ycnn3wyOiEhoSXqRSSoKSbliQec7S1durSX1A9wHORqYFsz7Kd9WOrii2b1bkPUx1oez549u0Bd9oNOcrRbSCOCBiZxRS6KNos+6dat25qZM2fuCw4Oxuiau6EU0suXL28jGl5WVobRzL+KYGjCTXuDeCMUjojWSqW1NzY29rS/vz88/jp1z2lubm4A8lE9JYSQ+gJlI5yONdgURiMN3QFYDXDi10U0WQzK67/++uuOhYWFTaQurKv2qlbPOqODverAMqEcUXaPHj3y4CxQCXUSMBvrl19+aSqHmEHkigY8qQU0MIkrgor6uGi7aH1ISMimP//5z0nY3FcqTnjIc2pjpzq03j/11CM7Ozs4Li6u3YIFC4YmJCTEShg0WoQptA0Bek0xkrxt1KhRW2NiYs4i3+Xc6fJdy0up6HxOnToVkpSUhH09/yvCvqMdkIYQQuoQlIslMDBdvW6qY9BhGiTqKRoj5Xb0c889N0DK7OZyXMX/gFa2q6d2Y3i/x8mTJ5vOnz8fM3Q+FA0XuYIHVNS7MCozbrjhhqRhw4adU0JNwLNXX8+f9r8EL0xBLi4uhpOmqPJY0liggUlcGay/jBetCA8PX/Pggw8eUB3/uCU5OTkBn332WccvvvjixpKSkgclCJtHNxTIZ3jg+xhTZTFN1tkbT6WlpT7Lli3rsmfPHlR0mHI8UokghJC6QzMw3bZuchCYFgvnPRMyMjJuk7K6b25ubmBZWVm9OLfDaBv+X3Z2NqbmThD1UCJcgzTRz1OnTk2WVzxvTlMXFxQU+C5atKifGJtY50oaETQwiSuDCjtTdFC0zsfHZ93zzz+/ddSoUSeMvXXauTHcmTH2sKI3UApr/y1btrRdsmRJ38LCQuwJBhfrmDqLabP12eOKPISDgf2Sn1sff/zxPSEhIRVbxwBnynM1Hz3gqv7LL79se/z4cXiVHatEEqfEmZ4fQmqBMsokz3Cx1FF8jquC/RyxFUlv0RTRiNdff737b7/9FgqjT85rPEppC7p6FjNdvH7++ed2coy6tRfiXYRTonhvb+8UdGQ4U3kpeeuZmZnZdMeOHZ3UINJIoIFJ3IGzovWilVLArpg6dSoMTneuyD3gYv3pp58e+vbbb9+YkpLymIShYq7vKZ/wWoe8/zk0NHTt5ZdfjqmzTp/veXl5ga+++mrvXbt2jVODCCGkroATNKxTN3XCQpQtuNA5GiVl8p8WLlx4eU5OTjC27VJi6xePTZs2tX7yySdHyXFDLUGpCadF8EuRAm+y8pw5zXpfFQ8x3F1hyjFxIDQwiTugrUNIFcWJli9ZsuSje++9d78YnJW8nLoiWg+rXhKs7Jt56NChZp999ll7dTTzT8ob6hc0nLA/5vbY2Nitt9xyS7KzTgXT5x3WZK5YsSJ8//79iXL+H9F0Edb+EEKII9HqJ3TI1SswaDWpQc4E1lzC6BgkQvk7YeXKla3OnTsXKOW0adtUK8PVcrxa9NevlxptCkYxpT6F0YsRVVcBzxier6QFCxb8PGnSJEyZbbB7bnaf5L76f/nll/Cd8bYIazLhzIm4MTQwiTuBKZvbRCtE7/fq1WvHwIEDz/n7+xeoRk9FgWtvpeNsaIU3jEyMZj755JOXz5o1656SkhKM5C4QYcos9gyra9BwQqUBV+lxQ4cO3QevspKfztaDWoGWd9nZ2U3feeedXuvXr8dIJvZaG6gkIIQQx4G6BeVkpTqokYO2J+qn9qIr9u/ff+tTTz01Kisry6aRS2PdrZeapDagfvBcvXq1K63B1MDsrZ/GjRt3TO1Yr8gPrd5TT+sdua++W7duhSd3eAjGdmvwhE/cGK958+aph4S4DTBusB7weL9+/ZLHjx9f2rx58ybJyckBYoBZW9PRYIVvTZEKVT1S8Lhw4UKTDh06tPTz80MhjimzW5SYugeVGabIekZFRYVlZGQ0OXPmDDwC6nGq/NXy7vTp015FRUXBEREROEXnBGk4xq1atQrT03BzjM9LnT8/ht/TZbGxsfPVQ0JqCkZqUBZHrFu3rmdxcXG9Tf00Ps8ARpgYH2UxMTG75PT78tB6BU57wkX9RNOkTh7/3nvvdc3Ozg4QA6g6hz7KBZldl46KSCvpqkQY06anp3sJ93Xq1Al1G5zn4NXZZ0OhEyNX7m/HgoKCNnINTSR/te3MrGZaXYF8VfNW+dO5c+eCFi1aYLQ1S4R8JW4KDUzijqC3GB5mU0THRE3atm3bpFWrVn5paWne+fn5mP4CjAVugxTAtQTfWcrv8gL85MmTQXFxca137drVaejQoeHe3t7oMYShp6QTFYjqgiIRRpAvk/8Z1K1bt5CNGzfCI6CG8h31FY0ToOTJxYsX0fnQtEuXLr5S8WGvLjQi4O4dlbWzNyjcDRqYxN2AA5uOooj169f3lPJGq3/qA+13pJS/SkDDGpgwrrHhPqafjpT6+JoXXnhhALy3inGJzt9KqCNueikYf6cG9JH69+plhhKnfXZRURGWoARKPmFUEO0I7LWNJSHODL4j2j6tevbs2eLEiROhZ86cgXde5brUa7N0/XWCmqHqy2UeeXl5lw0ePNhPjk+IsNUccVM4RZa4O9jX6ifRB3369Pl89uzZO6VyxSJ4d52qpEzvOXfuXNArr7wSKYbTHyXsfhHWZ2KdZl2TJFoWFBS0pVmzZrm6jZ+dPr8/+eST9mKYY2rxVSK4qQ9DOKlX6rXxQ0g9gLJPU2OnlQjr76aJcXn9Bx980LG0tNSnIaduWkGpS+UVU2WxxUZLBLoA6OzdJPrmyiuvTFPbOk7z7B0+fDjk9ddfR562LQ8h7goNTOLuoMfxiOhX0VopbNcuWrRo49SpU4+qhqbTrhW0B30FjUpRXZvZ4o033uizcOHCEcePH58oUbGi20VYc4gCHj3JjgbbxuwV/frEE09svuqqq047uzGPvIOysrJCPv74447S8IGRCWMcU7hI/UMjk7gTeJ4b+zONESs49OkvmiB104hXXnml99mzZ5tJ2YtpsU6TP1p9oB57JiUldZNDbGvlKl5QMesGbZ7d4eHhJ4KDg3OkrdMgM3Gk7lePfs/XkpISv6NHjyIv69vrPalnaGCSxgJGMuGI5kvRwujo6A1S8GrOf9wZj4yMjKZLly6NeP/9969JSEh4XMIwmjlZhHWadQWmvrwzduzYRBjxzm5kasAw//e//91dGhWYphlTHkoIIbUCbS1PzXBphKAzM1I0MT4+/iaUserIpVO3QXG/MMoqhzCM66JDti5AXYulMGjzHJ82bdppX19frHms1zpYb1waQb7K/YejH+LG0MAkjQUYklibAI+ne0Q/PP300x8/9thje0NCQtDDp2xO7CqGkBkotM2Ezarz8/MD9+zZ00qMzIgtW7agNxYjmjeKMKI5VoReWvQyO4ozIhj0O2bNmpXQsmXLij0ynTWfkVfy4oG8+vjjj7H1S1R5DCGE1BiUK4qBqZw1LrDeFFNL4aH7GilTh33zzTcdsrOzNb8AFRjrLbU8rpaavMcepD4IWL16NZZL1GWHrKPBzCw40dnbv3//31q0aJGnhApa/WsmNUmtkc9SjyzisW3bNngQJm4MDUzS2MCUWUzj/Fb0fHh4+MYRI0Zk+vn5aWsF3RlUwF5ffvll5zlz5oyZP3/+X5KTkx+TcBiag0VwBuAo4MX3lOgXyeMNkydPTpdKB5WeSxjw0gAKeeqpp4ampaXtlNPnRONFDm+8EELcHpQbTmVg1oUhZgHUKZ1E0cuXL5/x/PPP90eHp/x/l2l7Iq+OHj3qL4eutk9yjgjbtu3o27dvniMNSGvYYFwqyPPQTj0kbgoNTNIYQUELQzND9H1MTMx/xdj6ZdiwYSc1B0CWhDe7GqggNannXiUlJb45OTmBX3zxRTsxojBSd5PoUcQ7EEzLOSDa0KdPn81/+tOfDgYEBMDLnZKPzpivunzCyK/P119/3a6wsBAjvDAw4eiB1D0u+TsjdoF1d5gxAU/TmDqJxrsrjRDZC9pa9WXUOQPwFot7i47LKVKWRu3YsSO0oKAA97zafNDXDWbSymm1rK5LlLrg5MmT/qWlpZgm60qg0zwNatWqFdo7dV6uyr1Rj6oHU6TnzJmD7/WiCL//pggn7gMNTNKYwTqFtaL/iWG58frrr08OCwvLhpEpYSiM3a6hq6uU8eqZnp4e+s9//nPgrFmzpjz55JMPS6G/TuKwdxGc3GD/ttqAEcsUEfbijI+MjNw9dOjQTC8vL6fPXy2fUlJSWj7xxBNXqEYmROqWimdCuwea1GDi+qDdgRGh5iIYlfAqCrnixva2gGcX1+wsRqZS/quqC3CdmAKLeztcytBrFixYMBhTTTF6iQR6nPX3rf9Oubm5/m+++Sa2VnElUM9i67DTrVu3zq3rWVr2GJdA8tdLngd0RGCEG7//UIQT94EGJiHlex5+6+Pj89GcOXPW3n333YelsHQL77K2IoW9Z1FRkc/nn3/e/fz589im4y8iOARyBJiqAyPzuylTpqz785//fFA1Ml2Gzz77rGtWVtY16ikhpGZgBAub7Ctr8lT9QYTOG6wNJ64NRqa1rUiuLS0tnfjdd9+1ycvLQ4eCy4L68fTp00HFxcUb5fQWEYznKsayk5IVHh6ecOuttx6Vdk2deJO117gE2nvS09O7y0u0CM8NcSO85s3DYAUhjRr07GG9oOKIpmXLlj4BAQEhJ0+e9BKjS9sUWykNUSjqpYW7GlrhrgO9yJ5yzUFxcXGtN27c2E0q064RERGY4oSpTlpnFIxFe4GDJRjxeO+l0NBQf2lwhGdkZHjL//CRMPk6zpmv2nfBZtUbNmxo17dv36khISHIE/S8YrovHCkQxzFu1apV8OCLjK/3Z0C93xXExsbOVw9J7UDG4rcOhy8YqRwuGpObm9svMTGxR1lZWUv5XaGs/VzkbmDqX1dRxLp167pLmYeyo97Rnm15xTTTspiYmF1y+r0S6Bhwf4NFfUQjsrOzY//xj3/0l7KzKZYbSJil37NZOMKsqb6o+J8lJSXerVu3vtimTRu0EyBMP3UFL/To1PGVdk3omjVruqGel3NLeWh33hrLzOpAev17UlNTfQYNGtTE29t7v5zuKw8l7gBHMAn5ndOiNaLPo6OjP/z73/++V/Muq8Q2DhRDs7CwsEl8fHzY6tWrR8nxDAl/SARnQLXhrGi96KepU6fGT58+PVUJFaNTfXVmlEbGe++913n79u3YR/Qe0d2IIIRUCwwM7H3XVzRVDI6rli9fPvz111/v/vXXX7f54IMPsGWBO6/BbAxgiiPW08aKcXnNp59+2iUnJ8dfNWjcAY9Vq1aFybWNlmOtk9EVQLtmlWinn5+fQw1ie41LYHzPqVOnguPi4uDwB2UDcSM4gknI72DaJnom4QH1gpeXV8mkSZNKW7VqdSklJaVJcXEx9jHTKkullNR649RC0/7StuHAd60i3XV4YnTx8OHDTbds2RKWmZnZqnfv3lhXg/USmMqCXlFMt8Eonq0gfzHih0ruYsuWLQPOnz/f4sKFC14mvfrKF3ECKvIGEmPbb9++fSG7du0KGzhwYLMmTZq0lXDN+y7yo6j8kNSQihFM7XelCWH4U5eo/6cCjmDWGmQopkeizBgiGp2RkTH6v//9b2RCQkKrvLy8APz28/PzfaWshcOPV0XuBkYwYTy76wgmRp5xjXCCE11SUjJu0aJF/cVwCDEbuZQ6FOd6OT1a3kn575WYmBgcHR2NztK9IjgKdHa0dk2H5s2bDzp69GgT3cwsIzbfD2NZaQt4j/F98jx4SZngOXr0aGyl8ll5KHEHOIJJSFVQeWAPx/dFzwwYMGDN1KlTTwUFBaEB1NiAUeX766+/tly4cOEVq1ev/pNUCP8n4beJaur04Khopejnm2++eY9U1pg+6zJIo8lbKsSm//znP3uvX7/+LgnCSCaMIhjfhJDfQRsDI1soK27avn37dW+88UbksWPHmqmGRgW6zjt3Q3No5q4zYbQpwBOTk5OnL1mypE9OTg4c+mA9pluhlv2YBoyOxV5KoOtwVtoyu9GWUc+dBY/c3Fy/TZs2Yd0ucSNoYBJSFfT4Yb0g1lgkin6SgvnLuXPnrrv33nsPBAQEwPtslQaDh+pCXZMa7FKg0Wciz9LS0ibp6enNfvrppw7Lli3rK5UsFuVfL4KBNUGEhfq2OnLQtojZIVoRGxv76zXXXHNU8tV0M2g1yClAfuAVDY2srKzg7777rn18fPwgCbpShHwghJSDhnhHERz4XLN///5Bn3/+eXtssq8b2dKk/Obx6u640XViFksbkbIVidQRUe+9914XqRtCpJyEcVmpA8GIvow3Sk3idKAuRNmfkpICA9PVtq1Cx+63/fv3T5LXWuWx3CP1yHa096htigohDHm6bt06rM/GEpobRJgy6ypOlIgFaGASYhl4ks0W/Sj6t+jTXr16be3YsWOuFJaNysusilIhJCQkYDRzwFNPPXX36tWrn5ZweNWDB0hMobUHTDH6RLR27NixiZK3yGtXAntlen/zzTcd58yZc01xcfFUNZwQUr7mEiOX182fP3/6f//7324lJSW+UoZUaXeoDU13NjBxbU5tPNUAdCB0E41dvnz5HXKPh6hbkaDzwJ3xkOttm5aWhr2RXYnDIkxB/U19Dmv0LNbGuLQEygR0PO3YsQOGO0Yy0WHtKmtciQVoYBJSPRjRxDROrFn58r777nth8eLFH99yyy3JzZs3VzzPqnJL0PhTG4AAx9i/yhubZm/cuDEsJSVlmITfJJqjpLAdrFnEqOVW0dfTp09ff++99+739/fHCHEFqAydqWFmyA/0vnphhFcMza5FRUVxErRINE2E0RtiH/a3XoizgZEIjGphC5Lb9uzZ0zc3NzcQZYacV7q/2u9I/X27c6cdrtNdnm2MXGJN6UjRjYWFhdFiGISiPpBz02vUykx9uelKGL/7uXPnAr///nuMsrkS+H3BY/7Rp59+elvPnj2xFMgu6si41BJ4/Pzzz5hOf4UI2xjheSIuDA1MQmwDzmwOiOAU4RXRJ0OHDk248cYb0wICAvI9PT2r7C+lGUZq48nlMVSyOPZEj/Vrr73W97HHHrtG9LAYm3sk7nURDCxspF4dcPiD93wrWturV689ffv2PS/5CaO+Ur45W17q8kPJiy1btrT9+9//PiIxMXGyhGH6sKut0XEW7G/FEGcABmSACGuRYXxMljLhhvfff787jEv8RiTMGnWyR58TgOcZ117JSGlIavE9MPUVay4xMj3mp59+mvLUU08NU0cu7ZrSiO+glxrs1GjfVYxp/wMHDqAjxRVJCQkJ2Txx4sQzcoz61KY6Vepe9ch27HiPkq9iuDd98cUX4QysnyhEiSEuCw1MQmoGpnf+OzIy8qMFCxasvvrqq0/IuVsYknaCGkRrJHh+9tln7ZKSksZIGBwBvYgENoI1r5tE3918880b7r777sNmRruTo9Sm3377bauEhARUkneKHhZhXzh4mnWJRhQhdoLnGl4pYVheLbqpuLj4huXLl/dCuaDG24K7jmDi+tHWcrb2lr3lEYxLzMrAHqbXpKWljd66dWuo3ONq11sSpwL7TX7fpUsXbZuwaqlL41KfDm2IrKws+HLA6DCW3RAXhgYmITXjuAh7Zv4kWj127Nid11xzzbGQkJAss9E3d0I1JitJghWlp6c3f+utt3o/+uijMXPmzMH+mStEj4kmiayN6GFa7EHRZtG6Xr16JYSFhWV5eXlV2fZDKiRnnjKLPGi2bNmybi+99NKE0tLSKRKG0RysKUHPPyHuBKaxYa1lhAiGR+zx48djHn/88RFxcXHt5bxSK1NfZuh+Mxru3EHnjAamPaADATNS0Fk2KikpaeQrr7wCb7GBch8rrst4fzWp0VaxN70T4Crf0wicF+4UpUp7JRt7fSuhgla36utXOVaPbMfW9xjTyb1XHAoePXoUzqOw9Ia4MDQwCakdyaLVovfFyFwmRtU+MYxQaGP0DYW0OzearOEhFYXP+++/PzQ5Ofn2oqKipyTsyfIoq2DaDvJz3SOPPLJ/8ODBLrWFiQoaSZ7YQPrdd9/tnZWVhW1Mpot6KrGEuAcYuWotwkjD7fLM37Vly5Yx8sx3xvOPBHbirmUlWtGaXBVMB8W0xVgpz6/8/PPP29k47Zk4JzAqj82cOfNAy5YtMXvIlPo0LnV4xMfH43m7vPyUuCosHAipHVmiFNGvotV+fn4/iJG54YEHHtiHRfRSiCpGJl7NJHFugTQ0KnqfITXMa8+ePa3feOONvlib+Pbbb0+QRslaiVoowhpNLOY3grWux0T7fHx8dk6cOPEkelglr6pMn3O2PDRcO3pifQ8ePBj23HPPDczIyMBWDbGII8QNwPqoziI0AifJ843N9Yd89dVXnbKzszFSb7WVqf12nen3W8fY1up2PrSRSxiX4+XeDl26dGnE+fPng1HGIYE19PfZKDWJS/Poo4+WPvnkk3BUh85TV3LqBgPzcEhIyN6oqCi0YarcD7lH6pHt2Pqe6tIlJyeHfPLJJ5j1Q1wYGpiE1B6MVmJfx92i/4j+3aVLl+/vvPPOg1KQlrlLZVpLPJKSkpovWLBg6Pvvv3/b9u3bYWT+uTzKFGwGvTksLCzF19e3GPlYHuxaqIamz6uvvtrzm2++wUgmIe4Apr9GiabJc33966+/3gMb0Nvr6EVFKx9d1QhzVWypl9BZoGxFkpCQcP2bb74ZiSmMUq5h9JrIM3vx4kXkBWanmHWYOiswMLEkZUePHj3Oq22UiuehOgPQDFvfU106xMMjsTxvmHpPXBgamIQ4BhTYuSIYRr+J1vr4+Kz8xz/+8eXDDz+8t2nTptleXl5wEd4ojE2M5BmFxmd2dnYwRjU//vjjCKlAsGbrS9GzortE2NZgtAhT7rCmC40bz+Dg4EKpdFzG4Y/+mtUgj7y8vMC4uLh2x48fx1Y32FP1PhGunxBXAo0+7FOHEfmr5bc8MD4+vg3W4pkZl/rfgu73YKTid6K+uhso89FB5jRlv5Sn1X0X3EvscwlvsdeIUTns888/b5+RkREk99G03Wjl/ro18tx7nT9/HqNtrjSlE/XpaVFKy5YtMwMCAlDHKp24mgGIZ0QvJdAC2nuqo7p0WjyeMXRkKCfEZaGBSYjjwTrC9aKPRK906NBhY1RU1PnAwMAqDmsaM9i+YNasWZPnzJnzyEcffQQjEyOaN4quFKE3GE6BQiS+wNfXt8IRgYuCBrbnK6+80nf27Nl3SKPkZgm7qjyKEJcB3h3Hia6V53ganFmhgV1b48LNjRM0ztGgd6VZGGjcY2rskNWrV9/27LPPDsGoklknQmMH5fqrr74aWVRU5EodhngWM0VpYtSda9WqVZ68YraVEmkPtr6nJp9NXBsamIQ4Hq1BcUGUIloRExPz6ty5c7974IEHEkNCQioW1UuhW6mXEFKj3A40IvUNSVTM0mDxKSkp8d2zZ0/o+vXre6alpY0oLi6eJJX1xIyMjGhJhp7h4AULFvgob3IxTK7ZCz2zK1as6C7XOUGC3hA9IMK1utrG3aRxAKMCU2LR8YO101fJbxVTJX3wPMs5nm9HtB7dtQWKMh0dZFhL7gzlO+qZ6kZUO4jQ2Tdu8+bNzXNzc/1QXsu5XfdIK//MpCZxC/Ly8vxccF9M3H+0RXZLu2RvcHAwPLnbhTxH6pF1bElnlmbJkiVn5SVBhG3PQhFGXAevefPmqYeEEAeD7UrgACBFlCjyaN68uX/Lli1DkpKS/KSBZuzgUUpYFLR6aeFuBK6nkqTB4S150mzLli1t1qxZ03Ht2rUd4+Pj265ataqZyHfixIlerVu3viwhAXVNZVwkjyquFd83NTU1RK6xfVxcXJ8ePXp0CgkJKZQ4CJU8Kn5XGu1wJOPkfo+SVy2/9NT5PVafpQpiY2Pnq4eNEXTqBIiaibA9xTXp6enjpc1w+cGDBzG6pWSWaixYkinGfAaS1/AY/Xr5mVsBh0gw2LqtW7euZ3FxMUYHLeZNXaHlubxe8vX1LR0/fjym6/+gBP4O6iTc86FFRUX3LFy4cMiFCxdC5B5X2evS5L43JpRrVvMU9ZdXdnb2peHDhy9GgAuB++0p1xGclpYWeerUqSA5t3QvK4Vrz1N12JJOS2NMK4a7/88//xwm9f8BOT0sgq8L4iJwBJOQ+gHGwy+iT/r06fPuM8888z08pPr7+9vda9gYmT179mXLli1Tz9wDNNAKCwubfPbZZ1jbhPWn6KV9VPQHUSsRGnqENAQwKODcJUb0oOiBpKSksR9++GEn1dggtoPOIoxglnp5eTnDCOZlFy9etDQaiTW2k0XXrl+/vkNWVhbKINssicaNx5kzZwLVY1cCXtvR+f3b0KFDM729vbGMp9pntC6MSzMkDpEQZjJhP2niQtDAJKR+wGgm9syMF30v+jE2Nnbzww8/vH/YsGGnAgMDMdJpWrBLGdvops+6M7prVRwfnThxosWLL744eP78+ZOkUXedhGtrUOmmndQnMBz9RNjbEs5d4CV20v79+6fNmTMndunSpb3kWQ2TZ9eScVKJGpRb7lq+4bpQ/jvLOnKUP7iH/iJsrQFnPrjv6NTCuveJCQkJ0XFxcS1tcbSiv89GqUncFn2dVVBQ4CtlOLb8+FYEYwijgc4ODMo00eHIyMij0hY5V919k3j1yDq2pDOm0epGNV+VSBwfO3YMnV10iudi0MAkpH7BSOZxEfaDXBIWFvb2zTffvGbGjBnH1ILd7StlUgWlwZebm+u/du3a8NWrV4+X48ck/Kby6EYFfwMNBwwOGBkYtfxrSUnJHWJkTMIIu7resq7bC+46LRzXpRiY1TXe6wO1AY/OhDYiNNrRkYVOBThvuiElJWXYF1980a6wsBB7YBIb0crw9PR0/IYGiroqEa4Bpp5uvu666w7IMwr/EabPqS1Go61Y+yxDnMcHH3yAjpD+5afEVaCBSUj9gsIbC+thZO4QbRT9FBkZ+ePixYvX3HvvvQfCw8PP6bY0aVSNbbXx47hazInRrlUTRjPz8/MDfvzxx47z5s0bJo0VbAXxsug2EbZuaSsixNFgah8aw9hmAZ6NY9evXz/u+eefH7h8+fLO2dnZ2JqiPqbFuquBiTIc5T7kDKC8QdsPBiZG2mBYToTS0tJGfvTRRx3z8vKqbEeilVOa1OAGAYa6JalJ6g1dfihl+K5du+DsZ5gIo8GuAtY/b5P8OxAYGJjv6elZZbRd4tSj6qkurbV4s7icnJyQlStXsv5zMWhgEtKwHBX9KHpT9EKvXr1+vOeee1KaNm2aLwVtozIuSQVosHgtXLiw3xdffHF9YWEh1mbeLmIPLqkL0CAeI7pVGscz5bmL/f7779uIYVnfa8qcxQBzNJqB6TQG9G23oc9K8Vo95vz58zdlZGT8afny5ZP+/e9/97hw4YIrTO10WuLj41ts2bIFhrsrldfnRTtFBwcOHJjt7++PDu4KGtK41Dh27BimcRMXggYmIQ0L1kCgcMeI5m+iVWFhYZ8/8cQTX0hDLw7rMwMCAiyuz3RXtF5hvdQot8V4rfn5+YG//PJLq1deeaVHenr6CAm6XjRTBCcc6B3HlEZC7AX1PrYdwTpfTMOeIfpDUlLSsI8++qizPGvNS0tLfeU5xKglnkWrvz10hJnJ+DzbgLuOYGo0SBmm3Q/1VEF1mBYkdUyHpUuXdn3rrbciNm/e3BIzKOzd61J/n41Sk9Qa/XNlvBYjtqZzNNo1Y2rxDz/8gGmyncpjXAJM4cb60aNTpkzZce21155SQsux+V5KnqtH5liLrybO4/z586zvXAwamIQ4ByjgMU1lteht0WteXl5fT5s2LaV79+4V+2aSxgUae2jwL1q0aMDs2bNv27Vr1/0SjNFMTGfkSAOpCTAcI0V/kEbbo88888xj8mxdAyc+8rxhaxKHGQZ24q4GJvITba2GyldTHn30UV+ULVBmZmZTWxz6kOrRljpIfrrSlE5tlB0d3RsGDx58DIHVGYx6qktbjQGpHlVFiysoKOAIpotBA5MQ5wKNLIxYwrNbnK+v75u33377u0uWLFkhr0lidBZ7enqWSqFb7z20DY3WQ2wmNYnbYLguHHvB0cr333/fcs+ePZh6dYPob0qse+F299JJwPYTeG4wYvl30V25ubkTV65c2TEnJweN4UpOfLTnzxapb7EL4/vVssxdyzNcI/LW2dpb+F5GVcJ4n+oDrW7TS42ym9q+v6YgvxITE7HG1dU4KYqTPDsmbQ04pSqzJQ8lXj0yp7p4K1S8UfLU88knn8S2bvBbga28sBcvcWJoYBLifGijmdgI+yPRx6IVAwYM2D1y5MjTISEhueoi/EqVsCVJOuKiGBp3HhhpeP/997vPmjVr0pw5c/4sYdgo/XERpjuGityBemvMujnatiNNRV1EeEZuWLhw4YOzZ8++4emnn47avXt3a3VKpE15bku5YnhmbcXdyyncC5drb+nvtyWpSesV+b+l9913X/GSJUsuwiGenKNjFt/FWZ4jj5UrV7YSI3OfHD8swswAV7j/Z0VYi3ksKCiokrMf/T2H1OBqjceaxmvhuvLEA6PsKSkpzeS4s8gVDfhGBQ1MQpwfjGZi/8z/TJ06dZE0DOOGDBmSrnqaJY0LpdaVCtcThsHy5cv7ZGVlTZGgh0TYEN8dcHdjoz5AgzZcBO/Dd4r+VFxcfGtcXNyQc+fOBalGpbPhrvddaRxDNTC8iQktW7bM6tmzJ6ZzHl60aNGxgIAAp3OKJ+VygJTP2P6lgwjbbLjSkoZTc+bM2dunT59MObaYr3VtXBqRcI+dO3di5DJaNFgJJE6L17x589RDQoiTgr0zUdCjQoX8+vbt69u2bVuvtLQ0r/z8fKydQYlsWiqjsFYLbPNSm7gCyv3V3Uc0Vj1TU1NDNm7c2HrLli2dunfv3jokJKSPxKFRg2cC+9jBgZQrMXbVqlWj5FW5RiXkd4znDkfN3wpiY2Pnq4euAjqNMR0WDdp+oih5TiatWLFi+Lvvvtv7wIEDzeUcxqWnVi6oRo9RphjyRzkx5plg8f1mqN/j0qRJk+BY5J3yULcChgWcKkVu2LChb1FREX6XduVRbTC5PxYxPgs2vtf2f2AFPAPV/T84vFuwYEHm6NGjD8jpXlGyKF0MIc+MjAzvzMxMP5SLSKsHn6t+tkO+qzW0a5Dv4YV1g1KGoIMYzzZ8KVxAnAsQ7uXlFSL53UoMujA5r5Jvcp1W87KaaIvx1sKh7Oxsj/Dw8ICwsDC0ibCfOHFSOIJJiOuA6SqYOrtCtFQq1RVz5sxJkEqgQApejvo0UtCgys3NDXjnnXe6xMXFXX3+/Hk4AporUvYiII0G1OcwXuAACvf+/oSEhFtefvnl/tu2bQsza3gT4krceOONJ3x8fNbJIdzgviR6Q/SuGByf3Xfffb8EBQVhjZ5TIeUxvMliGyBsC+MqwMnPrxEREWfkFW2LSu0LS0agRk3jrb1Pi4PRvnz5cuQl98V0cjiCSYhrASMTvaAYmcLIZt64cePyJk2alC8VmUdWVpZHcXGxqSdIFNCacKoEElcD962ScD/RW15UVOR34MCBZps2bWq5efPmdlFRUYHe3t5w7ILRrBARjA90UDgz4ziCaTdYY4l73FuEKbHjpRwY+corr/SV56BDdnZ2QElJiTXvsPbkK9Jq0tCH6cNtQiuT3HgEE/uJojHcICOYgvH+KNI/61J+aOFGKtJbkc3I/1RGKc1kDYxcvvDCC6dbt27dXU6/EmGd4GlRugh1IRzjIZ8jjxw54mdlCrhd37cmGK9F6uPLevfujbXQh0XYiswVgEEJZ4IDpT7pJuVHxRpi7fq0+6aeV1y0Fm8JS/HW3qf7H5Cn/IaajB8/PkPClf12iHPCHk1CXBNUqptFH4peEH18880370WhK8eAI5qNEzhC8IFn0GeffXbg22+/fUtSUhLWZ/5VNFFJQdwNGC/jRX+Kj49/7rXXXrtp8eLFfc+ePQtnGMQ5UEaBpEHMcrkGREdHn5O826GeGsHUU0yXTYiKikoTIzRXCXUSfv3115YvvfQSli7A0ZargE7sE6KM8PDwPM3ZjzUjENQ23gyz90iYx8GDB11pRLhRwhFMQlwTNFTg5CdfhA2S8Xquc+fOKbGxsUfF0ESlcNnJkyebqKMXRkxLeim3K3qYcaoEEmcH9wl1bvlZ+blncXFxk4yMjID9+/cHynHTiIiIYAmHYwTsgYiNwDGSghEAZ2Lc6tWro9XpnMbnr86fR10eKjjhCCZGQuDkAg3W4aLRorGiqISEhP6ffvpp1/Pnz+N+Yw1uRQeyboTKTA2KWt5gDSZGpLAHsLuBkTWsi+6+YcOG/g0wgmmJensGcH+Nvy1b8Pf3L3jxxRdPSdkF4xIeszFyaQR1ITyvN/P29m7Tvn37plu2bIGHUfmXVf5nfVyrelQOyrL8/HyvmJgYlLVfl4c6PchTXEjbYcOGhRw7diz03LlzAUqMeR6a5XUlrMVbijMLRxgk3+ey7t273+AnSLD2XLADx4ngCCYhrg16FjE9CAXse6J/iJ7z8fH5VhrHB1u0aJEnhbHmwp00PjykcRO4atWqDrNmzbry6aef/r9PPvkE25rcK4InPuJaoJEHhzGx0nB94KWXXnpW7uujjz322OT//e9/kRYMc6dHNYDdFZS92MQe5TCxg+DgYHiHPSSH8KL+jRJoGUz/39mhQwesH3QmPDBlNy0tDZ1CrgQ6sHeL4kaPHq3NjDLFzBDUYy3eUlx14SdPnmy+ZMmSgXKILUsqdagR54A3hBD3AI0YNGCKRKgM4Ajh3ZkzZy4WPnzggQcS27dvjzULirEpr6aSuArMwojzgka6UWoUQCNH8WqYmJiIHv4+Ej9Nwv8jgkOge0Qxooam1M/P76Knp2eplWtpTGC0Et5grxf9XYTOgYeKioomrVq1qvvp06eVLUckfzTD0iXyyVKZ48bgOlmWWkH/O8eUzFGjRp2YM2fONjldLsLm+pgKaw3Ue0h/RJ6rsoZ6trTr0F8Pyt7vv/8eUzpXia4WYTYJ1jU6M+i8ThH9FhERcQr7byNflRgdEqYemWMt3lKcLeFq/iIPu4omieBMiTgRnCJLiHuBShVG5klRkggbPWc1b948JCoqyksapE3EyCgVtFEDrcQ2L9HLsRZHnBvlHqsVMypkZersvn37mouB0nXt2rW9d+7cOXjEiBEtJQ22U2gpwpQjOMmA6tsr44ht27ZdLs+otxVHHXWGrgGjNE5jY2OfUc7qBxiJmM7uL8K9gGOmbqIhoiuXL19+/aeffjry22+/HSr3rWNycnIzfR7pfs9mcir0DUUNyWs4+XHnKbI9NmzYMMCJpsjWG2b32wjSQGJcFoeFheXce++9iRIcK4LRiGdDWQdoBa1ztUd8fPxoqeOU8k6J+Z16z3f12j2wXEHw7NSpE+pk1M9Y1lLdNTUkKAOxnlUuwaO3l5dXq0OHDgVKnlaUOeq1AdN81cVXwVJcdeH6/wl69OhRJMYvRjCxHcxRJYY4BTQwCXFvMDULPb/oiTwwYMCAfWPHjs3q3bu3x/Hjx5vk5OTAmECJbV6ql2MtjrgAukrZiEdhYaGXNH4CpfHTpmnTpr2kgQeDJkqEtZobkKgeGSoNmX4nTpzwle+FZ7NeMeZTPRuYoSJsyj5ChB7560RXiUFyhRjdPTdu3NgyPz/fVxp42siH8aa6zO/U7Hl0YwMTnQVwxNTTydZg1htWyp8qTJ48+fiMGTP2yCG244JxaQ8wiiL69u0bIWWaD8q18uAK6j3fDddePGTIENTH6LjTjExnBwalV8eOHX13797dMS8vT1mLabiuKvlq7Z5birMlXDvWXk+ePOndtm3bZmJkJsgpnD0RJ4EGJiHuCypbGJjZouMieIXDa4EUxkVRUVF5AwcOzA8PDy/MzMwsKygo0LYyMJbyxnPiemj3tYrQI33q1KlgMWLCV69e3WnNmjURW7du7R4REREuzwkcycBhBkYC4BgIRpDWKYHed2Wkz4H0DwoK6nX48OFgOKtRw+oNYwOnjgxMGIgYpcT2IshTTJ3DOqKeImwrMyorK2v0woULR69cubIfRisx4oyRZ9W41O6dEbMwp8SYz3IOJz/uPIKJdbMYwexHA9McOPRZsGDB+W7dusGfAKbErhHVxAlZq8DAwLDg4ODQ7du34/eFf66p3tFdOzrzLkmd6ynXCr8JGKGFt1ZnB2U8DOIg+d599u/fjw4T4+ySSnlr7X5birMjXIIUlJPc3FzfxMTEZqNGjYKBibW6xEngGkxCGg+Y7oJpJFifif3mFohx+Xx0dPQXs2fP3o1pSVj7IuGk8aI4pMA2J++8807Xb775JiYlJeUBMW4WSxx6I7HlCdYQYc9FzaugI8kPDQ093759e0x3c1dgoMOovFx0k2hmaWnpwuzs7CeTk5MfkDyf9PLLL/eQhhMME8stNeIq4B6iY0AbeSYmxMbGnm7SpMmvcvit6EtRTZ31YGRwU2RkJF6divz8fL+lS5dGyGEPETqYXAHst50qOizG8Ynu3bvDa73FjkXN8DPDUpw94cYwdLoVFBRgiixm3BAngiOYhDQesEAf7twxRQdrVTBiAM978NSXJYZmZkxMzPkuXboUnjlzxlOMDKWnHQW6XgjDHz0SDocdVtMQpwT3qZJw/6TSxmbWfseOHWv666+/hq9du7bDrl27WoWEhLRs1aoVHFTA+Uy4CHu7ocGEKYAIQ+82nhutMY0RdHuAp8U+8n/DscawPKj+UJ9doOSFNHprsk0J3gsjEmsoW4iw/g4jlGhU4vrg+RDTkIdJPg/funXrwH/961/9NmzY0H7btm2tkOfIe9wDUcV9sUEugy6fFeQcI5gwCNDx5W7g94Kpzz3Wr1/ftzGMYOJ+4h5rskZgYGDu5MmTT4waNQrTYW8QYQQT+zzDi2lNwdTTPlJu9ZJX5feh/z7qd6qve6D8b4DfdF5enl9UVFSOr68vvONiFNPZgTGJexEo19GyW7duIfHx8co2MKpAeYaq12mGpTh7wg1hOFGE8OHDhxc1adIETuuIk0ADk5DGDUaKsP8cHA9geklaixYtLvbu3Ttk06ZNcPiCKZRaqW58rcCkMqgSQFwDC/cS25002bt3b8jmzZs7pqam9k9PTx+Vm5s7rqCgYHRoaGh3SYNGB4xC9CajUYLODHudBA2AfvvtN8XQKg+qP4zXXgMDEx8A4xrfHUYF8gXXNEZ0leTZFMm/yWJIjvzuu+8GrFq1qpNca/OysrJGNT3dmM9yXqZOkXVnAzNyw4YNfRqJgakeVc+LL76Y1rFjxy1y+KMI0xxrC+o0GKhDdu7c2b+wsBBels1Gj+vtHhjyw6NDhw4Fbdq0Qdn4U3mQS4CLKBTDuIUY7v1hLKthQC7RcnZairMn3FpaaNeuXZgm+4IaTJwAGpiENG70hgBGNlE5X/Dz8zsZExOTOnHixAI59oDTleLiYqy7kLK8ck8wZEQNM68RiLOD+1ZJ6v3EiJo3RtfOnDkTmJycHCIGZ1PIx8cnuFWrVi28vb0x9ROjmhit6yvCaB1GEeBKPkyEqVbWGJ2UlDQhPj6+BaaT1fdzZHyWxcC8Ul6wNhK/D4z6Y0RWmx4GQxrTWOEeH1OGsV4VDnqgkaIrRBip7J+VldV769at3b744ov2+/btC0tLSwuGswx3WldpJ9r1Ks8WJAYmOrrccQ2m3sDsTQOznICAgLzbbrvtSHh4+FY5xfYdu0RnEVdL8PvEUo9uUVFRLc+dOxdw6tQpzKyo9KW05w6HSkDdgv8h/678X2VmZl4aOnRoEy8vr/8qAa4B8hXlYJfNmzdfUVJSgnJLWWZXcWEmWIqyJ7y6tHiV7+NdUFBwb/fu3VEuYxov1rmibUMaCIxOqIeEEFIJOEi4RRT72muvDT569GhzQ6+lVSStTemI8yMVuLWKokoc0mM9L/a0nDZt2qlBgwbBizFGJ2YrCSwzd/bs2X/DOlDV8KrX58h4nUuWLIFTLExj+59ovUg/dU+bAgvDclhpaengr7/+uvuePXtCpaFTYUQYvr9d19IYfkPIc1HZ4sWLsan70PJQtwIj+/DKfPX8+fNvyM7ODnb3+1pNeaEwZMiQU9OnT0eHVF0xTjQxJSXl6tdff72v5Lmpz5GGKF/ktVSMy+KFCxfWxTr2uub/5Hu/cOHChUDMvJBrsZiHiDPDEeH6MDlW8jU0NPTCI488AudQGBn+QeR063AbExzBJIRYAoU2egGPDR8+PHHSpElp0iiAt1mP06dPax4+zWsEARWAWglYTENcBtzDKtLdX70AXj1LSko8T506hZ7l4KZNm4YHBARMkfDxIm2Ub5hI8Zwq+kNxcfG4NWvWYETQ+Fn1gno9FcTGxqJRikYgvOdiVHaQCN/1KhG2ElGuJSMjA+u9OuzevbtZYWGhtpWIdg16aY0xW+X2qOUE1mCekdOl5aFuBUYw4UW2u7tPkcV9NP6GjIhhdfHmm29Okd8W1lx+Xh5aJ2C2wUUxOvquXr26s+53Vwn1+VMOlYA6RMsb7f/JM79ACXAt2kdHR7eTa2hy5MgRLAXAxVTJO+1ajTgi3BiGc0jqm8vCw8N9W7ZsiZlY6LDCrBPSQHAEkxBSHZhygkYSRhew8XXfn376KXLfvn0BmZmZ/tKgbqJu+G5eQxiw1NtJXBup4KurTND4VNKgkRkREZF9+eWXn4+MjDyXmpra9PPPP2+XlZXlX1paigZ4BQ35vOD7isqCg4PzunTpktevX7+c9PR0X0zhxXMv3804ylrtd+XzXxktjxcvXow97GDAuxtw8oTp0pPnz59/o6uOYGq/XUvgmqpL4+npWRwWFpY9Z84crPf/WfQvJaLuwAjpc5Lv03Jzc/2lnlJ+r0KV/K+Pe6LLH+V1yZIl2vdxJfAsY3/eCfPmzbtC8s1sZNg0L+X61aPK2BNuFibPVUW+SnyZ3O/NcvykKE4JJQ0CRzAJIdWBwhu9wVijCdfxu8Q4iI+Kijo7bty4EqyVO3HiRIBa0ZjXFJWxJQ1xMSw1EnRoCdCxCW+K3klJSf4pKSlNt23bFirGZYDaUWFssDTY86JdU3Fxsad8vybJycn+x44dC9BGKdVGqV62YGu6RgHyWIQRTIw2/Ls81K3A+j8YOhjBdFkvsrb8vqtLExMTk3bHHXf8JocrRdguq65HmLDfbETv3r1bJCQkBKt5D8y+aJ3fE13+KAexdbPPbl2D757n7e3dbe3atVh7jnPlenB96jUqf/RYejbsCbcUpgvHgUfHjh1zmzdvDg/5MDRJA0EDkxBSHXoDE2sakkUHRYVSsF/s2bNn0ejRo/O7du2ai3UlFy5c8CotLUWPsGYoVKoVtArBTIhWEhFXRKncLUl3fyFMn/WRBp9fRkZGYEFBAbblQG++zb3h9YH2nfHd1O8LZ1dGxzyIrzi2QUSHmsdobMPBy5vKiXvRKAxMa/H+/v4FrVu3zpoxYwby4QPRDlF9TF/E77RpoJCVldU+NTUVM3HwRc2+bJ3fE0MeeWzatOmx9PT0v/Tt2xfPCDy5Y3sVZwcOlLJF/Tdv3jxIykWU2Z76a8OxpvJT86y1J9xamD5OjlEel/bu3RvbstXlFGxSDWaVOSGEVAcMTkxpQwG+yM/P79levXq9e/PNN2+QhuLpoKAgV6goCSHOg7u2R9BBh8ZuxRTxxsaYMWPSZ86cCaOyvoHX019EG4YOHYoRLafKf3Ss7dq1C/sHYzsjOAtzBbC+MVN0PiIiIisgIKBIb+AZsRRnT7i9YYcOHWq2bt06rO8nDQgNTEJITUBFjUrmiGiPCPuYYcrTj9HR0cvnzp27WvTrqFGj0ry8vFABoYFVLZKu0TbC3B2M8mlSg1wad7seQqxhy7NuTBMYGJi7ZMmSIzExMXDoA6+e9Q1G27C/anK7du1SO3funOnp6anfaqjBgDEkeYWZEb5ZWVkwMLFXriuA/IOReWz69Ol7Bg4ciHaAKZrBZ8Se8JqEYQlDfHw81j6TBoQGJiHEEWDKDKb4rBAtEr0WEhLy0dSpU/e2aNEiD1tWSBghhDRGYNA0uo6z8ePHYxosRhC/E32EsHoGeY69EC+IDt10002pvr6+Dbo3Igwho4H01ltvRcgLvFK7EgdEa8aMGWO6FYiZEQjsCa9pGDo5SktLfdRT0kDQwCSEOAKMUBaKsMFxughrNDeJPpszZ85bixYt+mDJkiXfP/LII7tGjRp1Qh3VRE8oaYQYRzo0tHC91KgGwez7aFKTkBogv31lpgKkBgF3NsDwvLj1M4PfhHZPMXL54IMPJowdOxazWjByiemxmKLaUOB/rw8PD/81ODgY02YbCrMyxOPcuXNB77zzjquNuGGP4B0hISGH+vbtewZ1enmw8vtWjypjT7g9YYb8RBiOqyYm9QoNTEJIXYA97XaKsEH9s6KXRR+0a9du49SpU5NbtGiRr45qVtuolLqiojEKqcHEDdA3tvQNBNIocdffNp5rtLVc7hk3lr3Wyl9d3KX+/ftndenSBcsm7hHBqQ88xzbk/YUDqVWiTT179szTX0d9lT3yP9WjqmC07fjx43D040pg6jGWxxyYNGnSCTE0YbhbfEYsXb9ZeE3D1PvI+sRJoBdZQkh9gGlJmEZ7QpQYHR29NSYm5iAcAkVGRpYcPXq0SWFhIbZ9qLJPmUnFwoqDEBfGrLGIskBe3io/cytgOHQQ9diwYUMfV/Iia3afrIH9bbGfae/evTfI6WrRfiXCeQgTA7N18+bN/X777Tc41wF1fi8s5aMu3KOsrOyS1InojHUl0HHiGxgY6CVqv3///mZyjovSX7BcZtXrR5ilcCM1DYuPj3/il19+mTNy5EiMDieJzisRpF7gCCYhpK7BSCWmKGHaLBoeX4iw390y0Qr0dM+ZM+fgtGnTjsvx2ZCQkBxvb29sgVImqrbXG2k0qUGEENfDJkdgLghaveg40zrP3BJsRTJixAgsj4BDHxiXGMF0JvB8oRNj09ChQw/Lq1Jf1GXdIZ9raghp6EfasAfwsmXLMCr4vWicCHsCOzsXRRid3tqnT5/T8gxg6QvyUpPp9VvKE1vT2hKGc+RpQUFBgJxie5w+SgSpN2hgEkIaCoxmYiPk90QvRkVFLX7wwQf/O3fu3A133HFHCnrDpZLQPP7VSQOAENLwyO8cv293NjBhLLh1e+uhhx7aP3Xq1G/lEFNRYWQ642hRmgjfL1GeOTxvdVavGA2e6oCheejQoZC0tDSMtmHEu5US4dygfkbn8VEfH5+DN9xwQyqMTCVGMMsDS/lia1pbwoznx48f7yYvV5WfkfqCU2QJIQ0FKiI0QlDpp4hgcMLrYH54eHhuTExMXp8+fbJbt25dUFRUVCryLC0tVdYyoQLRpEcfbhSilUSEkAZF/T1WIOeXJk2ahNGbt8tD3IoQURdR5M8//9yzuLi4iRy7RFlkvE9mwKFPVFTUmSFDhsTJ6Z9FmBYLZ2/O6DkcdQ7qmG4ZGRlDs7OzPeV+wNuoXKrj6gv1/fYgb/G4TL6LtxhqJT179oRnVtSNx5RY5wbLXzA6HxoWFtZs586dbfPz832VCyrPw4rMsJQvZuE1DdOfa8dnzpzxkucTv0N3nILvtHAEkxDiDKCSQk/oXtE3otdEf2vXrt2r0dHRKx588ME9EydOPOPv7w9PtRzNJMT9cNffNVq5bjtFdsaMGalTpkxZI4eQq3Bm+vTpu2JiYjCl12HAoDEzgmxF3uuRmJgYLIeXi4Yrga4BOhQwar2rS5cu+XIZVX7LlvLFLLymYZb+R3p6evAbb7yBUWFSj3AEkxDiLGC6jbbVCXqZMaKRq56f69y588nx48cfiY2NPT527NgMqcjySoXc3Fz0/Gp7XpnXMOVYiyOE1BMmDUOMYGJ9nDuOYDYVdRV1X7duXaS7jGAGBATkjxs37tTll1+OfS6xFQk8ijbkViT2ECi61K5duzZr167tKMdmF2rXPbKWV7bg6Vk+3iPPBz6oSdeuXeEUD/tKuwIwKFF3h/n6+g46cOBAsDYyDFnKG7PwmoZZSwPngYWFhd6jR492NSdKLg1HMAkhzkyqaKPofdFC0ROiBVKJ/a9Xr15rb7/99qSRI0dmSkXCUU1CXJuqLUT3QZnaX37oHgwZMiQzNjZ2txzCcRvWNWKZg6uQLPrO29v7iNQdtV6LaWbc2IP+/WVlZT5r1qxpI4cwfF0FOPtB58Lpzp07nxXjOFfLV0t5YxZe07Dq0qiOlNzayZYzQgOTEOLMYOpsnuiCCHuZYZQDHgC1XvMPpJHz78WLF7+yZMmSFX/961/3hIeHZ9qyx6ZUQBXeZyE1mBBSA4y/JzOpSSu8Z6oNPw13bo8o1264XqfA7P4Yz/VgQ/1Ro0admDp16i45nSp6R4T1gjAyXAXUKahLLsApjdQXmD1TCbN8MSJximqK2fvlGYGvAZ+TJ0+GqUGuAvIwQ65nz9VXX31MXpF35TEGzMJrGlZNGhzIqYeSr+VBpL5ghhNCXA1MmcVaTRiYaNy8KHpStKxDhw7Y8uQU1mpKQ6gYhqZULlpPaiVJmEWMaTWp0YSQWmDhN+X2BiZwFiOzBmUa0l5q0aJFvhiXR+TY2bYhsQd0XOaIcqXOyFM7JO1C8k49qhnVvN9Dt0+nK4FRzG0hISEYGTZ9tiSvK377WhqzvLAlzJ40+N0tWLCgNCEhAfthXosoJYLUGVyDSQhxF7AGBB5pE8aNG7cxJiZmzaRJk/aJMnv37l105MgRH3iiLSsrw1QZs8qlIsys4lJhpUSICVZ+M3qURCaNQKzBxLpr7I/rbsB7ZWdRxLp163qoazAbHAv3y/T+AIzyTZ48+fiMGTN2yinWBsJrLLydujJhQ4YM8fb392924MCBZmqYWcZUhCFvLOSdzZi93xiWkZFx2ZgxY7AsxJVAZy78JnTcsGHDFWLUeWkjh1q+Ga9TzqtkhkmQ2fvUo9+pLo08w5f5+fkV9ejR47ic4nvCzwOpIziCSQhxB9ADjXU160QfiN4UwRPtMtEP6sjmvj/96U+HpSF7PDw8/BycVEgFVDE1So6r7c1HGqPUKEIaNRghMEqNIuXTB9H4tqmcaWiM9w/TYjt16nR+7NixcFZ0jeh10XbEuTj7ROuHDRt2Su6Lcn+sIWnUo5qB99v6GTk5OUFz587FVF7M0oEHVD+EOzlwTHRQdDwoKKhQnUF0ST9qqaRSMcsLW8JqkgbneKbT0tL85bS/aLASQeoMGpiEEHcGPZU/i94TPdetW7cnYmNjnxVj86tZs2btDQ0NzUEliISEkAalyjo4NwGNalxbqTRyXbJD6tZbbz324IMPwpmPO4F7gb2XE319fc/6+/tflPtj0cg0Giz2Yu/7Jb1HUVERPLG2E40QdUK4i5Bz0003pbZq1Srb0nWbhdsSVpM0+vPz58/77927d6AcDikPIXUFp8gSQtwZbKydKcLUWYxwYv0FGhUXpVFROHr06PxJkyadE6PzbOvWreH5rrigoOBScXExOt/0tVTVWu13rMUR0qiQ3xBGKiw2BI3hcl4WGhqaLb9F/D4x48DdwL6G7UURGzdu7CVGg68cO0OZge8g2V/pqygnEqbcw8DAwNyoqKgzY8aMgVM1zA7ZgXg3AvUDjMqeYWFhrQ4dOhRgnMKs5k+t7pchjy2BRJL099/IpUuXPLt3717QrFkzdFCcEWHtqyvQumnTpi3ld910z549LeW8UgYY8kM5McsjY1hN0qjn+kDPw4cPB0VHRxfI8f/Kg0hdwBFMQkhjAx5p40X/FaGH7WnRiwMGDPj49ttv3zx37txjUqErjh+kcnLJEQdCXAX8zuR3d0wO95eHuB0wYDBLwuVGaP/4xz+emDJlCmaAfKfKHckX/dK/f//4wYMHwxtuRZlvZtDYA95vz2cY0isHP/zwQ+v09HRXG8FMEX0bERFxWK4Hz7/VPDWGGfJBwdb36TE7h9EOL70pKSkwfEkdwhFMQkhjAw09NCrQmECvMLY/SRdh/QhGO0+OHj36aExMzIFJkyYdjY2NTY+MjMzx9fUtvnDhAqYtVdooHZWWWpFVrs0IqUPkmasYKXSm50/9LlaRNKVeXl4lQ4cOPXPnnXceatWqFRzGbBJhTZy7gU39sa9h940bN/Zt6BFMyXvjc1OBFhYSEpIjxuWxfv369ZLgb0Tw2g2vq+4K6gTfoKCg3tu2bYP3Vk/JB33m2H2/jHlbHbr0OND+vUdubq5XUlJS4IgRIw7JOUaRXQHkJ56XbmIcd8M1lJSUeGvXhD8a2oVqGE4VbAmz4RwBWqCHGJllvXr1WqKekzqAI5iEkMYOpsrAyNwm+lz0qgijmnNEC0TvdunS5aepU6f+Nnfu3HRPT0+sparWIQQhpAoYybh0//33lyxatKjg5ptv3h8aGvqThH0pwrZD7gjKCuwRia0xXIIJEyacHTBgAAz+xgDuDYy3xHbt2p0NDAwskPK9VjNXjMZNdVhLL4aZ79mzZ+HhtmN5iEsA4xKzEo5MmTIlpWvXrjnGPMU1G6/bLB9sCbP3HBw6dEjzGkzqCHgKUw8JIYQYaCpqq1O4CD3cqLECRK2lDA07efJkc+xbtnXr1tC8vLwmpaWl2jqeKjUbPNmph5WQStBiYWzpPaTxYnxeHPWM6D9X+0xb/pcxjbe3d2Hz5s3zr7322jO9evXCpvbY0gKzBtChg0Y9po3OF7k7LUR9RNc+99xzd2dmZlbbsHXk791auWIkICAgb8GCBVjnh8621aJPEd5I6Cm6LTc3d9zChQsHFBQUwGurch9svR+S1+qRbdiSHvcP6eS+bGrSpMkoNdhVmCS6MjU1dcJ//vOf3pKPim8D/XXryhjlXI8tYfaeC0p+oqPYz8/v4syZM9Gx9S8RvN+inCIOglNkCSHEMnACgf35sKYkQYTNxbEmaa3oV9FJqazOh4SE5EVERFwaO3asnxiaHnASJBVnmVRiZRKPBp5SqQG8mskaFtJbfxNxd3D/9aoR8ixZnDIpKAHGcH16VfgMbEeA0f1SjFD+8Y9/zIqOjj7TsmXL3fIWeCD9WvS2aI0IU/3czSupJTAlFo5+IrZs2TI0Ly+vwnCxQo3vpxHcH1uQdGVDhw7N6N27N+7LKhHuEzoDGgswfsrEiAvZvn17z/z8fP1U5moz0dZ81rDjviChR0ZGhk///v1dcUpncdOmTSM3btyINaTGqcfAJMg8f4xh9p4DCUOgsg1PSUmJz6BBg7LlnsMvQ5YIzgCJg+AIJiGE1Aw0FOEoACOaGJXQhNFLCPGI61JUVNTh119/bSuVbGhmZiZGRUHV2s8OtJ5fQmqDtLcsNgJ0owumaeCgJygoqGDu3LmYYo5Ny+GhGVsDpYpgnEDooMEaZ4wONMYRAmWmg+iGhQsXzkpPT9dmQFjEkb9ta/dXQ+5j8QMPPHCgS5cu8BL7o2inCPcRHWyNBeyP2Eo07dNPP310x44d4WVlZd6IsHY/yu0V+7D1Pfp08jvLnTBhQvrIkSPfkFN01sB/APbJdGZQ12Fq7x1Hjx6d9OWXX3bKzs5GZ4ueKplhlj/GMHvPgT5MjpXfxcSJE48OHz4cnWAYrW9MI/Z1Dg1MQghxPOgNh3MPTKvFhs6YItdDBGcf4evXr/dGj3RycrJfXl6eb2FhoY+UxV4ijHzqa8aqtaSKsdGjVZi2YHwvcT3sud967HxulFFJOLjy8fG52LZt26KOHTsWxsbGwokH1hZiXSGcY2G9FdaxPSkilcFehkGim1977bV5KSkpYXJc6R7U9vdovIfa59nyjGAqc58+fS7cfvvtWAt7V3loo2aqGEPzli1b1jkrKwvGkDLaVR5VGclf9cg2bE1vlg73MjAwMO/pp5/+QE7heGmXCEamsxMimia6avny5dG7du1CHQjkkhSvrpUu1njtFvJCPSrH3vfojyVPc4YOHXpODPe35PTF8lDiCGhgEkJI3YDeb4xehIowsomKFr3kmHqFMPSW9xZ12759e+u1a9eGnjt3LrisrEwxNCUcVK0pVUwqZpsLc0sNJuI62HO/9dj43ChhXl5exX379s0U4wMNWUwfOyzCdiKYTgZPzJqRiZEUOPbYIyKVQX7DyLzl7bffXnjgwIEq+wLW9vdovIfa59nyjNxxxx0H+/fvj/v2rQjGS2MHW4LclpaWdvlLL700QI5NDUzJW/XINmxNbykd7qX8Hi8+88wzW729vTHFHA7pXMHrMuo7dLCOSU5Ovvv9999HnYfrUS5Un7fGazfLi+rSVPceYzzKOD8/v6KHH34Yz/6fy0OJI6CBSQgh9Q+myWHaXH9RpAgjnQiDEQrD1DM3N9fv7NmzAdLQCTpy5Ejg0aNH/RGGPbwkvqKWtKcxacSs4UScm5rcZ2vI52GtcElgYGBR27ZtC+677z4Yi7kivGJ0ElNcMbUVUyZfEZGaccsXX3yxaOvWrXAM5qWGNRj+/v4FnTp1ypH7vV5OsaYcW8UcQFwjp5soSjRl1qxZ09QysqKchIFib7lpNGosYS0dfvei0gkTJqTFxMRgKvNrIlfYtgSdpehgvbysrGzW4sWLhxUUFPhLHiqdqFpeGq/dLC+qS1PdeyykV8rTxx9/HM5+rsYxcQw0MAkhpP6BEYl1mpg6h1FO9PLCcEQ4aj0IRmd7EQxQNHo6v/32262SkpKaY5RTzstrRxqYjYqa3GczbrvtNuV1wIABRfKZGH2EEYk1lMkijFRiyitGLTFCCa+vhSLEk5pxU3x8/PMrVqxoV1pait97gzJ69OjjU6ZMwWg01vOtFMHRCUalGztY2oDOvvtnz579mJSRFTNKNAPF1nJTS18dtqTz9PTE7/6Sv79/4X333Xewbdu26Oz5nxLp/KBeQ2fqX9etWzc6Li6ujdRhqO+UvDRev1l+VJemFudKeXrLLbfs69y5c18lhDgEGpiEEOKcYCodtkWBkwQYmli7gi0PMMqJBg/UvLCwsNmpU6eC0tLSAo8cORJw9OjRgJycHPQQ66faWsSWxpJUxqwo6hBb7oFGdfcCo5FYM9miRYu8vn375rVv3z6/V69eMCAxGolXo2MQbYrrORGc8WiOevCK0UviGK4Ww/KxDz/8sMeePXswe6FBwMjlwIEDM2+44Ybtcoq1caQy+C2iA+/+L7/8cs7evXub5uXloSOwAhvLTPXIOrakQxr1d6/89keOHHnimmuu+VgO/4ZzFwFTY/8qz/7YFStWdNS28tJfP/LVLD+MYQ4+V7xod+zY8ez06dNR5sGJ0lcilInoWCM1hAYmIYQ4JzAO0dBB7y+EY82wBHhFr3Avkd4IbSMGZ5t//vOffpoXRGvQwGx4HGRgXrrzzjsv9evXD54/YUiisQRhFPKoCKOSeIXxaARrKSE478H+lNorwohjGCmacfz48StefvllrO1rEAYMGHDm9ttv3yuHWHP5qhJIzLiluLj4fjGGum7durWdGqZg7fdqNGasYUtaLY36u1d+++Hh4RceeeSRrXLoSlM6sQ7zrzt27Bj7/fffd5C6SdsrWk+VDDHmUR2cK3mKjrmgoKD8Bx54AFOPPxGhnMRac1JDaGASQohrgpoS02jhLEhzJAS38BjhxKtmlKL3HefwXok0gdu3bw9ISkoKPHToUEBeXp4/ptxKXYC0FegbUVolTOod9K6XBQQEFHTo0CEfe7YNHToUI5EQpjRi1BHrJbEdiNYAhWEIIxPxmjJF2EoEm+iThgFepKNF1z766KOTlZDy33AFDupoqACfp6Xz8vIqmjBhwpnY2Fg49ME+l7+IMIpJzIGzn0k5OTmxzzzzzHA5Nr03hnJSPbKOLemMabT7CFAeTJ48OW3w4MFYPuHsYCpsF9EVottfe+21AefPn29qofOz0kWb5IF6VI6DzpV8lWM4USp+7LHHVsjpd6KNohTEkZpBA5MQQtwX1KAY1cQIJ0Y6O4tgkGLqLabgwujEeiNlDejRo0eVBtObb76p1cSoI3BcXhP/3pjSwh2FIz/LWUFrX6twteMqYffff79yguPOnTtro4qagYj9JbWRSYxGfikirgF+Zx1Ed8+aNet++f2gU6fi94Q/2rnumahkwFhCnx4YP0dey1q2bHlhzpw5+L0T20DnXVfRg7Nnz75e8hQzRqrcC11eK+fVYUs6S2l09xNlRdnzzz8PI2iRCFuWoHyo9Bw0ILgACHmGDs+J0Pr16ydt2LABdZGRShdsdv3GsDo4V7Zkmj59emK7du22SNB/ROyAqQU0MAkhxL2B0wqMYmpearFVChwL4dVPlTb9Fmg1L9JgxFMbGcVn4LOggF27dgWmpqb6HT9+3C8rK8tH3cvT8+LFi8raT7XhZashaksaV6CSwYgGi6+vL6ZeFXbr1q2ge/fueQMGDNA8tGqvmIaFUUasdzROycJnQXCwg1FKvEcTRjHhkIe4BujEwb6K14j+uHr16h4//vij1thWnn/tt6J7hmptYIpKJ0+efHzs2LGJEoT/TWwD5Rxmhty/Y8eOm3744YdW6r6YRmwuu+ReqEeWsZZGvZ/acdl99923r0uXLlgvCG+ym0VYT+0MaL4DeqrqnZyc3P2bb77pmJOTYzUPza7fGFZH50rZ3b59+wwxMhPkHHtiwrsyqSE0MAkhhJgBoxKjndqIpzYNVzM48QqjE0LjGTKuF0XNXVGb79mz57L8/HyvkpISz9LSUo/i4mIPOVeMUQnzEOPUE3HZ2dmeeXl5XmK0ekk6xWBFHF7xOWoDurxV8HsD3HheBTQg5EVpSIjKoCZNmmCUUAnz8vJSXoG3t7dSOaqvSHdJDMUyMRiV9/j7+5dee+21pZIeI4zKZyC9+qq8R4Tpqmj0wSDEusjzIhiTeNWO4VgH+0xizQ9GIYh7M0w0RhQzf/784Ziirjk80Z5dPIN4NcPs+baUXp7dwg4dOuQ8+OCDv8optiHBaBexHZRjcLd8nRhHA+Pj47EWsyL/Jd+tljcaSFcd1aXRx2v3e9CgQaduuukmTHleLsI+jg3hBRhTYCGtsxL1QIQIHlmjfvnllyGbNm0Ks2BYaigXZ5YHxrA6PkenYJmU64d79OjxlJxjr1FSQ2hgEkIIMUPfaIDQCEaY/tXMoKxiWOpAHEYGMHqK92ufoR3j/yAORisaJJq09yhTeUV4j6cYoJ5lZWV49RJjVTFcMYIqDXYYqpX+f8+ePUvT0tJK27VrB8+AEEYEIYwOYs0ipDm40YxGzdmNtk0H0qMRh5FHjCBixBGGI8L0lal2jFe9oan9b/0xPhfCZ+A7EPcGMwkwbR3rMCd89NFHfXbs2AGvshWj/dLotdgws8fAnDFjxiExQn6TQ+zxt0mEbUmI7aC8ulw0Oj09/cbFixcPkPz3lPyuuAfVGZgGA8aU6tIY4+Vcud9Yiyn399zkyZPhlOYfovruoEK5j6UWMLyxHhTqLnkSnpGR0TwxMTFs27Zt8HRencM5uaSqeWBy3epROXVwrnQwjhw5MnXEiBFwgPVSeQypCTQwCSGE1Beo0ZUptiIYi3oDE+cwMBGnGZaY0otXGJwIR3yFgSnSDFvtWBPO8b+0FgQqOs1whFEHQ04zFvGqGZgw/MwMTMRpBqY2vRXGJTemJzUBzyicyMCz7Mj4+Pheq1atCs/Pz1e2F0ICS+gNGjSG1UM9l5o3b571xBNPYFQc665JzUFeozOgn+gvzz777Jjc3FzFKZoaZ9HANBovlqgunbV4jLZJfNlzzz2HabL/FMFxU12D8lubyYLOEqxVxdr+Xjk5OT2XLl3aU/IoUPJFKYNtyAfTNMawejpXDMzevXufvvrqqzEiPAeBpGbQwCSEEFKfaAag3gjUzjUhDYxI/asWp71HE9C/GsM0UNlp0oxHvOqlxQNjerzqjU8Yng0xJY24B5hmjpHLoSIYmhOefPLJ9oWFhb6q0WJ8fhWsGJhK4xivixcvhtOXn0SY5kdqBzq/YEA9tGnTpitXr17dGh0Bcq7cBzMD02i8mFFdGlvitfs9b968zU2aNPlajmFk1jXdRYNV9cvMzAw7cuRIqCjw+PHjATrjEt+v2owwpjF7izGsDs/xG7qsffv2Z2+55ZZv5PxP5cGkJtDAJIQQQgipfzBq30mEkUYYmt1EbRMSElr98MMP4dJ49y8pKUEaULlVXA4axFgPXDh69OiMmJiYUxJ2TLRbhHWXcP5Cag+mgd4kuvLNN98cnpKSAm+8yv0wGphG48WM6tLYGi+vSgN+2rRpycOGDcM9vxHnDgT/CDNHMEqJkVysx8f6yp45OTk93nvvvW5ZWVmB6jNa8aWr+f4W05m9r7o0DjivMIK0uBYtWpy7++67sZXPrUoAqRE0MAkhhBBCGgaM0GtrmtF4h6GJdX/DCwoKwp9++ulmGBEyMWQu3XPPPZd69eqFad3YDxWjlti2Anv4pYm0ad+k9mBa6CDRxF9++eXWr776qot6P/TrZvFildqmMcbhGcBrYGBgXt++fS9MmTIF2+A4EoxEwricIBqVlJQUFRcXF5aRkeFfVFQEr+HeeDYlruKL2XCNSgKTa1GPfqe6NA46V/JQHycG5nkxMNE5c0N5CKkJNDAJIYQQQhoeba9MjGriFeuPK6ZjWkCbqg2j8mMEEIeDDgCM3o0+d+7cX5csWdIXnn9hXMHANBouZlSXpjbx3t7exX5+fkVPPPEEnpfagH8CgxEj6RCewy6iyNTU1K4ff/xxl4KCAqwThqMjCS5/LpEHyonhO8q53sCoiDRJpx6VYzwH9r7H2rkhTpkWq0c1MH+WQ0ePCDcqaGASQgghhBBinStETy9evHj42bNnsYYWa8MVNCPLDKMBY6Q28YgTwdnPpWeffRaj4TUB/wDXglF0KEYUe/DgwRFiVGLNZcVILY6N3wdxxjCA76QeAktp1KNyapLGnnOTuEpGEOLFwMy866671sjpzeWhpCYoC3EJIYQQQgghFsG+tTseeuih/f7+/vBGbXWEBsaK0aAxYi3e2vsNcXoDsCZgdHa86D7R86K7MB121apVreRztenZisy+jy1hdZXGnnNb02KPY3nB9lOkFtDAJIQQQgghxDowMLc3adJkP6akikFSYWDiWC9PT0/lVY2ugsRVMXD01CDOQ4zCRHldJsIIZMXoqgn4AEy9biHCNNiBopiLFy/eMH/+/LvnzZs36cMPP+yVkZERqhqY2jpLxZDVSw2vwHBdSjwoP/0dY5DZuS1p9Fg7tydtYGAgDEzsc0xqAQ1MQgghhBBCrKMYmKJ94eHhpiOYMFSMxosRa/HVvd9SHMK//vrrtocPH4YzIqzfxRReS2AqLdZYThI9KobiI8nJyVctW7YsUo7huKfSPzH7n2bf01I6I9W9r7bvwbHxXI+1c3QMBAUFYV3z2fIQUlNoYBJCCCGEEGKdQhGcKZ0YMWLEucDAwAIlVMVouBhBvLU01cVZitfCc3JyQr766isYl/1UGUFCeIUdIhotmrR79+4rn3nmmdHvv/9+z9TU1DAxLpXRShiZkNn/rGkYzs3C9Nj7HmO8tbTA2jmMS3m5NG7cOHQeZCiBpMbQwCSEEEIIIcQ2cnr27JlyxRVXZOIERorRcDFSm3g74jzy8vJ8z549Gy3HU0XY7gZTYdHWhzByCUdF/5ebm3vbp59+Gvvjjz+2w6ilGl/5w0z+b03DapLG7FwfVpP36zH7LHktkxds70MDs5bQwCSEEEIIIcQ2Tos2TZw4MVkMklo5+rEl3gz9+7TRRhyXlZV5f/HFF1hXOUI0TTRd9Ef19XbR5H379l2xdOnSHomJia0KCgr85L2KLaB9DmT2f20Jw7lZmJHq0jjoXBmRhEzitTj9ey/17NkTU2OPic4rIaTG4EFSDwkhhBBCCCFWwH6lHUX3/O1vf3tACZH2tPpaAQwXGGvqaRWMRo+emsSpUzwRXybHJQEBAQVdu3bNj4yMzM3MzGySkJAQnJ+f71tYWOgr30s/Yqm81sawBLaE1SRNLc71BmT5H/M4Bcmz0pkzZ2KNbZzoI9FuhJOaQQOTEEIIIYQQ2/AVBYtuE6Pt/9asWdMyPT09VIlR0QwXMwNTb9SYYS3eUpwWLq/6Rv0lLy+vEni8vXjxondJSQm+t5LQwudUCTRLV9OwmqSx4bySEWMtvbU4yaeLoaGhuXfccQcMyxWivaIziCM1gwYmIYQQQggh9oF1jrfu3LlzwGeffQavrGKzVDZijAamMV6PI+MkrMq0UIAwW41eR4ZVdw7sfY96XmHEWEtvKU5elfc3b978wp133oltW4iD4BpMQgghhBBC7OOQ6LtBgwYdxYnRiDFiLb4mcQg3i7MWbsTetEaMYWafV905sPc99pxXE1fm7e19UYzLbWoQcRA0MAkhhBBCCLGP46J4MVKONG3aNMfT07O4PLgyMGiMRo4eS3HW3lddOEYp9SOV+nDlQDD7DIRZCtdjls7W9+mx5XOqOZfT389xbDzXo53LaxmmD4eHh59/6KGHkiVokxJBHAYNTEIIIYQQQuwjXwSvo0kzZ85MbNOmTZYSqsNo4OhBnKV4a+H2vMdSenvCjOG2vNeW9znqPRr2pBXjsrRZs2Y5t956K5z6vCr6UYkgDoNrMAkhhBBCCLEfL1EslJiYOOmDDz6IRKAYM4o1Y7beERiNHz2W4uoy3JFhNUlj5VwxUmrxfgXNwy6867Zs2TJrzJgxp9u3b39EgtaL4NQHDn3yRMRBcASTEEIIIYQQ+8HG/PtEGyMjI9PFsDF1rqOBOEvx1cWZYU+4pc+vaZjZ59n6Pj31eR4YGFh46623HhDj8ns5fUn0mShNVCAiDoQjmIQQQgghhNSMQFFP0d9efPHFmNzc3ICysjJvRFS35lHDUpy977Hnc+o6rJo0DhmZtOW8RYsW56+44oqMnj17pkgQRi3hnClRtEpE6giOYBJCCCGEEFIzsBbznCh9+PDh5319feHsp2L0BkaO0fDRqC7ODEvvsedz6jqsJmkceY5j7fzOO+88LcYlvMT+R/SM+oqpsaQO4QgmIYQQQgghNSdcdKPoyjfeeOPyEydOYE9FsXF+N3qM6zH1cXoshQN73lPbtLaE1SJNJeOjuvfYc+7j41PUoUOHrOuuuw7bx2D68gHRQdE3IlJP0MAkhBBCCCGk5gSLhogmbtmy5Zbvvvuuk7SvLc0SrGwd6TAaThqOCK9tWmNYTdLY+B6bjU8cq+mx9vUSth55+OGHL8j5MdEVSEMaBk6RJYQQQgghpOYUipJE+9u1a5crxg6c/1QZwdEbR0YsxTki3FKYMdyeMD22ptFj73uM6fXHAQEB+Y888sgJMS7XyekHojeUCNJgcASTEEIIIYSQ2jNC2tXzFi9ePDQrKytEnRYrtlBlwwmocZUMJSOW4szCa5u2pmE1SWPhvMIgsZZejjFSWezv7194zz33FPr4+MADLLYZSRVtFe0Q7RFhJJM0EDQwCSGEEEIIqT19RXdmZmaOfvnll/uVlpY2EYOosrWkAgPTQlQVA0vDnvDapjWG1VUa3blikFhLL8dl3t7eFx966KGznp6eWGOZrBPO4WzpvChLBGdLpIGggUkIIYQQQkjtaSsaKfrDokWLrsvOzg6S48oWkwCjSRvBNGI0sDTMwmub1pFhNqapZHSo8VqiKnuIihGJsDJfX9+LgwcPPjtixIizEpwuOiGCQZkignGJ0UuMYhIngQYmIYQQQgghtaeJqKnoj2+//fZTqampLaSdXcnfiWZEGQ1Mo3Gl4YhwR4bVMk2F0aFLoxzIeRXjE2F+fn6FDz74IEYm40TaFNjToiIR1r7iFeKIpRNBA5MQQgghhBDHAIPpamlfz1y+fHmPHTt2tEGYzqBS0BuYxjgNe8Jrm9aWMDvTKAaGDe+RU+VcS1/m5eVVOmjQoNPjxo3DSCU8wmKk8gnEE9eABiYhhBBCCCGOY6hoysWLF8c+88wzIzQLSg8MTJNgBUeE13WYDWmqTHm1cK4FKunhwOeRRx7BiCRGK9eI4kW7Rfki4iLQwCSEEEIIIcRxtBZ1F902b96828vKyrykve2FCG3k0mhsadgTXtu0NQ2zMU0lA8PSZ8hrmZ+fX9Ff/vKXTE9PzyMSpGkB4olrQgOTEEIIIYQQxzPzlVde+fuFCxcCS0pK/BCgGVaaoalhNMA0HBFe07Bq0mhTWpUTPdV9DqbASlipr69v8Z133lkUFBSULcEwKjeINou2iDhi6cLQwCSEEEIIIcTxTBXdkpCQMPDzzz+PUA0t5Y/ewDQz0oA94Q0QVu0UWKAPk2O851Lv3r3PXH311ccl6IDokAgeYOG456R6DJWIiItCA5MQQgghhBDHM0AUJW3tG+fNmzdaXuFRVrG4NAPTzCgD1RlremxNayHMaAhIUOV0uvOKtFbSKOBcpKT39PQsCQ4OzuvevXvO+PHjsUdliuigaJtojwjGJUYxiZtAA5MQQgghhBDHgy1L4EX2cTEwb5Y2N9ZiatuWVLX2BKOhpmEWXtu0apjRaKyU0PA+Ja3xsyydyytGLMvatWuXOX369EQJ2imC8x4YlBdE50UwOLHdCEcs3QgamIQQQgghhNQNWHv55MqVK+9ITEwMzc/P9xejC+3vCqsMp+qrcm6IU48qYxZewzCj0YgDmwxJYAzz9PRUjMoePXqcvfbaazMk6KwI02H3i3aJMGqJ0cpSEXFTaGASQgghhBBSNzQR3SXt7eu/+uqrPgkJCfAwW8nAhFGmHipocbYYdBq2pjUJM66llNMq02arvM/kc5QwTIe99dZbi9u2bbtJgiCMWGKdJZz4kEYCDUxCCCGEEELqBm9RtGh8amrqlHfffbe3tL2VLUuAmaEmmAdaMOrMsCWtlTSVjANr75PjS2JUloaHh1+444470iQoVXRM9BDiSeNEmwdOCCGEEEIIcSyYCrpPFNehQ4d0GGRyrIwaGg03YBYGbE1r9rmWwozU5H1iXJbNmjWrWIzLE3K6XvSO6HHEkcYLRzAJIYQQQgipO/xFPUVPLFmyJCY3NzdAP4oJ9IabNkUWGA06DbPwmoYZzhXDwFqagICAgjZt2uTceOONKXKKqa/QU4gjBNDAJIQQQgghpG7pLPrbjz/+eNW2bdvCS0tLfcuDqxpzFlAS6dJWNOBN3i9BVT9Twqo0+i2kU4/KwSilhJVhfeVdd91V3KJFi3MSjD0r40WbRb+IsHclIQo0MAkhhBBCCKlbwkTXiGLffffdcampqS3NjDsrSPJK6U1HGoExIVCDKjX6jcksfBZGLPP+3//7f+fkOFmCsH8lnPbgGNuNwLBMFxWICFGggUkIIYQQQkjdEiDCNNnxycnJd3788cfd9KOY1lANv0rWn4SZNuAtGYl6rKVRP/eSv79/YVhYWN6tt96K/SphQMKBz17RDtEB0VERIabQwCSEEEIIIaRuwZrLIFGU6M/ffvvt4J07d7aWdniltZhGdMbg7wflYVZHI0FNwuT4kpeXV/GsWbOwvvI30UYRRizPq4LBmSvKFxFiCg1MQgghhBBC6oceouul/T3+H//4R1RBQYGfnFex+gyGYMWJLryiAV+d0ahhDNOfBwYG5vbu3fvCxIkTsbYSHmGx1ch+EfayxDENSmIzNDAJIYQQQgipH5qJuoiue+ONN/587ty5pmVlZRY9yqpIUJUwZasTIzUJk+Oyv/3tb5jyihHL70Q/i4pEhSKMVl4UlYkIsQkamIQQQgghhNQPPqJg0TjRrQkJCX2XL1/eDRFCVUtQEAOwSrhJkE0Gp6enJ9KVBgUF5f/lL385JUHaaOW9iCfEEXiqr4QQQgghhJC6pViUKYLDnOX9+/dPlFeLxqExvLZhwqUZM2YUi3GJrUa2iz4WPY0IQhwFRzAJIYQQQgipX0JFbUQxoti4uLhe69ev7yjtcsUKVI1BzUJUGutWwiphDIPTHj8/v4sPP/wwthY5rApTYjF6iVeEc5sR4jBoYBJCCCGEENIwDBGNFF398ssvX56fn+9XVlbmoxmawGAwKicSVqUBj+mv6iHiy+S8xNfXt1gMyxwJyhLFiTaIfhXByCSkTqCBSQghhBBCSMMQJmorukIUtW/fvqhvvvmmkxiZ3tJG99SMS53BKUHKYaUGPMJESpgYlsWRkZHnp02bdlxOsWdlkip4iMW6y7OibBEhdQINTEIIIYQQQhoOeJGNEA0QxYr6bdu2rfnevXtD0tPTgzVjE0amalxWoJ17e3sXNmvWrODee+/NFQMT+1XCuDwo2iGCd1is+SSkXqCBSQghhBBCSMMSJAoRhYtgbGLq7KBly5YNOnv2bFBRUVETzciUcAVt1FKEbUawnjJFBGNynwhTYDFaeUGE0UpMkyWkXqCBSQghhBBCiPMAI7OfTgEiX1VNRBjxLBVhr8oS9RjTX1NF+0UwLjE1lpAGgQYmIYQQQgghzoO3yF/kp75iW0EYlc1FGOWEkQnjEluNwPsrjMyLqgpFiIMIaRBoYBJCCCGEEOLcYGpsoAijmTBAMWJJiFNCA5MQQgghhBBCiEPAkDshhBBCCCGEEFJraGASQgghhBBCCHEINDAJIYQQQgghhDgEGpiEEEIIIYQQQhwCDUxCCCGEEEIIIQ6BBiYhhBBCCCGEEIdAA5MQQgghhBBCiEOggUkIIYQQQgghxCHQwCSEEEIIIYQQ4hBoYBJCCCGEEEIIcQg0MAkhhBBCCCGEOAQamIQQQgghhBBCHAINTEIIIYQQQgghDoEGJiGEEEIIIYQQh0ADkxBCCCGEEEKIQ6CBSQghhBBCCCHEIdDAJIQQQgghhBDiEGhgEkIIIYQQQghxCDQwCSGEEEIIIYQ4BBqYhBBCCCGEEEIcAg1MQgghhBBCCCEOgQYmIYQQQgghhBAHcNll/x8ucgFjY/fi0QAAAABJRU5ErkJggg==;fontSize=13;" vertex="1" parent="1">
          <mxGeometry x="840" y="90" width="90" height="90" as="geometry" />
        </mxCell>
        <mxCell id="lrEO84pTNe-Y5uYV_HlD-40" value="" style="endArrow=classic;startArrow=classic;html=1;rounded=0;entryX=0;entryY=0;entryDx=120;entryDy=50;entryPerimeter=0;exitX=0;exitY=0.5;exitDx=0;exitDy=0;" edge="1" parent="1" source="lrEO84pTNe-Y5uYV_HlD-36" target="lrEO84pTNe-Y5uYV_HlD-24">
          <mxGeometry width="50" height="50" relative="1" as="geometry">
            <mxPoint x="643" y="236" as="sourcePoint" />
            <mxPoint x="650" y="170" as="targetPoint" />
          </mxGeometry>
        </mxCell>
        <mxCell id="lrEO84pTNe-Y5uYV_HlD-41" value="&lt;font style=&quot;font-size: 13px;&quot;&gt;Port Forwarding&lt;br&gt;NAT Port&lt;/font&gt;" style="edgeLabel;html=1;align=center;verticalAlign=middle;resizable=0;points=[];" vertex="1" connectable="0" parent="lrEO84pTNe-Y5uYV_HlD-40">
          <mxGeometry x="0.2185" y="-3" relative="1" as="geometry">
            <mxPoint x="22" as="offset" />
          </mxGeometry>
        </mxCell>
        <mxCell id="lrEO84pTNe-Y5uYV_HlD-42" value="&lt;font style=&quot;font-size: 13px;&quot;&gt;Global web client&lt;/font&gt;" style="shape=umlActor;verticalLabelPosition=bottom;verticalAlign=top;html=1;outlineConnect=0;" vertex="1" parent="1">
          <mxGeometry x="1010" y="103" width="30" height="60" as="geometry" />
        </mxCell>
        <mxCell id="lrEO84pTNe-Y5uYV_HlD-43" value="" style="endArrow=none;dashed=1;html=1;rounded=0;" edge="1" parent="1" source="lrEO84pTNe-Y5uYV_HlD-36" target="lrEO84pTNe-Y5uYV_HlD-42">
          <mxGeometry width="50" height="50" relative="1" as="geometry">
            <mxPoint x="990" y="160" as="sourcePoint" />
            <mxPoint x="1040" y="110" as="targetPoint" />
          </mxGeometry>
        </mxCell>
      </root>
    </mxGraphModel>
  </diagram>
</mxfile>
